<svg id="Capa_1" enable-background="new 0 0 512 512" height="512" viewBox="0 0 512 512" width="512" xmlns="http://www.w3.org/2000/svg"><g><g><path d="m196.452 297.952h-124.694c-13.446 0-24.384 10.939-24.384 24.384v124.694c0 13.445 10.939 24.384 24.384 24.384h124.694c13.445 0 24.384-10.939 24.384-24.384v-124.694c0-13.445-10.939-24.384-24.384-24.384zm12.098 149.078c0 6.671-5.427 12.098-12.098 12.098h-124.694c-6.671 0-12.098-5.427-12.098-12.098v-124.694c0-6.671 5.428-12.098 12.098-12.098h124.694c6.671 0 12.098 5.427 12.098 12.098z"/><path d="m444.044 257.366h-75.339c6.654-8.682 10.622-19.527 10.622-31.285v-151.564c0-28.417-23.119-51.535-51.535-51.535h-151.565c-28.417 0-51.536 23.118-51.536 51.535v151.563c0 11.759 3.967 22.603 10.621 31.285h-76.988c-28.417 0-51.536 23.118-51.536 51.536v151.563c0 28.418 23.118 51.536 51.536 51.536h151.563c16.881 0 31.891-8.159 41.297-20.739 9.405 12.58 24.416 20.739 41.297 20.739h151.563c28.416 0 51.535-23.118 51.535-51.536v-151.563c0-28.417-23.119-51.535-51.535-51.535zm-298.876-182.849c0-17.126 13.933-31.059 31.059-31.059h151.563c17.126 0 31.059 13.933 31.059 31.059v151.563c0 17.126-13.933 31.059-31.059 31.059h-151.563c-17.126 0-31.059-13.933-31.059-31.059zm106.399 203.099c-.126.164-.259.323-.383.489-.124-.166-.257-.324-.383-.489zm-41.68 213.908h-151.563c-17.126 0-31.059-13.933-31.059-31.059v-151.564c0-17.126 13.933-31.059 31.059-31.059h151.563c17.126 0 31.059 13.933 31.059 31.059v151.563c-.001 17.127-13.933 31.06-31.059 31.06zm265.216-31.06c0 17.126-13.933 31.059-31.059 31.059h-151.563c-17.126 0-31.059-13.933-31.059-31.059v-151.563c0-17.126 13.933-31.059 31.059-31.059h151.563c17.126 0 31.059 13.933 31.059 31.059z"/><path d="m430.609 297.952h-124.693c-13.446 0-24.384 10.939-24.384 24.384v124.694c0 13.445 10.938 24.384 24.384 24.384h124.694c13.446 0 24.384-10.939 24.384-24.384v-124.694c-.001-13.445-10.939-24.384-24.385-24.384zm12.098 149.078c0 6.671-5.427 12.098-12.098 12.098h-124.693c-6.671 0-12.098-5.427-12.098-12.098v-124.694c0-6.671 5.427-12.098 12.098-12.098h124.694c6.671 0 12.098 5.427 12.098 12.098v124.694z"/><path d="m189.662 237.03h124.694c13.446 0 24.384-10.939 24.384-24.384v-124.694c0-13.445-10.938-24.384-24.384-24.384h-124.694c-13.445 0-24.384 10.939-24.384 24.384v124.694c0 13.445 10.939 24.384 24.384 24.384zm-12.098-149.078c0-6.671 5.427-12.098 12.098-12.098h124.694c6.671 0 12.098 5.427 12.098 12.098v124.694c0 6.671-5.427 12.098-12.098 12.098h-124.694c-6.671 0-12.098-5.427-12.098-12.098z"/><path d="m145.916 333.235c-.035-.093-.072-.187-.11-.279-1.931-4.695-6.456-7.726-11.532-7.726-.004 0-.008 0-.011 0-5.08.004-9.606 3.045-11.529 7.748-.032.077-.062.155-.092.233l-36.962 97.044c-2.013 5.284.64 11.199 5.924 13.212 5.285 2.013 11.199-.64 13.212-5.924l6.694-17.575h45.252l6.622 17.546c1.547 4.1 5.443 6.626 9.58 6.626 1.201-.001 2.423-.214 3.613-.663 5.29-1.997 7.961-7.904 5.964-13.194zm-26.608 66.256 14.931-39.202 14.795 39.202z"/><path d="m393.328 377.545c4.003-5.448 6.374-12.165 6.374-19.429 0-18.134-14.753-32.887-32.887-32.887h-28.592c-5.654 0-10.238 4.584-10.238 10.238v45.325.073 53.033c0 2.723 1.085 5.334 3.014 7.256 1.92 1.911 4.517 2.982 7.224 2.982h.046c.263-.001 26.388-.117 33.539-.117 20.255 0 36.733-16.478 36.733-36.733-.001-12.22-6.005-23.06-15.213-29.741zm-26.514-31.839c6.844 0 12.411 5.567 12.411 12.411 0 6.843-5.567 12.411-12.411 12.411-3.524.003-13.561.037-18.354.027v-24.848h18.354zm4.993 77.837c-4.247 0-15.107.041-23.347.074v-32.556c5.302-.036 17.857-.032 23.347-.03 8.964 0 16.256 7.293 16.256 16.257.001 8.963-7.292 16.255-16.256 16.255z"/><path d="m261.114 209.753c13.043 0 24.738-4.276 33.821-12.366 1.784-1.589 3.476-3.335 5.03-5.189 3.632-4.333 3.064-10.791-1.27-14.423-4.332-3.632-10.789-3.066-14.424 1.269-.918 1.095-1.914 2.123-2.958 3.053-5.348 4.763-12.145 7.179-20.201 7.179-21.492 0-38.978-17.485-38.978-38.977s17.486-38.978 38.978-38.978c7.812 0 15.345 2.3 21.785 6.65 4.683 3.166 11.05 1.934 14.215-2.752 3.165-4.685 1.934-11.05-2.751-14.215-9.838-6.646-21.335-10.16-33.248-10.16-32.783 0-59.454 26.671-59.454 59.454.001 32.784 26.672 59.455 59.455 59.455z"/><path d="m91.127 378.013v-12.348c0-5.655-4.584-10.238-10.238-10.238-5.655 0-10.238 4.584-10.238 10.238v12.348c0 5.655 4.584 10.238 10.238 10.238s10.238-4.583 10.238-10.238z"/><path d="m80.888 346.68c5.655 0 10.238-4.584 10.238-10.238v-4.531c0-5.655-4.584-10.238-10.238-10.238-5.655 0-10.238 4.584-10.238 10.238v4.531c0 5.655 4.584 10.238 10.238 10.238z"/></g><ellipse cx="491.037" cy="168.965" rx="18.989" ry="18.989" transform="matrix(.16 -.987 .987 .16 245.597 626.596)"/><ellipse cx="68.241" cy="69.711" rx="8.041" ry="8.042" transform="matrix(.973 -.23 .23 .973 -14.191 17.543)"/><path d="m76.001 140.21-21.725-9.788c-.93-.419-1.667-1.249-2.04-2.296l-8.696-24.452c-1.228-3.455-5.573-3.455-6.802 0l-8.696 24.452c-.372 1.047-1.11 1.877-2.04 2.296l-21.725 9.788c-3.069 1.383-3.069 6.273 0 7.656l21.725 9.788c.93.419 1.667 1.249 2.04 2.296l8.696 24.452c1.229 3.454 5.574 3.454 6.802 0l8.696-24.452c.372-1.047 1.11-1.876 2.04-2.296l21.725-9.788c3.069-1.382 3.069-6.273 0-7.656z"/><path d="m433.066 1.922 6.451 18.139c.276.776.823 1.392 1.513 1.703l16.115 7.26c2.277 1.026 2.277 4.653 0 5.679l-16.115 7.261c-.69.311-1.237.926-1.513 1.703l-6.451 18.139c-.911 2.562-4.134 2.562-5.046 0l-6.451-18.139c-.276-.777-.823-1.392-1.513-1.703l-16.115-7.261c-2.277-1.026-2.277-4.653 0-5.679l16.115-7.26c.69-.311 1.237-.926 1.513-1.703l6.451-18.139c.911-2.563 4.134-2.563 5.046 0z"/></g></svg>