<svg enable-background="new 0 0 64 64" viewBox="0 0 64 64" xmlns="http://www.w3.org/2000/svg"><g id="_x30_1_Isolation"/><g id="_x30_2_Hospital"/><g id="_x30_3_14_days"/><g id="_x30_4_Physical_distancing"/><g id="_x30_5_Monitoring"/><g id="_x30_6_Stay_home"/><g id="_x30_7_Avoid_close_contact"/><g id="_x30_8_Rapid_test"/><g id="_x30_9_Positive"/><g id="_x31_0_Isolation_room"/><g id="_x31_1_Suspect"/><g id="_x31_2_Medical_kit"/><g id="_x31_3_Negative"/><g id="_x31_4_Vaccine"/><g id="_x31_5_Disinfectant"/><g id="_x31_6_Emergency_call"/><g id="_x31_7_Wash_hand"/><g id="_x31_8_Lab"/><g id="_x31_9_Patient_data"/><g id="_x32_0_No_smoking"/><g id="_x32_1_Drugs"/><g id="_x32_2_Swab"/><g id="_x32_3_Vegetables"/><g id="_x32_4_Own_clothes"/><g id="_x32_5_Sunbathe"/><g id="_x32_6_Emergency_admission"/><g id="_x32_7_Tableware"/><g id="_x32_8_Mask"/><g id="_x32_9_Physical_distancing"/><g id="_x33_0_Thermometer"/><g id="_x33_1_Treatment"/><g id="_x33_2_Disinfectant"/><g id="_x33_3_Protection"/><g id="_x33_4_Thermal_scanner"/><g id="_x33_5_Hand_sanitizer"><g><path d="m17 61c0 1.654 1.346 3 3 3h24c1.654 0 3-1.346 3-3v-36c0-3.859-3.14-7-7-7h-2v-3c0-1.654-1.346-3-3-3v-6h5c1.654 0 3-1.346 3-3s-1.346-3-3-3h-20c-1.654 0-3 1.346-3 3v4c0 .553.448 1 1 1h4c.552 0 1-.447 1-1v-1h6v6c-1.654 0-3 1.346-3 3v3h-2c-3.86 0-7 3.141-7 7zm28-9h-26v-22h26zm-1 10h-24c-.551 0-1-.448-1-1v-7h26v7c0 .552-.449 1-1 1zm-22-58c-.552 0-1 .447-1 1v1h-2v-3c0-.552.449-1 1-1h20c.551 0 1 .448 1 1s-.449 1-1 1zm9 2h2v6h-2zm-3 9c0-.552.449-1 1-1h6c.551 0 1 .448 1 1v3h-8zm-4 5h16c2.757 0 5 2.243 5 5v3h-26v-3c0-2.757 2.243-5 5-5z"/><path d="m27 44h2v2c0 .553.448 1 1 1h4c.552 0 1-.447 1-1v-2h2c.552 0 1-.447 1-1v-4c0-.553-.448-1-1-1h-2v-2c0-.553-.448-1-1-1h-4c-.552 0-1 .447-1 1v2h-2c-.552 0-1 .447-1 1v4c0 .553.448 1 1 1zm1-4h2c.552 0 1-.447 1-1v-2h2v2c0 .553.448 1 1 1h2v2h-2c-.552 0-1 .447-1 1v2h-2v-2c0-.553-.448-1-1-1h-2z"/><path d="m23 14c0-1.424-1.77-3.212-2.312-3.726-.386-.365-.99-.365-1.376 0-.543.514-2.312 2.302-2.312 3.726 0 1.654 1.346 3 3 3s3-1.346 3-3zm-4 .002c.013-.261.442-.909 1-1.553.557.644.987 1.291 1 1.553-.001.55-.449.998-1 .998s-1-.448-1-.998z"/></g></g><g id="_x33_6_No_alcohol"/><g id="_x33_7_Oxygen"/><g id="_x33_8_Monitoring"/><g id="_x33_9_Blood_test"/><g id="_x34_0_Isolation"/><g id="_x34_1_Vitamin"/><g id="_x34_2_Tissue"/><g id="_x34_3_Rest"/><g id="_x34_4_Oxygen"/><g id="_x34_5_Antibody"/><g id="_x34_6_Disinfectant"/><g id="_x34_7_Mask"/><g id="_x34_8_Consultation"/><g id="_x34_9_Ambulance"/><g id="_x35_0_Vitamin"/></svg>