<svg id="Layer_1" enable-background="new 0 0 256 256" height="512" viewBox="0 0 256 256" width="512" xmlns="http://www.w3.org/2000/svg"><g><g><g><g><g><path d="m102.767 175.995c0-12.072 0-21.53 0-34.419 0-8.922-7.232-16.154-16.154-16.154h-54.924c-8.922 0-16.154 7.232-16.154 16.154v34.419z" fill="#e0ebfc"/></g><g><path d="m102.767 177.995h-87.232c-1.104 0-2-.896-2-2v-34.419c0-10.011 8.144-18.154 18.154-18.154h54.924c10.01 0 18.154 8.144 18.154 18.154v34.419c0 1.105-.895 2-2 2zm-85.232-4h83.232v-32.419c0-7.805-6.35-14.154-14.154-14.154h-54.924c-7.805 0-14.154 6.35-14.154 14.154z" fill="#3762cc"/></g><g><path d="m42.998 113.13v12.292l16.137 21.027 16.137-21.027c0-4.372 0-8.012 0-12.292z" fill="#f9cfcf"/></g><g><path d="m36.459 177.995c-.425 0-.853-.135-1.216-.413-.876-.673-1.042-1.929-.369-2.805l38.812-50.573c.673-.875 1.928-1.041 2.804-.369.876.673 1.042 1.929.369 2.805l-38.812 50.573c-.393.513-.987.782-1.588.782z" fill="#3762cc"/></g><g><path d="m59.136 148.449c-.622 0-1.208-.289-1.586-.782l-16.138-21.027c-.268-.35-.414-.777-.414-1.218v-12.292c0-1.104.896-2 2-2h32.274c1.104 0 2 .896 2 2v12.292c0 .44-.146.868-.414 1.218l-16.137 21.027c-.377.493-.964.782-1.585.782zm-14.137-23.706 14.137 18.421 14.137-18.421v-9.613h-28.274z" fill="#3762cc"/></g></g><g><g><path d="m59.151 113.23c-25.35 0-45.9-20.55-45.9-45.9v-14.697c0-4.179 3.388-7.567 7.567-7.567h84.234v22.264c-.001 25.35-20.551 45.9-45.901 45.9z" fill="#4671c6"/></g><g><path d="m59.151 115.23c-26.413 0-47.9-21.488-47.9-47.9v-14.697c0-5.275 4.292-9.566 9.567-9.566h84.233c1.104 0 2 .896 2 2v22.263c0 26.412-21.488 47.9-47.9 47.9zm-38.333-68.164c-3.07 0-5.567 2.497-5.567 5.566v14.698c0 24.207 19.694 43.9 43.9 43.9s43.9-19.693 43.9-43.9v-20.264z" fill="#3762cc"/></g><g><path d="m98.245 72.325v-3.66c0-21.396-17.503-38.741-39.093-38.741-21.591 0-39.093 17.345-39.093 38.741v3.66c-6.788-.138-12.174 5.27-12.174 11.807 0 6.98 6.094 12.501 13.206 11.749 4.034 17.14 19.539 29.91 38.061 29.91 18.524 0 34.027-12.771 38.061-29.91 7.103.751 13.206-4.76 13.206-11.749-.001-6.54-5.39-11.945-12.174-11.807z" fill="#f9cfcf"/></g><g><path d="m79.447 95.457c-3.152 0-5.707-2.555-5.707-5.707v-6.088c0-3.152 2.555-5.707 5.707-5.707 3.152 0 5.707 2.555 5.707 5.707v6.088c0 3.151-2.555 5.707-5.707 5.707z" fill="#3762cc"/></g><g><path d="m38.845 95.457c-3.152 0-5.707-2.555-5.707-5.707v-6.088c0-3.152 2.555-5.707 5.707-5.707 3.152 0 5.707 2.555 5.707 5.707v6.088c.001 3.151-2.555 5.707-5.707 5.707z" fill="#3762cc"/></g><g><path d="m59.151 127.791c-18.637 0-34.687-12.19-39.596-29.846-3.353-.063-6.595-1.322-9.099-3.575-2.906-2.615-4.573-6.347-4.573-10.238 0-3.726 1.472-7.219 4.144-9.838 2.204-2.159 5.001-3.495 8.03-3.866v-1.764c0-22.465 18.435-40.741 41.094-40.741s41.093 18.276 41.093 40.741v1.764c3.03.371 5.827 1.708 8.031 3.868 2.671 2.618 4.143 6.111 4.143 9.836 0 3.892-1.667 7.622-4.572 10.237-2.504 2.253-5.747 3.513-9.1 3.576-4.909 17.656-20.958 29.846-39.595 29.846zm-38.059-33.91c.918 0 1.731.631 1.945 1.542 3.932 16.703 18.782 28.368 36.114 28.368s32.182-11.665 36.114-28.368c.231-.98 1.153-1.629 2.157-1.531 2.831.304 5.653-.61 7.749-2.496 2.064-1.857 3.248-4.505 3.248-7.264 0-2.641-1.045-5.119-2.942-6.979-1.917-1.88-4.478-2.919-7.191-2.829-.566-.022-1.057-.196-1.44-.571-.384-.377-.6-.892-.6-1.429v-3.66c0-20.259-16.64-36.741-37.093-36.741-20.454 0-37.094 16.482-37.094 36.741v3.66c0 .537-.216 1.053-.6 1.429s-.897.571-1.44.571c-2.736-.07-5.273.948-7.19 2.827-1.898 1.86-2.943 4.339-2.943 6.98 0 2.759 1.184 5.407 3.249 7.265 2.125 1.914 4.882 2.8 7.747 2.495.069-.006.14-.01.21-.01z" fill="#3762cc"/></g><g><path d="m38.201 65.719h53.346c7.459 0 13.505-6.046 13.505-13.505v-11.67c0-13.227-10.723-23.949-23.949-23.949h-38.91c-13.227 0-23.949 10.723-23.949 23.949v5.217c-.001 11.023 8.934 19.958 19.957 19.958z" fill="#4671c6"/></g><g><path d="m91.546 67.719h-53.345c-12.108 0-21.958-9.851-21.958-21.958v-5.217c0-14.309 11.641-25.949 25.949-25.949h38.91c14.309 0 25.949 11.641 25.949 25.949v11.67c0 8.55-6.955 15.505-15.505 15.505zm-49.354-49.124c-12.103 0-21.949 9.847-21.949 21.949v5.217c0 9.902 8.056 17.958 17.958 17.958h53.346c6.344 0 11.505-5.161 11.505-11.505v-11.67c0-12.103-9.846-21.949-21.949-21.949z" fill="#3762cc"/></g><g><path d="m59.134 108.052c-1.469 0-2.754-.174-3.931-.532-1.951-.593-3.667-1.596-4.962-2.9-.778-.784-.773-2.051.011-2.829.785-.777 2.051-.772 2.828.011.83.837 1.966 1.491 3.287 1.893.794.241 1.699.358 2.768.358 1.068 0 1.973-.117 2.768-.358 1.319-.401 2.456-1.056 3.287-1.893.778-.784 2.044-.788 2.829-.01.784.778.789 2.044.01 2.828-1.295 1.305-3.011 2.308-4.962 2.9-1.179.358-2.465.532-3.933.532z" fill="#3762cc"/></g></g></g><g><g><g><path d="m224.079 175.995c0-12.072 0-21.53 0-34.419 0-8.922-7.232-16.154-16.154-16.154h-54.924c-8.922 0-16.154 7.232-16.154 16.154v34.419z" fill="#e0ebfc"/></g><g><path d="m224.079 177.995h-87.231c-1.104 0-2-.896-2-2v-34.419c0-10.011 8.144-18.154 18.154-18.154h54.924c10.01 0 18.154 8.144 18.154 18.154v34.419c-.001 1.105-.897 2-2.001 2zm-85.232-4h83.231v-32.419c0-7.805-6.35-14.154-14.154-14.154h-54.924c-7.804 0-14.154 6.35-14.154 14.154v32.419z" fill="#3762cc"/></g><g><path d="m164.31 113.13v12.292l16.137 21.027 16.137-21.027c0-4.372 0-8.012 0-12.292z" fill="#f9cfcf"/></g><g><path d="m157.771 177.995c-.425 0-.853-.135-1.216-.413-.876-.673-1.042-1.929-.369-2.805l38.812-50.573c.672-.875 1.928-1.041 2.804-.369.876.673 1.042 1.929.369 2.805l-38.812 50.573c-.394.513-.987.782-1.588.782z" fill="#3762cc"/></g><g><path d="m180.447 148.449c-.622 0-1.208-.289-1.586-.782l-16.137-21.027c-.268-.35-.414-.777-.414-1.218v-12.292c0-1.104.896-2 2-2h32.274c1.104 0 2 .896 2 2v12.292c0 .44-.146.868-.414 1.218l-16.137 21.027c-.378.493-.964.782-1.586.782zm-14.137-23.706 14.137 18.421 14.137-18.421v-9.613h-28.274z" fill="#3762cc"/></g></g><g><g><path d="m248.116 115.194h-8.747c-14.102 0-25.534-11.432-25.534-25.534v-24.157h8.747c14.102 0 25.534 11.432 25.534 25.534z" fill="#4671c6"/></g><g><path d="m112.81 115.194h8.747c14.102 0 25.534-11.432 25.534-25.534v-24.157h-8.747c-14.102 0-25.534 11.432-25.534 25.534z" fill="#4671c6"/></g><g><path d="m248.116 117.194h-8.747c-15.183 0-27.534-12.352-27.534-27.534v-24.157c0-1.104.896-2 2-2h8.747c15.183 0 27.535 12.352 27.535 27.534v24.157c-.001 1.105-.896 2-2.001 2zm-32.281-49.691v22.157c0 12.977 10.558 23.534 23.534 23.534h6.747v-22.157c0-12.977-10.558-23.534-23.535-23.534z" fill="#3762cc"/></g><g><path d="m121.557 117.194h-8.747c-1.104 0-2-.896-2-2v-24.157c0-15.183 12.352-27.534 27.535-27.534h8.747c1.104 0 2 .896 2 2v24.157c-.001 15.183-12.353 27.534-27.535 27.534zm-6.747-4h6.747c12.977 0 23.534-10.558 23.534-23.534v-22.157h-6.747c-12.977 0-23.535 10.558-23.535 23.534v22.157z" fill="#3762cc"/></g><g><path d="m134.563 48.97v18.36c0 25.35 20.55 45.9 45.9 45.9 25.35 0 45.9-20.55 45.9-45.9v-18.36z" fill="#4671c6"/></g><g><path d="m180.463 115.23c-26.413 0-47.9-21.488-47.9-47.9v-18.36c0-1.104.896-2 2-2h91.801c1.104 0 2 .896 2 2v18.36c-.001 26.412-21.489 47.9-47.901 47.9zm-43.901-64.26v16.36c0 24.207 19.694 43.9 43.9 43.9s43.9-19.693 43.9-43.9v-16.36z" fill="#3762cc"/></g><g><path d="m219.556 72.325v-3.66c0-21.396-17.503-38.741-39.093-38.741-21.591 0-39.093 17.345-39.093 38.741v3.66c-6.788-.138-12.174 5.27-12.174 11.807 0 6.98 6.094 12.501 13.206 11.749 4.034 17.14 19.539 29.91 38.061 29.91 18.524 0 34.027-12.771 38.061-29.91 7.103.751 13.206-4.76 13.206-11.749 0-6.54-5.39-11.945-12.174-11.807z" fill="#f9cfcf"/></g><g><path d="m180.463 127.791c-18.637 0-34.687-12.19-39.595-29.846-3.353-.063-6.595-1.322-9.099-3.575-2.906-2.615-4.573-6.347-4.573-10.238 0-3.726 1.472-7.219 4.144-9.838 2.204-2.159 5.001-3.495 8.03-3.866v-1.764c0-22.465 18.435-40.741 41.093-40.741s41.093 18.276 41.093 40.741v1.764c3.03.371 5.827 1.708 8.031 3.868 2.671 2.618 4.143 6.111 4.143 9.836 0 3.892-1.667 7.623-4.572 10.237-2.504 2.253-5.747 3.513-9.099 3.576-4.91 17.656-20.959 29.846-39.596 29.846zm-38.059-33.91c.918 0 1.731.631 1.945 1.542 3.931 16.703 18.782 28.368 36.114 28.368s32.183-11.665 36.114-28.368c.231-.98 1.153-1.629 2.157-1.531 2.831.304 5.653-.61 7.748-2.496 2.064-1.857 3.248-4.505 3.248-7.264 0-2.641-1.045-5.119-2.942-6.979-1.917-1.88-4.475-2.919-7.191-2.829-.572-.022-1.057-.196-1.44-.571-.384-.377-.6-.892-.6-1.429v-3.66c0-20.259-16.64-36.741-37.093-36.741s-37.094 16.482-37.094 36.741v3.66c0 .537-.216 1.053-.6 1.429-.385.376-.914.571-1.44.571-2.737-.07-5.273.948-7.19 2.827-1.898 1.859-2.943 4.339-2.943 6.98 0 2.759 1.184 5.407 3.249 7.265 2.125 1.914 4.883 2.8 7.747 2.495.07-.006.141-.01.211-.01z" fill="#3762cc"/></g><g><path d="m180.445 108.052c-1.469 0-2.754-.174-3.931-.532-1.951-.593-3.667-1.596-4.962-2.9-.778-.784-.773-2.05.01-2.828.784-.778 2.05-.774 2.829.01.831.837 1.967 1.491 3.287 1.893.794.241 1.699.358 2.768.358s1.974-.117 2.767-.358c1.321-.401 2.457-1.056 3.287-1.893.778-.784 2.044-.787 2.828-.011.784.778.789 2.045.011 2.829-1.294 1.305-3.011 2.308-4.962 2.9-1.177.358-2.463.532-3.932.532z" fill="#3762cc"/></g><g><path d="m154.213 66.645h-19.65v-19.6c0-16.237 13.163-29.4 29.4-29.4 8.146 0 14.75 6.604 14.75 14.75v9.75c0 13.531-10.969 24.5-24.5 24.5z" fill="#4671c6"/></g><g><path d="m208.766 79.331c-.33-1.233-1.599-1.968-2.829-1.633l-2.358.632c-.867-.49-1.854-.792-2.921-.792-3.302 0-5.979 2.677-5.979 5.979v6.377c0 3.302 2.677 5.979 5.979 5.979s5.979-2.677 5.979-5.979v-6.377c0-.408-.042-.806-.12-1.192l.616-.165c1.232-.33 1.964-1.597 1.633-2.829z" fill="#3762cc"/></g><g><path d="m160.298 77.538c-1.185 0-2.283.355-3.212.95l-2.949-.79c-1.232-.336-2.499.4-2.829 1.633-.33 1.232.401 2.498 1.633 2.829l1.475.395c-.051.315-.097.632-.097.962v6.377c0 3.302 2.677 5.979 5.979 5.979s5.979-2.677 5.979-5.979v-6.377c-.001-3.302-2.677-5.979-5.979-5.979z" fill="#3762cc"/></g><g><path d="m154.213 68.645h-19.65c-1.104 0-2-.896-2-2v-19.6c0-17.314 14.086-31.4 31.4-31.4 9.236 0 16.75 7.514 16.75 16.75v9.75c0 14.612-11.888 26.5-26.5 26.5zm-17.651-4h17.65c12.407 0 22.5-10.094 22.5-22.5v-9.75c0-7.03-5.72-12.75-12.75-12.75-15.108 0-27.4 12.292-27.4 27.4z" fill="#3762cc"/></g><g><path d="m226.363 66.645h-43.103c-12.759 0-23.103-10.344-23.103-23.103v-2.794c0-12.759 10.344-23.103 23.103-23.103h13.703c16.237 0 29.4 13.163 29.4 29.4z" fill="#4671c6"/></g><g><path d="m226.363 68.645h-43.103c-13.842 0-25.103-11.261-25.103-25.103v-2.795c0-13.842 11.261-25.103 25.103-25.103h13.703c17.314 0 31.4 14.086 31.4 31.4v19.6c0 1.105-.895 2.001-2 2.001zm-43.103-49c-11.636 0-21.103 9.467-21.103 21.103v2.795c0 11.636 9.467 21.103 21.103 21.103h41.103v-17.6c0-15.108-12.292-27.4-27.4-27.4h-13.703z" fill="#3762cc"/></g></g></g></g><g><g><g><circle cx="128" cy="181.905" fill="#6bdddd" r="57.5"/></g><g><circle cx="128" cy="181.906" fill="#4671c6" r="43.7"/></g><g><path d="m128 241.405c-32.809 0-59.5-26.691-59.5-59.5s26.691-59.5 59.5-59.5 59.5 26.691 59.5 59.5-26.691 59.5-59.5 59.5zm0-115c-30.603 0-55.5 24.897-55.5 55.5s24.897 55.5 55.5 55.5 55.5-24.897 55.5-55.5-24.897-55.5-55.5-55.5z" fill="#3762cc"/></g></g><g><g><path d="m139.461 195.928h15.853c1.099 0 1.99.891 1.99 1.99v7.981c0 2.198-1.782 3.98-3.98 3.98h-16.765c-2.565 0-4.644-2.079-4.644-4.644v-1.762c0-4.167 3.378-7.545 7.546-7.545z" fill="#f9cfcf"/></g><g><path d="m153.324 211.88h-16.765c-3.664 0-6.644-2.98-6.644-6.645v-1.762c0-5.264 4.283-9.546 9.546-9.546h15.853c2.2 0 3.99 1.79 3.99 3.99v7.981c0 3.299-2.682 5.982-5.98 5.982zm1.98-13.962-15.843.01c-3.058 0-5.546 2.488-5.546 5.546v1.762c0 1.458 1.186 2.645 2.644 2.645h16.765c1.092 0 1.98-.889 1.98-1.98z" fill="#3762cc"/></g><g><path d="m101.108 160.841 4.207-5.384c1.151-1.473 2.917-2.335 4.787-2.335h35.796c1.87 0 3.636.861 4.787 2.335l4.207 5.384c1.564 2.001 2.413 4.468 2.413 7.008v30.641c0 1.677-1.36 3.037-3.037 3.037h-8.578c-1.677 0-3.037-1.36-3.037-3.037 0 1.677-1.36 3.037-3.037 3.037h-8.578c-1.677 0-3.037-1.36-3.037-3.037 0 1.677-1.36 3.037-3.037 3.037h-8.578c-1.677 0-3.037-1.36-3.037-3.037 0 1.677-1.36 3.037-3.037 3.037h-8.578c-1.677 0-3.037-1.36-3.037-3.037 0-35.076 0-11.189 0-30.641-.002-2.539.848-5.006 2.411-7.008z" fill="#f9cfcf"/></g><g><path d="m159.304 198.49c0 2.777-2.26 5.037-5.037 5.037h-8.578c-1.14 0-2.192-.381-3.037-1.021-.845.641-1.898 1.021-3.038 1.021h-8.578c-1.14 0-2.192-.381-3.037-1.021-.845.641-1.897 1.021-3.037 1.021h-8.578c-1.14 0-2.192-.381-3.037-1.021-.845.641-1.897 1.021-3.037 1.021h-8.578c-2.777 0-5.037-2.26-5.037-5.037v-30.64c0-2.972 1.008-5.897 2.837-8.239l4.207-5.385c1.541-1.973 3.86-3.104 6.363-3.104h35.796c2.502 0 4.822 1.131 6.363 3.104l4.207 5.385c1.829 2.341 2.837 5.267 2.837 8.239-.001 11.099-.001 17.78-.001 30.64zm-14.652 0c0 .572.465 1.037 1.037 1.037h8.578c.572 0 1.037-.465 1.037-1.037v-30.64c0-2.084-.707-4.136-1.989-5.776l-4.207-5.385c-.777-.995-1.948-1.566-3.21-1.566h-35.796c-1.263 0-2.433.57-3.21 1.566l-4.207 5.385c-1.283 1.642-1.989 3.693-1.989 5.776v30.641c0 .572.465 1.037 1.037 1.037h8.578c.572 0 1.037-.465 1.037-1.037 0-1.104.896-2 2-2s2 .896 2 2c0 .572.465 1.037 1.037 1.037h8.578c.572 0 1.037-.465 1.037-1.037 0-1.104.896-2 2-2s2 .896 2 2c0 .572.465 1.037 1.037 1.037h8.578c.572 0 1.038-.465 1.038-1.037 0-1.104.896-2 2-2s1.999.895 1.999 1.999zm-43.544-37.648h.01z" fill="#3762cc"/></g><g><path d="m142.652 200.49c-1.104 0-2-.896-2-2v-23.158c0-1.104.896-2 2-2s2 .896 2 2v23.158c0 1.105-.895 2-2 2z" fill="#3762cc"/></g><g><path d="m128 200.49c-1.104 0-2-.896-2-2v-23.158c0-1.104.896-2 2-2s2 .896 2 2v23.158c0 1.105-.896 2-2 2z" fill="#3762cc"/></g><g><path d="m113.348 200.49c-1.104 0-2-.896-2-2v-23.158c0-1.104.896-2 2-2s2 .896 2 2v23.158c0 1.105-.896 2-2 2z" fill="#3762cc"/></g></g></g></g></svg>