<svg id="Glyph" height="512" viewBox="0 0 64 64" width="512" xmlns="http://www.w3.org/2000/svg"><path d="m6.73 39.84-.11-.11-1.57 1.57a4.01811 4.01811 0 0 0 0 5.65l12 12a4.01815 4.01815 0 0 0 5.65 0l1.58-1.58c-.028.019-16.87714-16.8587-17.55-17.53z"/><path d="m15.93 30.64c-4.86294-4.79789-12.578 2.91222-7.78987 7.78006l17.43987 17.43994a5.05153 5.05153 0 0 0 3.61 1.5 5.45083 5.45083 0 0 0 4.16994-2.06007 5.10592 5.10592 0 0 0 .00006-7.22993z"/><path d="m38.42 8.14c-4.88454-4.78852-12.56827 2.88428-7.77989 7.79l17.42989 17.43a5.10339 5.10339 0 0 0 3.62 1.5 5.486 5.486 0 0 0 4.16994-2.06008 5.112 5.112 0 0 0 .00006-7.21992z"/><path d="m58.95 17.05-12-12a4.01812 4.01812 0 0 0 -5.65 0l-1.58 1.58c.03045-.01784 15.70721 15.6876 17.55005 17.53l.11.11 1.57-1.57a4.01818 4.01818 0 0 0 -.00005-5.65z"/><path d="m35.3 23.42-11.88 11.88c1.50957 1.50886 3.77064 3.77109 5.28 5.28l11.88-11.88c-.85087-.87428-5.28-5.28-5.28-5.28z"/><path d="m57.01 12.28 1.18-1.19c3.26165-3.3281-1.95279-8.54161-5.28009-5.28l-1.17991 1.19c.861.86606 5.28 5.28 5.28 5.28z"/><path d="m7 51.73-1.19 1.18c-2.36187 2.29086-.25629 6.30052 2.81007 6.3 1.4822.10872 2.70476-1.1972 3.65991-2.20012-.86098-.86668-5.27998-5.27988-5.27998-5.27988z"/></svg>