<svg id="Layer_1" viewBox="0 0 512 512" xmlns="http://www.w3.org/2000/svg" data-name="Layer 1"><g><g fill-rule="evenodd"><path d="m131.474 420.736h249.08v-62.703c0-111.543-249.08-111.543-249.08 0z" fill="#4bb3fd"/><path d="m131.474 420.736h205.937v-62.703c0-49.294-48.671-76.791-102.983-82.516-54.283 5.726-102.954 33.222-102.954 82.516z" fill="#74c3fc"/><path d="m256 283.992c38.381 0 69.704-31.295 69.704-69.704s-31.323-69.676-69.704-69.676-69.676 31.294-69.676 69.676 31.294 69.704 69.676 69.704z" fill="#f6b4a8"/><path d="m242.139 282.603c-31.861-6.435-55.814-34.554-55.814-68.315s23.953-61.852 55.814-68.287c31.833 6.435 55.814 34.554 55.814 68.287s-23.981 61.88-55.814 68.315z" fill="#f9c9c0"/><path d="m271.392 502.005h-30.784l-12.359-61.484 12.359-69.874h30.784l7.115 73.985z" fill="#b26836"/><path d="m411.991 189.995c49.578 0 90-40.422 90-90s-40.422-90-90-90-90 40.422-90 90 40.45 90 90 90z" fill="#08a88a"/><path d="m475.487 99.995c0-35.065-28.403-63.496-63.496-63.496s-63.468 28.431-63.468 63.496 28.403 63.496 63.468 63.496 63.496-28.432 63.496-63.496z" fill="#e1dae7"/><path d="m401.134 37.435c-29.877 5.159-52.611 31.209-52.611 62.561s22.734 57.401 52.611 62.561c29.877-5.159 52.611-31.209 52.611-62.561s-22.734-57.402-52.611-62.561z" fill="#ebe6ef"/></g><path d="m348.806 94.014h9.439c3.317 0 6.009 2.665 6.009 5.981s-2.693 6.009-6.009 6.009h-9.439c-.198-1.984-.283-3.969-.283-6.009 0-2.013.085-4.025.283-5.981zm126.68 5.981c0-2.013-.085-4.025-.283-5.981h-9.439c-3.317 0-6.009 2.665-6.009 5.981s2.693 6.009 6.009 6.009h9.439c.198-1.984.283-3.969.283-6.009zm-57.487-63.213c-1.984-.17-3.969-.283-6.009-.283-2.013 0-4.025.113-5.981.283v9.468c0 3.317 2.693 6.01 5.981 6.01 3.317 0 6.009-2.693 6.009-6.01zm-11.991 126.425c1.956.198 3.969.284 5.981.284 2.041 0 4.025-.085 6.009-.284v-9.468c0-3.317-2.693-5.981-6.009-5.981-3.288 0-5.981 2.665-5.981 5.981zm0-99.184c0-3.317 2.693-6.01 5.981-6.01 3.317 0 6.009 2.693 6.009 6.01v32.542l22.819 13.153c2.835 1.644 3.827 5.301 2.183 8.164s-5.301 3.855-8.135 2.211l-25.37-14.627c-2.069-.964-3.487-3.033-3.487-5.471z" fill="#08a88a"/><path d="m10.009 99.995v10.205c0 3.231 2.098 5.981 5.216 6.803l12.813 3.43c1.559 5.528 3.77 10.913 6.633 16.016l-6.633 11.48c-1.616 2.806-1.191 6.208 1.106 8.504l14.428 14.428c2.296 2.268 5.698 2.721 8.504 1.106l11.48-6.605c5.102 2.835 10.488 5.046 16.016 6.605l3.43 12.812c.822 3.118 3.572 5.216 6.803 5.216h20.409c3.231 0 5.953-2.098 6.803-5.216l3.43-12.812c5.528-1.559 10.885-3.77 16.016-6.633l11.48 6.633c2.778 1.616 6.208 1.162 8.476-1.106l14.457-14.428c2.268-2.296 2.721-5.698 1.106-8.504l-6.633-11.48c2.863-5.102 5.074-10.488 6.633-16.016l12.813-3.43c3.118-.822 5.216-3.572 5.216-6.803v-20.409c0-3.231-2.098-5.953-5.216-6.803l-12.813-3.43c-1.559-5.527-3.77-10.885-6.633-15.987l6.633-11.509c1.616-2.778 1.162-6.208-1.106-8.476l-14.457-14.457c-2.268-2.268-5.698-2.721-8.476-1.105l-11.48 6.633c-5.131-2.863-10.488-5.074-16.016-6.633l-3.43-12.813c-.85-3.118-3.572-5.216-6.803-5.216h-20.409c-3.231 0-5.981 2.098-6.803 5.216l-3.43 12.813c-5.528 1.559-10.913 3.77-16.016 6.633l-11.48-6.633c-2.806-1.616-6.208-1.162-8.504 1.105l-14.428 14.457c-2.296 2.268-2.721 5.698-1.106 8.476l6.633 11.48c-2.863 5.131-5.074 10.488-6.633 16.016l-12.813 3.43c-3.118.85-5.216 3.572-5.216 6.803v10.205z" fill="#ffc738" fill-rule="evenodd"/><path d="m63.868 99.995c0 19.956 16.186 36.142 36.142 36.142s36.113-16.186 36.142-36.142c0-19.956-16.186-36.142-36.142-36.142s-36.142 16.186-36.142 36.142z" fill="#e1dae7" fill-rule="evenodd"/><path d="m63.868 99.995c0 16.781 11.452 30.897 26.957 34.951 15.506-4.054 26.929-18.17 26.929-34.951s-11.424-30.898-26.929-34.951c-15.506 4.053-26.957 18.17-26.957 34.951z" fill="#ebe6ef" fill-rule="evenodd"/><path d="m436.794 272.512c2.835-1.701 6.52-.737 8.192 2.097 1.701 2.863.737 6.52-2.098 8.192l-24.406 14.4c-3.43 2.041-7.795.227-8.816-3.572l-7.455-27.326c-.879-3.203 1.02-6.491 4.224-7.37 3.203-.879 6.491 1.021 7.342 4.224l2.976 10.885c7.172-18.964 10.998-39.543 11.027-60.066 0-3.316 2.693-5.981 5.981-5.981 3.317 0 5.981 2.665 5.981 5.981-.028 21.884-3.997 43.455-11.509 63.581zm-236.126-221.84c-3.118 1.077-6.52-.595-7.597-3.742-1.049-3.118.624-6.52 3.77-7.597 31.124-10.545 64.573-12.557 96.832-5.839l-6.095-7.285c-2.126-2.551-1.786-6.321.737-8.447 2.551-2.126 6.321-1.786 8.447.737l18.198 21.713c2.495 2.976 1.644 7.71-2.466 9.439l-25.398 11.651c-3.005 1.389-6.548.057-7.909-2.948s-.057-6.548 2.948-7.909l10.687-4.904c-30.444-6.69-62.674-4.875-92.154 5.131zm-116.872 226.885c-7.54-20.154-11.509-41.726-11.537-63.638 0-3.288 2.693-5.953 5.981-5.953 3.317 0 5.981 2.665 5.981 5.953.028 20.58 3.855 41.131 11.027 60.123l2.976-10.885c.85-3.203 4.167-5.074 7.342-4.224 3.203.879 5.102 4.167 4.224 7.37l-7.455 27.326c-1.02 3.799-5.386 5.613-8.816 3.572l-24.406-14.4c-2.835-1.672-3.77-5.329-2.098-8.192 1.672-2.835 5.357-3.798 8.192-2.097z" fill="#74c3fc"/><path d="m240.608 502.005-49.748-17.632-75.487-26.73v-77.897-53.461l75.487 26.731 49.748 17.631z" fill="#c27440" fill-rule="evenodd"/><path d="m396.627 326.285v53.461 77.897l-75.487 26.73-49.748 17.632v-131.358l49.748-17.631z" fill="#c27440" fill-rule="evenodd"/></g><path d="m101.082 296c-.025.029-.053.055-.079.083-.118.13-.242.255-.372.375-.047.043-.096.083-.145.125-.113.097-.229.191-.351.281-.063.047-.128.091-.193.135-.112.076-.228.148-.347.217-.075.044-.15.087-.227.128-.043.022-.082.049-.125.07-.067.033-.136.056-.204.087-.067.03-.13.067-.198.094-.026.011-.054.014-.081.024-.323.126-.65.224-.981.292-.049.01-.097.016-.146.025-.349.063-.7.103-1.049.103-.141 0-.279-.019-.419-.029-.128-.009-.256-.009-.383-.026-.115-.016-.227-.046-.341-.068-.152-.029-.304-.053-.453-.095-.112-.031-.22-.076-.331-.114-.144-.049-.29-.093-.431-.153-.126-.054-.245-.122-.367-.184-.107-.055-.217-.1-.321-.161l-.072-.042s-.005-.003-.007-.004l-24.327-14.325c-2.853-1.68-3.804-5.355-2.124-8.208 1.679-2.854 5.354-3.805 8.208-2.124l8.563 5.042c-7.583-20.237-11.466-41.555-11.533-63.609-.01-3.311 2.666-6.003 5.977-6.013h.019c3.303 0 5.985 2.672 5.995 5.977.063 20.861 3.777 41.013 11.029 60.122l2.957-10.879c.869-3.195 4.163-5.083 7.358-4.213 3.195.869 5.082 4.163 4.213 7.358l-7.427 27.326c-.013.046-.032.089-.045.135-.04.133-.084.265-.132.395-.028.075-.056.15-.087.224-.057.134-.12.266-.186.396-.03.059-.058.12-.09.178-.207.376-.455.731-.742 1.057zm97.658-245c.639 0 1.29-.103 1.929-.32 29.516-10.025 61.667-11.742 92.101-5.127l-10.641 4.887c-3.009 1.382-4.328 4.941-2.946 7.95 1.01 2.199 3.182 3.495 5.452 3.495.837 0 1.688-.176 2.498-.548l25.738-11.821c.036-.016.068-.038.103-.055.126-.061.248-.127.369-.196.066-.038.134-.074.198-.114.15-.093.295-.195.436-.301.028-.021.058-.039.085-.06.17-.133.332-.275.487-.426.031-.031.06-.064.091-.095.12-.122.236-.248.346-.38.04-.048.077-.099.115-.148.093-.12.183-.243.267-.371.04-.06.078-.121.115-.183.074-.121.143-.245.208-.372.037-.072.074-.143.108-.217.056-.122.107-.247.156-.373.031-.081.064-.161.092-.244.009-.027.021-.052.03-.08.037-.115.062-.23.092-.345.015-.057.036-.112.049-.17.003-.012.003-.023.006-.035.096-.437.14-.874.139-1.307 0-.048-.004-.095-.006-.143-.005-.168-.015-.335-.034-.501-.007-.064-.017-.127-.027-.191-.022-.149-.048-.296-.081-.442-.016-.07-.032-.14-.05-.21-.037-.14-.079-.278-.126-.414-.023-.068-.044-.136-.07-.203-.058-.152-.124-.3-.194-.447-.022-.046-.04-.094-.063-.139-.097-.19-.203-.374-.32-.553-.026-.04-.056-.077-.083-.116-.096-.141-.197-.278-.305-.41-.015-.018-.026-.038-.041-.055l-18.198-21.713c-2.126-2.538-5.908-2.87-8.446-.744-2.538 2.127-2.871 5.908-.744 8.446l6.105 7.285c-32.065-6.66-65.829-4.706-96.869 5.836-3.135 1.065-4.813 4.47-3.749 7.605.848 2.496 3.179 4.069 5.676 4.069zm203.882 275.285v131.358c0 2.54-1.6 4.803-3.993 5.651l-125.234 44.362-.002-.005c-.626.222-1.298.349-2 .349h-30.785c-.702 0-1.374-.127-2-.349l-.002.005-125.234-44.362c-2.394-.848-3.993-3.112-3.993-5.651v-131.358c0-1.947.945-3.772 2.535-4.896s3.627-1.404 5.462-.755l15.304 5.421c12.212-25.101 39.412-43.642 76.514-52.353-17.56-13.875-28.863-35.342-28.863-59.413 0-41.725 33.945-75.671 75.67-75.671s75.699 33.946 75.699 75.671c0 24.07-11.306 45.536-28.872 59.411 37.11 8.711 64.304 27.253 76.498 52.354l15.3-5.42c1.836-.648 3.872-.368 5.462.755s2.535 2.949 2.535 4.896zm-146.622-48.288c35.129 0 63.709-28.58 63.709-63.709s-28.58-63.681-63.709-63.681-63.68 28.567-63.68 63.681 28.567 63.709 63.68 63.709zm-111.929 52.093 97.568 34.562h28.722l97.573-34.564c-12.204-23.759-40.918-40.741-80.098-47.145-9.685 4.509-20.467 7.044-31.836 7.044s-22.139-2.534-31.819-7.042c-39.166 6.405-67.885 23.386-80.109 47.145zm-22.703 123.316 113.244 40.115v-118.636l-113.244-40.115v118.637zm144.029-76.764h-18.794v119.367h18.794zm125.234-41.874-113.244 40.115v118.636l113.244-40.115v-118.637zm117.354-234.773c0 52.932-43.063 95.995-95.995 95.995s-95.995-43.063-95.995-95.995 43.063-95.995 95.995-95.995 95.995 43.063 95.995 95.995zm-11.99 0c0-46.32-37.685-84.005-84.005-84.005s-84.005 37.685-84.005 84.005 37.685 84.005 84.005 84.005 84.005-37.685 84.005-84.005zm-14.514 0c0 38.318-31.173 69.491-69.491 69.491s-69.463-31.173-69.463-69.491 31.161-69.491 69.463-69.491 69.491 31.173 69.491 69.491zm-12.304 5.995h-3.414c-3.311 0-5.995-2.684-5.995-5.995s2.684-5.995 5.995-5.995h3.414c-2.803-26.928-24.265-48.39-51.193-51.193v3.443c0 3.311-2.684 5.995-5.995 5.995s-5.995-2.684-5.995-5.995v-3.442c-26.913 2.804-48.363 24.265-51.164 51.192h3.415c3.311 0 5.995 2.684 5.995 5.995s-2.684 5.995-5.995 5.995h-3.415c2.801 26.927 24.251 48.388 51.164 51.192v-3.442c0-3.311 2.684-5.995 5.995-5.995s5.995 2.684 5.995 5.995v3.443c26.928-2.803 48.39-24.265 51.193-51.193zm-28.341 3.722-22.852-13.18v-32.508c0-3.311-2.684-5.995-5.995-5.995s-5.995 2.684-5.995 5.995v35.972c0 2.143 1.144 4.123 3 5.193l25.852 14.91c.943.544 1.973.803 2.99.803 2.073 0 4.089-1.076 5.199-3.001 1.654-2.868.67-6.534-2.198-8.188zm-366.196 67.016c-3.754-1.235-7.42-2.748-10.958-4.521l-8.616 4.957c-5.176 2.98-11.488 2.153-15.704-2.062l-14.453-14.424c-4.217-4.271-5.035-10.583-2.066-15.739l4.974-8.609c-1.779-3.526-3.298-7.195-4.539-10.963l-9.602-2.571c-5.679-1.497-9.661-6.678-9.661-12.595v-20.409c0-5.958 3.872-11.017 9.634-12.587l9.63-2.578c1.235-3.745 2.755-7.411 4.541-10.958l-4.973-8.607c-2.953-5.077-2.111-11.545 2.057-15.713l14.457-14.457c4.216-4.216 10.527-5.043 15.707-2.062l8.609 4.975c3.526-1.78 7.194-3.298 10.963-4.54l2.571-9.602c1.497-5.679 6.678-9.661 12.595-9.661h20.409c5.957 0 11.015 3.871 12.587 9.633l2.578 9.631c3.745 1.235 7.412 2.755 10.958 4.541l8.606-4.973c5.078-2.954 11.546-2.111 15.714 2.057l14.457 14.457c4.168 4.169 5.01 10.637 2.049 15.729l-4.963 8.61c1.784 3.53 3.302 7.19 4.54 10.94l9.604 2.571c5.789 1.578 9.661 6.637 9.661 12.595v20.409c0 5.917-3.982 11.098-9.683 12.601l-9.58 2.565c-1.241 3.769-2.76 7.437-4.54 10.963l4.97 8.601c2.974 5.164 2.156 11.477-2.03 15.716l-14.488 14.459c-4.121 4.172-10.599 5.026-15.725 2.044l-8.591-4.964c-3.547 1.786-7.213 3.306-10.958 4.541l-2.571 9.604c-1.58 5.79-6.638 9.661-12.595 9.661h-20.409c-5.917 0-11.098-3.982-12.601-9.683l-2.564-9.58zm-8.172-16.606c4.659 2.588 9.615 4.632 14.731 6.076 2.035.574 3.617 2.177 4.164 4.22l3.43 12.812c.131.498.498.771 1.012.771h20.409c.697 0 .938-.5 1.02-.798l3.422-12.785c.547-2.042 2.129-3.646 4.164-4.22 5.09-1.436 10.043-3.487 14.722-6.099 1.844-1.028 4.092-1.012 5.921.044l11.48 6.633c.217.126.741.349 1.21-.127l14.488-14.459c.235-.239.482-.683.145-1.269l-6.628-11.473c-1.059-1.833-1.073-4.088-.038-5.934 2.592-4.618 4.642-9.567 6.092-14.709.574-2.035 2.177-3.617 4.22-4.164l12.812-3.43c.498-.131.771-.498.771-1.012v-20.409c0-.517-.283-.879-.798-1.019l-12.786-3.423c-2.042-.547-3.646-2.129-4.22-4.164-1.44-5.104-3.489-10.043-6.092-14.681-1.035-1.844-1.021-4.096.034-5.928l6.633-11.509c.256-.44.195-.897-.151-1.243l-14.457-14.456c-.346-.345-.803-.407-1.222-.162l-11.495 6.642c-1.828 1.057-4.078 1.073-5.921.044-4.679-2.611-9.632-4.663-14.722-6.099-2.035-.574-3.617-2.177-4.164-4.22l-3.43-12.812c-.074-.271-.314-.771-1.012-.771h-20.409c-.514 0-.88.273-1.006.749l-3.436 12.835c-.547 2.042-2.129 3.646-4.164 4.22-5.142 1.45-10.091 3.5-14.709 6.092-1.846 1.035-4.101 1.021-5.934-.038l-11.48-6.633c-.44-.254-.883-.201-1.237.154l-14.456 14.456c-.345.346-.406.803-.163 1.222l6.642 11.496c1.056 1.828 1.073 4.077.044 5.92-2.611 4.679-4.663 9.632-6.098 14.722-.574 2.035-2.177 3.617-4.22 4.164l-12.812 3.43c-.488.133-.771.495-.771 1.012v20.409c0 .514.273.88.749 1.006l12.835 3.436c2.042.547 3.646 2.129 4.22 4.164 1.45 5.141 3.5 10.09 6.091 14.709 1.036 1.846 1.021 4.101-.037 5.933l-6.633 11.48c-.333.578-.086 1.022.18 1.292l14.426 14.397c.357.358.8.412 1.249.153l11.482-6.606c.925-.532 1.957-.798 2.99-.798 1.003 0 2.006.251 2.912.754zm33.542-22.78c-20.593 0-37.346-16.753-37.346-37.346s16.753-37.346 37.346-37.346 37.346 16.753 37.346 37.346-16.753 37.346-37.346 37.346zm0-11.99c13.981 0 25.356-11.375 25.356-25.356s-11.375-25.356-25.356-25.356-25.356 11.375-25.356 25.356 11.375 25.356 25.356 25.356zm336.772 147.155-8.537 5.033c7.568-20.223 11.444-41.519 11.511-63.545.01-3.311-2.666-6.003-5.977-6.013h-.019c-3.302 0-5.985 2.672-5.995 5.977-.063 20.841-3.772 40.978-11.014 60.08l-2.974-10.899c-.871-3.194-4.164-5.082-7.362-4.206-3.194.871-5.077 4.167-4.206 7.362l7.455 27.326c.012.045.031.088.044.132.04.134.084.266.134.397.028.074.056.149.087.222.057.135.12.266.187.396.03.06.058.12.091.179.207.375.455.729.742 1.055.027.031.057.059.085.09.116.127.237.25.365.367.049.045.1.086.15.129.112.096.226.188.346.276.065.048.131.093.197.138.111.075.225.146.342.214.077.045.154.089.233.13.042.022.08.047.122.068.067.033.136.056.204.087.067.03.131.067.2.095.026.01.053.013.079.024.322.126.649.224.979.291.049.01.098.017.148.025.348.062.698.102 1.046.102.143 0 .284-.019.425-.029.126-.009.252-.009.377-.026.117-.016.231-.047.347-.07.15-.029.301-.053.448-.094.113-.031.221-.076.332-.114.144-.049.29-.093.431-.153.121-.052.236-.118.354-.178.112-.057.227-.104.335-.168l24.378-14.372c2.852-1.682 3.801-5.357 2.12-8.209-1.681-2.851-5.354-3.801-8.209-2.12z"/></svg>