<?xml version="1.0" encoding="iso-8859-1"?>
<!-- Generator: Adobe Illustrator 19.0.0, SVG Export Plug-In . SVG Version: 6.00 Build 0)  -->
<svg version="1.1" id="Capa_1" xmlns="http://www.w3.org/2000/svg" xmlns:xlink="http://www.w3.org/1999/xlink" x="0px" y="0px"
	 viewBox="0 0 508.098 508.098" style="enable-background:new 0 0 508.098 508.098;" xml:space="preserve">
<g>
	<g>
		<path d="M499.949,275.936c-7.9-13.5-7.9-30.2-0.1-43.7c8-13.9,10.2-30.1,6-45.6s-14.1-28.5-28-36.5c-13.5-7.8-21.9-22.3-21.9-37.9
			c0-33.1-27-60.1-60.1-60.1c-15.6,0-32.9-9.8-37.9-21.9c-6.5-15.7-43-44.4-82.1-22c-13.5,7.7-30.2,7.8-43.7,0
			c-28.7-16.6-65.5-6.7-82.1,22c-7.8,13.5-22.3,21.9-37.9,21.9c-33.1,0-60.1,27-60.1,60.1c0,15.6-8.4,30.1-21.9,37.9
			c-13.9,8-23.8,21-28,36.5c-4.2,15.5-2,31.7,6,45.6c7.8,13.5,7.8,30.2,0,43.7c-8,13.9-10.2,30.1-6,45.6
			c4.3,15.5,14.2,28.5,28.1,36.5c13.5,7.8,21.9,22.3,21.9,37.9c0,33.1,27,60.1,60.1,60.1c15.6,0,30.1,8.4,37.9,21.9
			c11.1,19.3,43.8,42.9,82.1,22c13.7-7.5,30.2-7.8,43.7,0c28.7,16.6,65.5,6.7,82.1-22c7.8-13.5,22.3-21.9,37.9-21.9
			c33.1,0,60.1-27,60.1-60.1c0-15.6,8.4-30.1,21.9-37.9c13.9-8,23.8-21,28-36.5S507.949,289.836,499.949,275.936z M485.649,284.136
			c5.8,10.1,7.4,21.9,4.4,33.2s-10.3,20.7-20.4,26.5c-18.5,10.7-30.1,30.7-30.1,52.1c0,24.1-19.6,43.7-43.7,43.7
			c-21.4,0-41.3,11.5-52.1,30.1c-5.8,10.1-29.6,32.7-59.7,16c-9.4-5.2-19.7-8-30.1-8c-10.4,0-20.8,2.7-30.1,8
			c-20.9,12.1-47.7,4.9-59.7-16c-10.7-18.5-30.6-30-52.1-30c-24.1,0-43.7-19.6-43.7-43.7c0-21.4-11.5-41.3-30.1-52.1
			c-9.9-5.9-17.2-15.4-20.2-26.6c-3-11.3-1.5-23.1,4.4-33.2c10.7-18.5,10.7-41.6,0-60.1c-5.8-10.1-7.4-21.9-4.4-33.2
			c3-11.3,10.3-20.7,20.4-26.5c18.5-10.7,30.1-30.7,30.1-52c0-24.1,19.6-43.7,43.7-43.7c21.4,0,41.3-11.5,52-30.1
			c12.1-20.9,38.9-28,59.7-16c18.5,10.7,41.6,10.7,60.1,0c20.9-12,47.7-4.9,59.7,16c10.7,18.5,30.6,30.1,52.1,30.1
			c24.1,0,43.7,19.6,43.7,43.7c0,21.4,11.5,41.3,30.1,52.1c10.1,5.8,17.4,15.3,20.4,26.5c3,11.3,1.5,23.1-4.4,33.2
			C474.949,242.536,474.949,265.636,485.649,284.136z"/>
	</g>
</g>
<g>
	<g>
		<path d="M254.049,57.536c-108.4,0-196.5,88.2-196.5,196.5s88.1,196.6,196.5,196.6s196.5-88.2,196.5-196.6
			S362.449,57.536,254.049,57.536z M254.049,434.236c-99.3,0-180.2-80.8-180.2-180.2s80.9-180.1,180.2-180.1s180.2,80.8,180.2,180.1
			S353.349,434.236,254.049,434.236z"/>
	</g>
</g>
<g>
	<g>
		<path d="M218.649,160.536c-7.9-8.7-18.9-13-32.9-13c-13.6,0-24.3,4.4-32.2,13c-7.9,8.7-11.9,22.1-11.9,40.1
			c0,18.1,4,31.5,11.9,40.2c7.9,8.7,18.9,13,32.9,13c13.6,0,24.3-4.3,32.2-13c8-8.6,11.9-22,11.9-40.1
			C230.549,182.636,226.549,169.236,218.649,160.536z M195.349,226.836c-2.3,3.3-5.5,4.9-9.6,4.9c-4,0-7.2-1.6-9.5-4.9
			c-3-4.5-4.5-13.3-4.5-26.4c0-13.1,1.5-21.9,4.5-26.4c2.3-3.3,5.4-4.9,9.5-4.9c4.1,0,7.3,1.7,9.6,5.1c2.9,4.4,4.4,13.1,4.4,26.2
			C199.749,213.636,198.349,222.436,195.349,226.836z"/>
	</g>
</g>
<g>
	<g>
		<path d="M354.549,267.036c-7.9-8.6-18.8-13-32.6-13c-13.7,0-24.6,4.4-32.5,13c-7.9,8.7-11.9,22.1-11.9,40.1
			c0,18.1,4,31.5,11.9,40.2c7.9,8.7,18.9,13,32.9,13c13.6,0,24.3-4.3,32.2-13s11.9-22.1,11.9-40.2
			C366.449,289.136,362.449,275.736,354.549,267.036z M331.149,333.436c-2.2,3.3-5.4,4.9-9.5,4.9c-4,0-7.2-1.7-9.5-5.1
			c-3-4.4-4.5-13.1-4.5-26.2c0-13.1,1.5-21.9,4.5-26.4c2.2-3.3,5.4-4.9,9.5-4.9c4.1,0,7.3,1.6,9.6,4.9c2.9,4.5,4.4,13.3,4.4,26.4
			C335.649,320.136,334.149,328.936,331.149,333.436z"/>
	</g>
</g>
<g>
	<g>
		<polygon points="293.849,147.636 186.649,360.136 215.149,360.136 321.649,147.636 		"/>
	</g>
</g>
<g>
</g>
<g>
</g>
<g>
</g>
<g>
</g>
<g>
</g>
<g>
</g>
<g>
</g>
<g>
</g>
<g>
</g>
<g>
</g>
<g>
</g>
<g>
</g>
<g>
</g>
<g>
</g>
<g>
</g>
</svg>
