<svg id="Capa_1" enable-background="new 0 0 512 512" height="512" viewBox="0 0 512 512" width="512" xmlns="http://www.w3.org/2000/svg"><g><g><circle cx="119.308" cy="221.098" fill="#eceaec" r="55.904"/><circle cx="119.308" cy="221.098" fill="#fff" r="31.945"/><path d="m452.391 170.217-11.291-11.293c-3.12-3.118-8.175-3.118-11.295 0l-64.919 64.92-32.974-32.975c-3.119-3.118-8.175-3.118-11.295 0l-11.292 11.293c-3.119 3.118-3.119 8.175 0 11.293l49.912 49.914c3.12 3.118 8.175 3.118 11.295 0l81.857-81.859c3.121-3.118 3.121-8.176.002-11.293z" fill="#98db7c"/></g><g><path d="m449.028 311.082c-4.143.04-7.468 3.431-7.428 7.572l.356 36.734-28.283-40.956c-1.865-2.701-5.267-3.872-8.404-2.898-3.133.977-5.268 3.878-5.268 7.16v60.055c0 4.143 3.357 7.5 7.5 7.5s7.5-3.357 7.5-7.5v-35.996l26.935 39.003c2.204 3.187 5.877 4.545 9.368 3.453 3.559-1.111 5.858-4.442 5.858-8.561l-.562-58.139c-.04-4.142-3.415-7.446-7.572-7.427z"/><path d="m350.637 371.198c-.015 0-.028 0-.043 0-4.646.026-9.622.045-13.526.05v-52.666c0-4.143-3.357-7.5-7.5-7.5s-7.5 3.357-7.5 7.5v60.116c0 3.656 2.637 6.779 6.24 7.394.533.091.942.16 7.623.16 3.22 0 7.897-.016 14.747-.054 4.142-.023 7.48-3.399 7.458-7.542-.024-4.128-3.376-7.458-7.499-7.458z"/><path d="m73.779 311.082c-4.143 0-7.5 3.357-7.5 7.5v60.167c0 4.143 3.357 7.5 7.5 7.5s7.5-3.357 7.5-7.5v-60.167c0-4.143-3.357-7.5-7.5-7.5z"/><path d="m239.95 311.082c-4.143 0-7.5 3.357-7.5 7.5v60.167c0 4.143 3.357 7.5 7.5 7.5s7.5-3.357 7.5-7.5v-60.167c0-4.143-3.357-7.5-7.5-7.5z"/><path d="m377.64 311.082c-4.143 0-7.5 3.357-7.5 7.5v60.167c0 4.143 3.357 7.5 7.5 7.5s7.5-3.357 7.5-7.5v-60.167c0-4.143-3.358-7.5-7.5-7.5z"/><path d="m504.5 370.973h-17.62v-14.809h15.768c4.143 0 7.5-3.357 7.5-7.5s-3.357-7.5-7.5-7.5h-15.768v-14.809h17.62c4.143 0 7.5-3.357 7.5-7.5s-3.357-7.5-7.5-7.5h-25.12c-4.143 0-7.5 3.357-7.5 7.5v59.617c0 4.143 3.357 7.5 7.5 7.5h25.12c4.143 0 7.5-3.357 7.5-7.5s-3.357-7.499-7.5-7.499z"/><path d="m217.05 364.508c-3.175-2.661-7.905-2.245-10.566.928-.524.626-1.091 1.21-1.684 1.738-3.035 2.703-6.912 4.074-11.522 4.074-12.452 0-22.583-10.131-22.583-22.584 0-12.452 10.131-22.583 22.583-22.583 4.527 0 8.892 1.332 12.622 3.853 3.433 2.317 8.095 1.416 10.413-2.017 2.318-3.432 1.416-8.094-2.017-10.413-6.219-4.202-13.487-6.423-21.019-6.423-20.724 0-37.583 16.859-37.583 37.583s16.859 37.584 37.583 37.584c8.283 0 15.717-2.723 21.498-7.872 1.134-1.009 2.211-2.12 3.202-3.302 2.662-3.173 2.247-7.904-.927-10.566z"/><path d="m128.845 342.103c-7.394-2.728-14.276-5.698-16.386-6.621-1.648-1.323-1.593-3.168-1.482-3.937.153-1.065.927-3.671 4.8-4.837 8.488-2.556 16.346 3.646 16.577 3.832 3.173 2.63 7.875 2.21 10.529-.947 2.665-3.171 2.255-7.902-.915-10.567-.568-.477-14.092-11.625-30.518-6.681-8.299 2.5-14.169 9.041-15.321 17.069-1.081 7.533 2.184 14.778 8.521 18.91.331.216.679.405 1.04.566.349.155 8.633 3.843 17.963 7.284 2.644.976 8.704 3.728 7.902 8.215-.602 3.371-4.705 6.858-10.53 6.858-5.986 0-11.746-2.413-15.409-6.455-2.783-3.07-7.526-3.302-10.594-.521-3.069 2.781-3.303 7.524-.521 10.594 6.459 7.128 16.375 11.383 26.524 11.383 12.67 0 23.309-8.084 25.297-19.222 1.496-8.38-2.309-19.328-17.477-24.923z"/><path d="m286.472 311.082h-16.753c-4.143 0-7.5 3.357-7.5 7.5v60.167c0 4.143 3.357 7.5 7.5 7.5s7.5-3.357 7.5-7.5v-18.675c3.376-.018 7.102-.034 9.253-.034 13.682 0 24.812-10.981 24.812-24.479s-11.131-24.479-24.812-24.479zm0 33.958c-2.136 0-5.816.016-9.178.033-.017-3.477-.043-15.352-.053-18.991h9.23c5.319 0 9.812 4.341 9.812 9.479.001 5.138-4.492 9.479-9.811 9.479z"/><path d="m119.308 284.501c34.961 0 63.403-28.442 63.403-63.403 0-32.422-24.467-59.222-55.903-62.945v-17.404h8.473c4.143 0 7.5-3.357 7.5-7.5s-3.357-7.5-7.5-7.5h-31.945c-4.143 0-7.5 3.357-7.5 7.5s3.357 7.5 7.5 7.5h8.473v17.404c-31.437 3.724-55.904 30.523-55.904 62.945-.002 34.961 28.442 63.403 63.403 63.403zm0-111.807c26.689 0 48.403 21.714 48.403 48.404 0 26.689-21.714 48.403-48.403 48.403-26.69 0-48.404-21.714-48.404-48.403-.001-26.69 21.713-48.404 48.404-48.404z"/><path d="m119.308 228.598c4.143 0 7.5-3.357 7.5-7.5v-23.959c0-4.143-3.357-7.5-7.5-7.5s-7.5 3.357-7.5 7.5v23.959c0 4.143 3.357 7.5 7.5 7.5z"/><path d="m446.403 153.621c-6.039-6.037-15.863-6.037-21.902 0-2.929 2.93-2.929 7.678 0 10.607 2.93 2.928 7.678 2.928 10.607 0 .189-.191.498-.191.688 0l11.292 11.292c.189.189.189.498 0 .687l-81.858 81.857c-.035.036-.143.144-.344.144-.2 0-.308-.107-.343-.144l-49.913-49.912c-.19-.189-.19-.498 0-.688l11.292-11.292c.19-.189.5-.188.687 0l32.974 32.975c1.407 1.406 3.314 2.196 5.304 2.196s3.896-.79 5.304-2.196l40.975-40.975c2.929-2.93 2.929-7.678 0-10.607-2.93-2.928-7.678-2.928-10.607 0l-35.671 35.672-27.671-27.672c-6.039-6.037-15.863-6.037-21.9 0l-11.292 11.292c-6.038 6.039-6.038 15.863 0 21.902l49.913 49.911c2.924 2.926 6.813 4.537 10.95 4.537s8.025-1.611 10.951-4.536l81.858-81.858c6.037-6.039 6.037-15.863 0-21.9z"/><path d="m284.336 215.795-23.958-23.959c-2.929-2.93-7.678-2.929-10.606-.001-2.93 2.929-2.93 7.678-.001 10.606l11.156 11.156h-53.77c-4.143 0-7.5 3.357-7.5 7.5s3.357 7.5 7.5 7.5h53.769l-11.155 11.154c-2.929 2.93-2.929 7.678 0 10.607 1.465 1.464 3.385 2.196 5.304 2.196s3.839-.732 5.304-2.196l23.958-23.958c2.928-2.928 2.928-7.676-.001-10.605z"/><path d="m24.036 311.971h-16.536c-1.991 0-3.901.792-5.309 2.201-1.406 1.41-2.195 3.321-2.191 5.312 0 .001.118 58.4.118 58.4.007 1.989.805 3.894 2.216 5.296 1.405 1.395 3.305 2.177 5.284 2.177h.028c.5-.002 12.292-.047 17.005-.129 17.651-.31 30.463-15.687 30.463-36.564 0-21.947-12.489-36.693-31.078-36.693zm.354 58.26c-2.14.037-5.885.067-9.297.089-.022-6.89-.067-36.18-.079-43.349h9.022c2.685 0 16.078 1.046 16.078 21.693 0 10.598-4.862 21.377-15.724 21.567z"/></g></g></svg>