<svg id="Circular_glyph" height="512" viewBox="0 0 64 64" width="512" xmlns="http://www.w3.org/2000/svg" data-name="Circular glyph"><path d="m32 0a32 32 0 1 0 32 32 32.004 32.004 0 0 0 -32-32zm13.72 15.14a2.215 2.215 0 0 1 3.14 0 2.19718 2.19718 0 0 1 0 3.14l-.49.48-3.14-3.13zm-27.45 33.72a2.19607 2.19607 0 0 1 -1.56.65 2.23665 2.23665 0 0 1 -2.23-2.21 2.28515 2.28515 0 0 1 .66-1.58l.49-.49 3.14 3.14zm8.52 2.52a2.1288 2.1288 0 0 1 -1.5.62 2.17782 2.17782 0 0 1 -1.51-.62l-11.16-11.16a2.13663 2.13663 0 0 1 0-3.01l2.02-2.02 14.17 14.17zm19.56-19.56a2.14247 2.14247 0 0 1 -1.51.62 2.10208 2.10208 0 0 1 -1.5-.62l-4.01-4.01-11.52 11.51 4.01 4.01a2.14266 2.14266 0 0 1 0 3.02l-2.01 2.01-14.17-14.17 2.02-2.01a2.15562 2.15562 0 0 1 3 0l4.01 4.01 11.52-11.52-4.01-4.01a2.12157 2.12157 0 0 1 0-3.01l2.02-2.01 14.16 14.17zm5.03-5.03-2.02 2.01-14.16-14.16 2.01-2.02a2.13961 2.13961 0 0 1 3.01 0l4.01 4.01 7.15 7.15a2.13663 2.13663 0 0 1 0 3.01z"/></svg>