<svg id="Layer_1" height="512" viewBox="0 0 512 512" width="512" xmlns="http://www.w3.org/2000/svg" data-name="Layer 1"><path d="m256.084.083c141.384 0 256 114.587 256 256.035 0 141.377-114.615 255.964-256 255.964s-255.999-114.582-255.999-255.964c0-141.448 114.615-256.035 255.999-256.035zm158.724 158.547-139.919 116.259a29.179 29.179 0 0 1 -37.613 0l-139.918-116.259a18.571 18.571 0 0 0 -1.274 6.79v181.322a18.824 18.824 0 0 0 18.774 18.781h282.449a18.824 18.824 0 0 0 18.777-18.781v-181.322a18.593 18.593 0 0 0 -1.276-6.79zm-310.949-8.408 140.213 116.5a18.7 18.7 0 0 0 24.025 0l140.213-116.5a18.679 18.679 0 0 0 -11-3.579h-282.452a18.66 18.66 0 0 0 -10.999 3.579z" fill="#4caf50" fill-rule="evenodd"/></svg>