<svg id="Capa_1" enable-background="new 0 0 512.026 512.026" height="512" viewBox="0 0 512.026 512.026" width="512" xmlns="http://www.w3.org/2000/svg"><g><path d="m181.536 76.776-46.933 19.153c-12.241 4.995-22.18 14.376-27.874 26.308l-98.902 207.259c-.748 1.568-.118 3.447 1.425 4.246l66.771 34.588c1.627.843 3.628.16 4.4-1.501l64.098-137.756 3.919 95.47c.14 3.421 2.954 6.122 6.378 6.122h45.827c9.793-33.565 21.16-66.664 34.066-99.187l7.164-18.053-55.45-139.722c-1.429 1.291-3.081 2.335-4.889 3.073z" fill="#f1f1f4"/><path d="m147.871 310.664.57 13.878c.14 3.421 2.954 6.122 6.378 6.122h45.827c1.951-6.685 3.964-13.352 6.039-20z" fill="#dfdde2"/><path d="m204.58 48.207c-2.354 1.422-4.361 3.425-5.795 5.882l-9.127 15.636c-.872 1.494-1.965 2.833-3.231 3.978l55.45 139.722 14.136-35.62z" fill="#dfdde2"/><path d="m325.6 73.702c-1.267-1.144-2.359-2.483-3.232-3.978l-9.127-15.636c-1.434-2.457-3.441-4.46-5.795-5.882l-72.733 183.271c-12.908 32.523-24.274 65.623-34.067 99.187h28.272c9.793-33.565 21.16-66.664 34.066-99.187z" fill="#c6c1c8"/><path d="m325.6 73.702c-1.267-1.144-2.359-2.483-3.232-3.978l-9.127-15.636c-1.434-2.457-3.441-4.46-5.795-5.882l-72.733 183.271c-12.908 32.523-24.274 65.623-34.067 99.187h28.272c9.793-33.565 21.16-66.664 34.066-99.187z" fill="#c6c1c8"/><path d="m206.685 310.664c-2.075 6.648-4.088 13.315-6.039 20h28.272c1.951-6.685 3.964-13.352 6.039-20z" fill="#afaab4"/><path d="m504.198 329.496-98.902-207.259c-5.694-11.932-15.632-21.313-27.874-26.308l-46.932-19.153c-1.808-.738-3.46-1.782-4.89-3.073l-62.615 157.775c-12.907 32.522-24.274 65.622-34.067 99.186h13.324v-3.101c0-2.036 1.65-3.686 3.686-3.686h20.171c2.036 0 3.686 1.65 3.686 3.686v3.101h87.423c3.424 0 6.238-2.701 6.378-6.122l3.919-95.47 64.098 137.756c.773 1.661 2.774 2.343 4.4 1.501l66.771-34.588c1.542-.798 2.172-2.677 1.424-4.245z" fill="#f1f1f4"/><path d="m266.098 364.993h-20.171c-2.036 0-3.686-1.65-3.686-3.686v-33.744c0-2.036 1.65-3.686 3.686-3.686h20.171c2.036 0 3.686 1.65 3.686 3.686v33.744c0 2.036-1.65 3.686-3.686 3.686z" fill="#756e78"/><path d="m319.099 357.662c-13.595-13.595-30.724-22.372-49.315-25.473v27.547c11.348 2.742 21.759 8.553 30.224 17.018l22.394 22.394c1.02 1.02 2.673 1.02 3.693 0l15.399-15.399c1.02-1.02 1.02-2.673 0-3.693z" fill="#665e66"/><path d="m192.926 357.662c13.595-13.595 30.724-22.372 49.315-25.473v27.547c-11.348 2.742-21.759 8.553-30.224 17.018l-22.394 22.394c-1.02 1.02-2.673 1.02-3.693 0l-15.399-15.399c-1.02-1.02-1.02-2.673 0-3.693z" fill="#665e66"/><path d="m380.184 462.537-14.232-96.514c-.662-4.491-4.516-7.817-9.055-7.817h-37.254l21.85 21.85c1.02 1.02 1.02 2.673 0 3.693l-15.399 15.399c-1.02 1.02-2.673 1.02-3.693 0l-22.394-22.394c-8.465-8.465-18.876-14.277-30.224-17.018v1.572c0 2.036-1.65 3.686-3.686 3.686h-20.171c-2.036 0-3.686-1.65-3.686-3.686v-3.101 1.529c-8.878 2.145-17.182 6.169-24.43 11.873-2.283 9.096-4.453 18.223-6.507 27.378l-15.087 67.241h180.781c1.967-.001 3.474-1.746 3.187-3.691z" fill="#f1f1f4"/><g fill="#dfdde2"><path d="m327.839 200.926-2.636 64.221c-1.044 25.435-21.968 45.518-47.425 45.518h-42.82c-2.075 6.648-4.088 13.315-6.039 20h13.324v-3.101c0-2.036 1.65-3.686 3.686-3.686h20.171c2.036 0 3.686 1.65 3.686 3.686v3.101h87.423c3.424 0 6.238-2.701 6.378-6.122l7.28-177.357-7.687 3.176c-20.631 8.524-34.426 28.261-35.341 50.564z"/><path d="m504.198 329.496-98.902-207.259c-5.694-11.932-15.633-21.313-27.874-26.308l-23.964-9.78c4.886 4.528 8.92 9.973 11.838 16.088l81.141 170.04c10.65 22.318 1.675 49.06-20.283 60.434l-8.403 4.353 13.85 29.766c.773 1.661 2.774 2.343 4.4 1.501l66.771-34.588c1.544-.8 2.175-2.679 1.426-4.247z"/><path d="m380.184 462.537-14.232-96.514c-.662-4.491-4.516-7.817-9.055-7.817h-29.149l1.402 9.507 12.343 12.343c1.02 1.02 1.02 2.673 0 3.693l-8.696 8.696 3.347 22.695c2.416 16.382-10.28 31.087-26.839 31.087h-108.6l-4.487 20h180.781c1.965 0 3.472-1.745 3.185-3.69z"/></g><path d="m212.018 376.754-22.394 22.394c-1.02 1.02-2.673 1.02-3.693 0l-2.396-2.396c-.169.744-.337 1.489-.504 2.234l-15.087 67.241h28.272l15.087-67.241c2.054-9.155 4.224-18.281 6.507-27.378-2.015 1.587-3.949 3.304-5.792 5.146z" fill="#c6c1c8"/><path d="m172.432 446.227-4.487 20h28.272l4.488-20z" fill="#afaab4"/><path d="m170.533 383.749c-1.02-1.02-1.02-2.673 0-3.693l21.85-21.85h-37.254c-4.539 0-8.393 3.327-9.055 7.817l-14.232 96.514c-.287 1.944 1.22 3.69 3.185 3.69h32.918l15.087-67.241c.167-.745.335-1.489.504-2.234z" fill="#f1f1f4"/><path d="m134.247 446.227-2.405 16.31c-.287 1.944 1.22 3.69 3.185 3.69h32.918l4.487-20z" fill="#dfdde2"/><path d="m192.926 357.662c13.595-13.595 30.724-22.372 49.315-25.473v-1.525h-88.881c-1.664 0-3.012 1.349-3.012 3.012v21.518c0 1.664 1.349 3.012 3.012 3.012h39.021z" fill="#756e78"/><path d="m358.665 330.664h-88.881v1.525c18.591 3.101 35.72 11.878 49.315 25.473l.544.544h39.021c1.664 0 3.012-1.349 3.012-3.012v-21.518c.001-1.663-1.347-3.012-3.011-3.012z" fill="#756e78"/><path d="m307.445 48.207c-2.566-1.55-5.544-2.408-8.644-2.408h-85.577c-3.1 0-6.078.859-8.644 2.408l9.708 24.461h83.449z" fill="#afaab4"/><path d="m297.737 72.668h-83.449l41.725 105.137z" fill="#f1f1f4"/><path d="m412.066 119.007c-6.513-13.647-17.809-24.309-31.809-30.022l-46.932-19.153c-1.898-.774-3.465-2.15-4.479-3.889l-9.128-15.634c-4.219-7.233-12.076-12.011-20.916-12.011h-85.578c-8.785 0-16.667 4.729-20.916 12.009l-9.127 15.635c-1.022 1.749-2.588 3.117-4.479 3.89l-46.933 19.153c-14 5.713-25.296 16.375-31.809 30.022l-98.902 207.26c-2.504 5.25-.42 11.459 4.745 14.135l66.77 34.587c5.384 2.79 12.067.555 14.651-4.996l51.071-109.759 2.652 64.617c.103 2.505.858 4.828 2.097 6.808-.28 1.435-.195.256-.195 23.535 0 .308.014.613.04.915-2.207 2.391-3.735 5.432-4.235 8.82l-14.231 96.512c-.956 6.475 4.067 12.286 10.604 12.286h241.971c6.543 0 11.56-5.816 10.605-12.284l-3.296-22.355c-.604-4.099-4.427-6.932-8.514-6.326-4.098.604-6.931 4.416-6.326 8.514l2.573 17.451h-166.453c13.25-59.056 14.781-66.312 18.857-82.718 4.111-2.949 8.586-5.33 13.308-7.078 2.043 2.19 4.952 3.561 8.177 3.561h20.17c3.224 0 6.133-1.372 8.177-3.561 7.616 2.818 14.589 7.285 20.43 13.126l22.393 22.393c3.949 3.951 10.348 3.956 14.3.001l15.401-15.399c3.939-3.942 3.939-10.356-.001-14.299l-9.047-9.046h19.147c.813 0 1.517.607 1.635 1.412l5.758 39.05c.55 3.727 3.752 6.407 7.41 6.407 4.576 0 8.099-4.056 7.43-8.595l-5.758-39.05c-.5-3.389-2.028-6.429-4.236-8.82.058-.668.04 1.099.04-22.432 0-.69-.068-1.364-.195-2.017 1.24-1.981 1.994-4.304 2.097-6.809l2.652-64.616 51.07 109.758c2.602 5.595 9.32 7.761 14.651 4.998 20.214-10.471 46.587-24.133 66.771-34.589 5.164-2.677 7.247-8.885 4.742-14.134zm-197.396-65.709h82.686l-4.711 11.87h-73.265zm-12.334 9.585c55.293 139.326-28.604-72.076 19.611 49.415 1.528 3.85 5.888 5.731 9.738 4.205 3.85-1.528 5.732-5.888 4.205-9.738l-10.556-26.597h61.359l-30.68 77.305-6.8-17.134c-1.528-3.85-5.887-5.73-9.738-4.205-3.85 1.528-5.732 5.888-4.205 9.738l12.673 31.933-6.067 15.288-46.801-117.93c.799-1.145.832-1.266 7.261-12.28zm-126.828 296.733-59.128-30.629 97.118-203.52c4.9-10.27 13.402-18.294 23.938-22.594l45.18-18.437c50.607 127.51-4.77-12.02 51.191 128.99-14.045 35.391-25.407 64.785-38.771 109.739h-39.146c-.692-16.859-6.499-158.339-7.236-176.286-.17-4.139-3.651-7.361-7.801-7.186-4.139.17-7.356 3.663-7.186 7.801l3.287 80.067zm278.669-21.452v12.542h-31.466c-4.998-4.771-10.414-8.965-16.172-12.542zm-91.894 19.329h-12.542c0-9.801 0-16.198 0-26.115h12.542zm-55.568 13.958-18.937 18.937-8.485-8.485 18.937-18.937c10.288-10.288 22.778-17.598 36.512-21.437v12.563c-10.609 3.534-20.183 9.514-28.027 17.359zm-17.4-20.745h-31.466v-12.542h47.638c-5.758 3.578-11.174 7.771-16.172 12.542zm-35.821 16.412c.119-.805.821-1.412 1.635-1.412h19.147l-9.046 9.046c-3.942 3.942-3.942 10.357 0 14.3l10.085 10.085-13.373 59.59h-21.957zm35.348 40.234c2.224-.233 4.385-1.2 6.086-2.901l9.628-9.628c-.543 2.392-.78 3.461-14.342 63.904h-12.899zm135.406-16.965-18.938-18.937c-7.933-7.933-17.532-13.863-28.027-17.359v-12.563c13.734 3.838 26.225 11.149 36.513 21.437l18.938 18.937zm50.825-162.825 3.287-80.068c.169-4.139-3.048-7.631-7.187-7.801-4.145-.164-7.631 3.048-7.802 7.186-.734 17.873-6.549 159.548-7.236 176.286h-79.754c-1.712-3.987-5.677-6.787-10.284-6.787h-20.17c-1.917 0-3.724.485-5.303 1.339 1.137-3.702 2.293-7.397 3.462-11.067 1.257-3.947-.922-8.166-4.869-9.423-3.947-1.258-8.165.922-9.423 4.869-2.222 6.973-4.396 14.037-6.487 21.068h-12.614c9.049-29.995 19.457-59.861 30.989-88.92 5.256-13.245 64.475-162.463 68.006-171.361 6.537 11.198 6.473 11.15 7.262 12.28-66.286 167.024-66.039 165.766-74.939 190.73-1.391 3.901.644 8.192 4.546 9.583s8.192-.644 9.583-4.546c8.771-24.603 8.604-23.557 73.268-186.496l45.18 18.438c10.536 4.3 19.038 12.324 23.939 22.594l97.117 203.52-59.127 30.628z"/><path d="m70.794 329.02-27.876-14.44c-3.68-1.907-8.205-.468-10.109 3.21-1.905 3.678-.468 8.204 3.21 10.109l27.876 14.44c3.692 1.912 8.211.454 10.109-3.21 1.905-3.678.468-8.204-3.21-10.109z"/><path d="m448.131 342.338 27.876-14.44c3.679-1.905 5.115-6.431 3.21-10.109s-6.431-5.115-10.108-3.21l-27.876 14.44c-3.679 1.905-5.115 6.432-3.21 10.109 1.903 3.674 6.428 5.118 10.108 3.21z"/></g></svg>