<svg height="512" viewBox="0 0 64 64" width="512" xmlns="http://www.w3.org/2000/svg"><g id="Fill_1" data-name="Fill 1"><path d="m25 25-11 11v18a6 6 0 0 0 6 6h24a6 6 0 0 0 6-6v-18l-11-11v-7h-14z" fill="#fff"/><g fill="#a4917d"><path d="m29 10h6v8h-6z"/><path d="m19 4h20v6h-20z"/></g></g><g id="Highlight_1" data-name="Highlight 1"><path d="m35 57v-36h1v5.2427l11 11v16.7573a3.0033 3.0033 0 0 1 -3 3z" fill="#c1eeef"/></g><g id="Fill_2" data-name="Fill 2"><path d="m41 40h-6v-6h-6v6h-6v6h6v6h6v-6h6z" fill="#51882d"/></g><g id="Line"><path d="m15.707 35.707a1 1 0 0 0 -1.414-1.414l-1 1a1 1 0 0 0 -.293.707v18a7.0081 7.0081 0 0 0 7 7h18a1 1 0 0 0 0-2h-18a5.0059 5.0059 0 0 1 -5-5v-17.5859z"/><path d="m42 46v-6a1 1 0 0 0 -1-1h-5v-5a1 1 0 0 0 -1-1h-6a1 1 0 0 0 -1 1v5h-5a1 1 0 0 0 -1 1v6a1 1 0 0 0 1 1h5v5a1 1 0 0 0 1 1h6a1 1 0 0 0 1-1v-5h5a1 1 0 0 0 1-1zm-2-1h-5a1 1 0 0 0 -1 1v5h-4v-5a1 1 0 0 0 -1-1h-5v-4h5a1 1 0 0 0 1-1v-5h4v5a1 1 0 0 0 1 1h5z"/><path d="m50.707 35.293-10.707-10.7071v-6.5859a1 1 0 0 0 -1-1h-3v-6h3a1 1 0 0 0 1-1v-6a1 1 0 0 0 -1-1h-20a1 1 0 0 0 -1 1v6a1 1 0 0 0 1 1h9v6h-3a1 1 0 0 0 -1 1v6.5859l-4.707 4.7071a1 1 0 0 0 1.414 1.414l5-5a1 1 0 0 0 .293-.707v-6h12v5h-7a1 1 0 0 0 0 2h7.5859l10.4141 10.4141v17.5859a5.0059 5.0059 0 0 1 -5 5 1 1 0 0 0 0 2 7.0081 7.0081 0 0 0 7-7v-18a1 1 0 0 0 -.293-.707zm-30.707-30.293h18v4h-18zm10 12v-6h4v6z"/></g></svg>