<svg id="Layer_1" enable-background="new 0 0 500 500" viewBox="0 0 500 500" xmlns="http://www.w3.org/2000/svg"><g clip-rule="evenodd" fill-rule="evenodd"><path d="m292.917 94.061-11.83-36.408c-1.59-4.893-5.96-8.068-11.105-8.068h-34.853c-5.145 0-9.514 3.175-11.104 8.068l-11.83 36.408c-11.361 3.198-22.166 7.719-32.249 13.376l-34.128-17.389c-4.584-2.336-9.919-1.491-13.557 2.147l-24.645 24.645c-3.637 3.638-4.482 8.973-2.147 13.557l17.389 34.128c-5.658 10.082-10.176 20.889-13.376 32.249l-36.407 11.83c-4.893 1.59-8.068 5.96-8.068 11.104v34.853c0 5.145 3.175 9.515 8.068 11.104l36.407 11.83c3.198 11.361 7.719 22.166 13.376 32.249l-17.389 34.128c-2.336 4.584-1.491 9.919 2.147 13.557l24.645 24.645c3.638 3.637 8.973 4.483 13.557 2.147l34.128-17.389c10.082 5.657 20.889 10.176 32.249 13.376l11.83 36.407c1.59 4.893 5.96 8.068 11.104 8.068h34.853c5.145 0 9.515-3.175 11.105-8.068l11.83-36.407c11.361-3.198 22.166-7.72 32.248-13.376l34.129 17.389c4.584 2.336 9.919 1.491 13.557-2.147l24.645-24.645c3.638-3.638 4.483-8.973 2.147-13.557l-17.389-34.128c5.658-10.082 10.176-20.889 13.376-32.249l36.407-11.83c4.893-1.59 8.068-5.96 8.068-11.104v-34.853c0-5.144-3.175-9.515-8.068-11.104l-36.407-11.83c-3.199-11.361-7.719-22.166-13.376-32.249l17.389-34.128c2.335-4.584 1.491-9.919-2.147-13.557l-24.645-24.645c-3.638-3.638-8.973-4.483-13.557-2.147l-34.129 17.389c-10.081-5.658-20.887-10.178-32.248-13.376zm-40.361 36.19c59.03 0 106.883 47.853 106.883 106.883s-47.853 106.883-106.883 106.883c-59.029 0-106.883-47.853-106.883-106.883 0-59.029 47.854-106.883 106.883-106.883z" fill="#19cfba"/><path d="m287.675 348.84c9.968-.565 19.436-1.963 28.03-5.273l115.445-44.477c8.865-3.415 18.486-2.757 24.526 4.576l.901 1.094c6.501 7.892 5.787 19.416-1.635 26.448-5.984 5.67-11.438 11.427-17.772 15.528l-89.723 58.103c-24.022 15.556-54.76 34.113-83.799 36.478-23.039 1.876-45.836-6.553-68.909-9.879-41.174-5.935-85.406-3.987-127.306-3.806v-91.375c20.307-5.364 39.679-9.219 58.929-14.465 27.643-7.534 46.879-29.657 77.501-20.426l69.591 20.981c11.197 3.374 17.596 15.296 14.221 26.493z" fill="#f0b16e"/><path d="m50.298 313.408h34.271c6.283 0 11.424 5.14 11.424 11.423v114.235c0 6.283-5.14 11.423-11.424 11.423h-34.271c-6.283 0-11.423-5.14-11.423-11.423v-114.235c0-6.283 5.14-11.423 11.423-11.423z" fill="#60b7fe"/><path d="m451.484 308.963-.734-1.135c-5.382-6.336-13.7-3.958-17.125-2.64l-115.472 44.496c-7.339 2.818-15.657 4.577-25.932 5.456-5.77 11.461-19.399 17.116-32.293 14.336-13.412-2.892-32.612-7.747-44.281-8.888-12.281-1.201-25.571 2.271-38.164 6.862-3.425 1.233-7.339-.44-8.563-3.87-1.223-3.432.489-7.207 3.914-8.526 14.328-5.397 29.806-8.871 44.036-7.569 12.946 1.175 31.809 6.151 45.748 9.062 13.411 2.832 23.903-8.847 17.614-20.758-1.712-3.516-4.893-6.067-8.562-7.119l-69.724-21.025c-17.614-5.36-31.07 1.407-46.727 9.242-8.318 4.127-17.125 8.524-27.155 11.246-8.318 2.295-16.88 4.406-25.443 6.336v86.19c33.271-.355 63.607 0 93.209 4.223 22.199 3.196 45.781 11.567 67.277 9.854 26.177-2.114 54.311-18.302 80.733-35.446l89.784-58.13c6.158-3.975 11.199-9.472 16.88-14.784 4.895-4.569 5.384-12.31.98-17.413zm-362.073 15.836c0-2.637-2.202-4.837-4.648-4.837h-34.495c-2.447 0-4.648 2.199-4.648 4.837v114.236c0 2.637 2.202 4.846 4.648 4.846h34.495c2.446 0 4.648-2.209 4.648-4.846zm116.451-29.815c-13.211-3.958-24.464-2.725-34.739.524-12.232-17.057-18.838-37.203-18.838-58.399 0-55.312 45.014-100.255 100.304-100.255 55.289 0 100.304 44.943 100.304 100.255 0 40.376-24.22 76.701-60.916 92.258-3.67-6.507-9.541-11.256-16.636-13.36zm-90.029-19.258c-.489-2.197-2.202-3.87-4.159-4.577l-36.452-11.782c-2.202-.707-3.67-2.552-3.67-4.836v-34.823c0-2.295 1.468-4.137 3.67-4.844l36.452-11.87c1.957-.622 3.67-2.38 4.159-4.492 3.18-10.637 7.339-21.015 12.721-30.781 1.223-1.93 1.223-4.215.245-6.241l-17.37-34.125c-.979-2.016-.734-4.311.978-5.886l24.709-24.628c1.468-1.585 3.67-1.94 5.871-.964l34.005 17.411c1.957.966 4.404.966 6.361-.085 9.786-5.544 20.061-9.855 30.825-12.844 1.957-.612 3.67-2.2 4.404-4.311l11.743-36.41c.734-2.111 2.691-3.516 4.893-3.516h34.739c2.447 0 4.159 1.404 4.893 3.516l11.743 36.41c.734 2.111 2.446 3.699 4.648 4.311 10.764 3.078 21.039 7.3 30.825 12.844 1.712 1.052 4.159 1.052 6.116.085l34.25-17.411c1.957-1.062 4.159-.622 5.871.964l24.709 24.628c1.468 1.576 1.957 3.87.734 5.886l-17.37 34.125c-.978 2.026-.734 4.311.245 6.241 5.382 9.766 9.786 20.144 12.722 30.781.489 2.111 2.202 3.87 4.404 4.492l36.207 11.87c2.202.707 3.67 2.549 3.67 4.844v34.823c0 2.285-1.468 4.129-3.67 4.836l-36.207 11.782c-2.202.707-3.915 2.381-4.404 4.482-2.936 10.733-7.339 21.111-12.722 30.876-.966 1.828-1.318 5.059 0 6.51l-63.118 24.359c-4.648 1.757-9.786 2.99-15.657 3.87 41.1-17.852 68.256-58.754 68.256-104.138 0-62.612-50.886-113.444-113.515-113.444s-113.515 50.832-113.515 113.444c0 22.965 6.85 44.687 19.572 63.417-3.18 1.492-6.361 2.992-9.296 4.482-6.85 3.518-13.945 7.043-21.284 9.414 1.194-2.722 2.329-4.803.489-7.915-5.381-9.765-9.54-20.143-12.72-30.78zm343.725 60.243c-.978 1.052-2.202 2.199-3.425 3.251-4.648 4.577-9.541 9.326-15.168 13.015l-89.784 58.132c-29.681 19.204-62.534 37.815-94.188 37.815-21.666 0-42.032-7.127-63.118-10.285-28.623-4.137-58.47-4.394-91.252-4.042v5.179c0 9.94-8.073 18.033-17.859 18.033h-34.496c-9.786 0-17.859-8.093-17.859-18.033v-114.235c0-9.938 8.073-18.033 17.859-18.033h34.495c8.562 0 15.657 6.162 17.614 14.248 2.691-.707 5.627-1.319 8.318-2.026l4.648-9.145c-4.404-8.707-8.318-17.852-11.254-27.17l-33.027-10.73c-7.584-2.552-12.477-9.328-12.477-17.414v-34.823c0-8.007 4.893-14.955 12.477-17.421l33.027-10.723c2.936-9.414 6.85-18.473 11.254-27.177l-15.657-31.05c-3.67-7.033-2.202-15.567 3.425-21.196l24.465-24.626c5.871-5.715 14.189-7.034 21.284-3.335l31.07 15.738c8.807-4.577 17.859-8.352 27.155-11.256l10.764-33.066c2.447-7.569 9.296-12.663 17.37-12.663h34.739c8.073 0 14.923 5.094 17.37 12.663l11.009 33.066c9.296 2.904 18.348 6.679 26.911 11.256l31.07-15.738c7.339-3.699 15.657-2.38 21.284 3.335l24.709 24.626c5.627 5.629 6.85 14.162 3.18 21.196l-15.657 31.05c4.648 8.705 8.318 17.763 11.254 27.177l33.027 10.723c7.584 2.466 12.722 9.414 12.722 17.421v34.823c0 7.914-5.137 14.948-12.722 17.414l-33.027 10.73c-2.691 8.526-6.116 16.878-10.03 24.8l37.675-14.603c12.721-4.834 24.709-2.371 32.048 6.596l.978 1.059c8.563 10.552 7.584 26.118-2.201 35.444zm-237.794-87.066 20.55 20.401c2.446 2.552 6.605 2.552 9.296 0l62.384-62.269v12.844c0 3.604 2.691 6.595 6.361 6.595s6.605-2.992 6.605-6.595v-28.755c0-1.534-.744-3.699-1.713-4.758-1.487-1.626-4.893-2.037-4.893-1.845h-28.623c-3.67 0-6.605 2.906-6.605 6.603 0 3.604 2.936 6.595 6.605 6.595h12.721l-57.491 57.606-20.55-20.413c-2.691-2.637-6.605-2.637-9.297 0l-38.409 38.262c-2.446 2.552-2.446 6.777 0 9.318 2.676 2.501 6.653 2.647 9.297 0z" fill="#1e2f3f"/></g></svg>