<svg id="Layer_1" viewBox="0 0 512 512" xmlns="http://www.w3.org/2000/svg" data-name="Layer 1"><path d="m378.906 121.687h23.986v-19.74a5.5 5.5 0 0 1 8.518-4.591l81.975 50.383a5.5 5.5 0 0 1 -.07 9.4l-82.05 50.429a5.506 5.506 0 0 1 -8.371-4.681v-19.739h-23.988v48.283a120.259 120.259 0 1 1 -129.554 171.3h-204.684a29.967 29.967 0 0 1 -20.034-7.531 25.229 25.229 0 0 1 -8.629-18.8v-274.79a25.227 25.227 0 0 1 8.63-18.794 29.957 29.957 0 0 1 20.033-7.537h39.755v-10.886a22.452 22.452 0 0 1 44.9 0v10.886h45.677v-10.886a22.451 22.451 0 0 1 44.9 0v10.886h45.679v-10.886a22.451 22.451 0 0 1 44.9 0v10.886h39.755a29.962 29.962 0 0 1 20.034 7.537 25.231 25.231 0 0 1 8.63 18.794z" fill-rule="evenodd"/><path d="m418.9 287.958a87.439 87.439 0 1 0 25.608 61.826 87.162 87.162 0 0 0 -25.608-61.826zm-48.75 67.124 15.025 15.026a5.495 5.495 0 0 1 -7.771 7.771l-15.023-15.023a14.108 14.108 0 0 1 -10.8-26.064v-38.229a5.5 5.5 0 1 1 10.993 0v38.228a14.12 14.12 0 0 1 7.579 18.291zm-18.572-74.852v-10.32h10.993v10.32zm-64.058 75.051h-10.32v-10.993h10.32zm139.11-10.993h10.319v10.993h-10.319zm-64.059 75.051v10.32h-10.993v-10.32z" fill="#d8e7f9" fill-rule="evenodd"/><path d="m258 281.583v-22.71a11.123 11.123 0 0 1 3.778-8.3 12.528 12.528 0 0 1 8.368-3.173h23.8a119.708 119.708 0 0 1 63.133-17.886q5.329 0 10.543.457v-46.819h-41.65a5.5 5.5 0 0 1 -5.5-5.5v-20.429h-293.772v219.177c0 9.283 9.012 15.338 17.671 15.338h199.953a120.485 120.485 0 0 1 13.676-110.155zm-77.828 36.965h33.984a11.5 11.5 0 0 1 11.476 11.477v29.355a11.5 11.5 0 0 1 -11.476 11.477h-33.988a11.515 11.515 0 0 1 -11.477-11.477v-29.355a11.513 11.513 0 0 1 11.477-11.477zm-89.3 0h33.984a11.514 11.514 0 0 1 11.476 11.477v29.355a11.513 11.513 0 0 1 -11.476 11.477h-33.993a11.515 11.515 0 0 1 -11.477-11.477v-29.355a11.513 11.513 0 0 1 11.477-11.477zm.669-71.151h32.645c6.4 0 12.146 4.888 12.146 11.476v29.357c0 6.588-5.75 11.476-12.146 11.476h-32.654c-6.395 0-12.146-4.888-12.146-11.476v-29.357c0-6.588 5.751-11.476 12.146-11.476zm89.305 0h32.645c6.4 0 12.146 4.888 12.146 11.476v29.357c0 6.588-5.75 11.476-12.146 11.476h-32.654c-6.395 0-12.146-4.888-12.146-11.476v-29.357c0-6.588 5.751-11.476 12.146-11.476zm88.637-71.151h33.983a11.5 11.5 0 0 1 11.476 11.476v29.356a11.5 11.5 0 0 1 -11.476 11.476h-33.992a11.513 11.513 0 0 1 -11.474-11.476v-29.356a11.371 11.371 0 0 1 11.478-11.476zm-89.306 0h33.984a11.5 11.5 0 0 1 11.476 11.476v29.356a11.5 11.5 0 0 1 -11.476 11.476h-33.993a11.512 11.512 0 0 1 -11.477-11.476v-29.356a11.512 11.512 0 0 1 11.477-11.476zm-89.3 0h33.984a11.513 11.513 0 0 1 11.476 11.476v29.356a11.513 11.513 0 0 1 -11.476 11.476h-33.998a11.512 11.512 0 0 1 -11.477-11.476v-29.356a11.512 11.512 0 0 1 11.477-11.476z" fill="#f7f7f8" fill-rule="evenodd"/><path d="m278.892 258.389h-8.75c-.238 0-1.133-.147-1.153.484v9.018q1.491-1.6 3.04-3.152 3.306-3.306 6.863-6.35z" fill="#fc411c" fill-rule="evenodd"/><path d="m325.972 121.687h41.645v-20.077c0-9.284-9.011-15.339-17.671-15.339h-39.755v7.629a22.451 22.451 0 0 1 -44.9 0v-7.629h-45.681v7.629a22.451 22.451 0 0 1 -44.9 0v-7.629h-45.68v7.629a22.452 22.452 0 0 1 -44.9 0v-7.629h-39.758a18.949 18.949 0 0 0 -12.691 4.7 14.349 14.349 0 0 0 -4.981 10.639v44.62h293.776v-19.047a5.5 5.5 0 0 1 5.496-5.496z" fill="#fc411c" fill-rule="evenodd"/><path d="m408.092 132.68h-76.624v39.479h76.624a5.5 5.5 0 0 1 5.5 5.5v15.41l66.131-40.646-66.131-40.645v15.409a5.5 5.5 0 0 1 -5.5 5.493z" fill="#689ff2" fill-rule="evenodd"/><g fill="#fc411c"><path d="m180.168 329.541h33.983a.485.485 0 0 1 .485.485v29.354a.484.484 0 0 1 -.484.484h-33.985a.483.483 0 0 1 -.483-.483v-29.356a.484.484 0 0 1 .484-.484z"/><path d="m90.863 329.541h33.983a.485.485 0 0 1 .485.485v29.354a.484.484 0 0 1 -.484.484h-33.985a.483.483 0 0 1 -.483-.483v-29.356a.484.484 0 0 1 .484-.484z"/><path d="m213.482 258.39h-32.645c-.239 0-1.179-.2-1.153.483v29.357c0 .268.914.483 1.153.483h32.645c.239 0 1.154-.216 1.154-.483v-29.357c0-.268-.915-.483-1.154-.483z" fill-rule="evenodd"/><path d="m124.177 258.39h-32.645c-.994-.034-1.153-.03-1.153.483v29.357c0 .638.22.5 1.153.483h32.645c.628 0 1.147.1 1.153-.483v-29.357c0-.501-.048-.539-1.153-.483z" fill-rule="evenodd"/><path d="m269.472 187.238h33.984a.485.485 0 0 1 .485.485v29.355a.484.484 0 0 1 -.484.484h-33.984a.484.484 0 0 1 -.484-.484v-29.356a.483.483 0 0 1 .483-.484z"/><path d="m180.168 187.238h33.983a.485.485 0 0 1 .485.485v29.355a.484.484 0 0 1 -.484.484h-33.985a.483.483 0 0 1 -.483-.483v-29.357a.484.484 0 0 1 .484-.484z"/><path d="m90.862 187.238h33.984a.485.485 0 0 1 .485.485v29.355a.484.484 0 0 1 -.484.484h-33.984a.484.484 0 0 1 -.484-.484v-29.356a.483.483 0 0 1 .483-.484z"/></g><path d="m287.739 52.935a11.506 11.506 0 0 0 -11.458 11.458v29.507a11.459 11.459 0 1 0 22.918 0v-29.5a11.507 11.507 0 0 0 -11.46-11.465z" fill="#b3b3b3" fill-rule="evenodd"/><path d="m197.159 52.935a11.506 11.506 0 0 0 -11.459 11.458v29.507a11.459 11.459 0 1 0 22.917 0v-29.5a11.507 11.507 0 0 0 -11.458-11.465z" fill="#b3b3b3" fill-rule="evenodd"/><path d="m106.578 52.935a11.506 11.506 0 0 0 -11.458 11.458v29.507a11.459 11.459 0 1 0 22.917 0v-29.5a11.505 11.505 0 0 0 -11.459-11.465z" fill="#b3b3b3" fill-rule="evenodd"/><path d="m434.348 272.511a109.283 109.283 0 1 0 32.007 77.273 108.937 108.937 0 0 0 -32.007-77.273zm-77.274-21.154a98.432 98.432 0 1 1 -69.6 28.83 98.12 98.12 0 0 1 69.6-28.83z" fill="#ccc" fill-rule="evenodd"/><path d="m354.873 347.583a3.113 3.113 0 1 0 4.4 0 3.128 3.128 0 0 0 -4.4 0z" fill="#689ff2" fill-rule="evenodd"/></svg>