<svg id="Capa_1" enable-background="new 0 0 512 512" height="512" viewBox="0 0 512 512" width="512" xmlns="http://www.w3.org/2000/svg"><g><g><path d="m349.456 449.48h-62.78l-9.53-97.24c-.74-7.6-5.38-14.28-12.26-17.62l-116.81-56.88v-35.45l99.05 21.23 65.32 38.95c7.55 4.5 12.54 12.3 13.46 21.05l9.79 92.59 18.34 24.14c2.87 3.79.17 9.23-4.58 9.23z" fill="#ffb09e"/><path d="m354.036 440.25-18.34-24.14-9.79-92.59c-.92-8.75-5.91-16.55-13.46-21.05l-65.32-38.95-99.05-21.23v3.85l81.086 17.38 65.32 38.95c7.55 4.5 12.54 12.3 13.46 21.05l9.79 92.59 18.34 24.14c2.87 3.79.17 9.23-4.58 9.23h17.964c4.75 0 7.45-5.44 4.58-9.23z" fill="#f7a28b"/><path d="m177.456 248.59-27.17 85.62c-1.47 4.62-3.67 8.97-6.51 12.89l-62.04 85.38 1.56 26.55c.23 3.98-3.7 6.88-7.44 5.49l-34.59-12.87c-4.96-1.85-9.08-5.13-11.97-9.28-2.88-4.15-4.52-9.16-4.52-14.45 0-5.08 1.52-10.04 4.38-14.24l61.88-86.43c3.38-4.71 5.81-10.03 7.18-15.66l14.47-59.7c2.49-10.28 7.85-19.63 15.47-26.97l12.7-12.25z" fill="#ffb09e"/><path d="m140.856 212.67-9.06 8.739 27.696 27.181-27.17 85.62c-1.47 4.62-3.67 8.97-6.51 12.89l-62.04 85.38 1.56 26.55c.031.532-.018 1.042-.125 1.528l10.649 3.962c3.74 1.39 7.67-1.51 7.44-5.49l-1.56-26.55 62.04-85.38c2.84-3.92 5.04-8.27 6.51-12.89l27.17-85.62z" fill="#f7a28b"/><path d="m317.846 228.03-58.59-91.62-56.73 13.37c-13.18 3.1-24.78 10.91-32.62 21.96l-29.05 40.93-12.7 12.25c-7.62 7.34-12.98 16.69-15.47 26.97l-14.47 59.7 52.07 22.62 5.4-17 9.83-30.98 21.85 10.64 77.52 37.75 47.56-32.15-43.11-25.7z" fill="#6c7fd8"/><path d="m250.125 162.073-2.162 6.076-60.447 127.181-.15 1.54-21.85-10.64-9.83 30.98c-8.87-3.6-13.67-13.5-10.7-22.85l29.28-92.02c3.72-11.7 12.92-20.84 24.64-24.5z" fill="#4f66d0"/><g fill="#4f66d0"><path d="m147.548 286.23-13.049 41.122 15.787 6.858 12.822-40.403z"/><path d="m317.842 228.028-58.584-91.619-15.611 3.679 56.231 87.94-48.501 48.738 43.105 25.704-40.038 27.065 10.442 5.085 47.56-32.15-43.105-25.704z"/></g><path d="m273.391 91.409h10.708c17.456 0 31.606-14.151 31.606-31.606v-25.152c0-14.995-12.156-27.151-27.151-27.151h-19.618c-14.995 0-27.151 12.156-27.151 27.151v25.152c0 17.456 14.151 31.606 31.606 31.606z" fill="#ffdfcf"/><path d="m288.554 7.5h-17.964c14.995 0 27.151 12.156 27.151 27.151v25.152c0 16.228-12.232 29.592-27.978 31.393 1.191.136 2.4.214 3.628.214h10.708c17.456 0 31.606-14.151 31.606-31.606v-25.153c0-14.995-12.156-27.151-27.151-27.151z" fill="#ffcebf"/><g fill="#ffdfcf"><path d="m485.416 461.74-26.39-109.96-17.77-74.04c0-11.53-1.8-22.91-5.28-33.76-3.48-10.84-8.64-21.15-15.34-30.53l-79.87-111.73c-6.66-9.31-17.13-14.93-28.32-15.5-2.32-.13-4.68-.04-7.04.29-5.47.76-10.62 2.71-15.14 5.65-4.52 2.93-8.41 6.84-11.32 11.53l-17.5 28.09c-2.79 4.48-2.66 10.18.32 14.53l57.95 84.45 22.48 32.76-65.31 38.95c-7.56 4.5-12.55 12.3-13.47 21.05l-9.79 92.59-18.34 24.14c-2.87 3.79-.17 9.23 4.58 9.23h52.2c6 0 11.03-4.56 11.61-10.54l8.5-86.7c.74-7.6 5.39-14.28 12.26-17.62l63.13-30.738 6.259 5.568 14.21 57.16 24.81 99.83-14.53 29.79c-1.86 3.82.92 8.27 5.16 8.27h51.91c6.45 0 11.67-5.23 11.67-11.67v-17.17c.001-4.69-.549-9.36-1.639-13.92z"/><path d="m485.416 461.74-26.39-109.96-17.77-74.04c0-11.53-1.8-22.91-5.28-33.76-3.48-10.84-8.64-21.15-15.34-30.53l-79.87-111.73c-6.66-9.31-17.13-14.93-28.32-15.5-2.32-.13-4.68-.04-7.04.29-5.47.76-10.62 2.71-15.14 5.65-4.52 2.93-8.41 6.84-11.32 11.53l-17.5 28.09c-2.79 4.48-2.66 10.18.32 14.53l57.95 84.45 22.48 32.76-65.31 38.95c-7.56 4.5-12.55 12.3-13.47 21.05l-9.79 92.59-18.34 24.14c-2.87 3.79-.17 9.23 4.58 9.23h52.2c6 0 11.03-4.56 11.61-10.54l8.5-86.7c.74-7.6 5.39-14.28 12.26-17.62l63.13-30.738 6.259 5.568 14.21 57.16 24.81 99.83-14.53 29.79c-1.86 3.82.92 8.27 5.16 8.27h51.91c6.45 0 11.67-5.23 11.67-11.67v-17.17c.001-4.69-.549-9.36-1.639-13.92z"/><path d="m485.416 461.74-26.39-109.96-17.77-74.04c0-11.53-1.8-22.91-5.28-33.76-3.48-10.84-8.64-21.15-15.34-30.53l-79.87-111.73c-6.66-9.31-17.13-14.93-28.32-15.5-2.32-.13-4.68-.04-7.04.29-5.47.76-10.62 2.71-15.14 5.65-4.52 2.93-8.41 6.84-11.32 11.53l-17.5 28.09c-2.79 4.48-2.66 10.18.32 14.53l57.95 84.45 22.48 32.76-65.31 38.95c-7.56 4.5-12.55 12.3-13.47 21.05l-9.79 92.59-18.34 24.14c-2.87 3.79-.17 9.23 4.58 9.23h52.2c6 0 11.03-4.56 11.61-10.54l8.5-86.7c.74-7.6 5.39-14.28 12.26-17.62l63.13-30.738 6.259 5.568 14.21 57.16 24.81 99.83-14.53 29.79c-1.86 3.82.92 8.27 5.16 8.27h51.91c6.45 0 11.67-5.23 11.67-11.67v-17.17c.001-4.69-.549-9.36-1.639-13.92z"/></g><g fill="#ffcebf"><path d="m375.862 309.45-6.259-5.568-63.13 30.738c-6.87 3.34-11.52 10.02-12.26 17.62l-8.5 86.7c-.58 5.98-5.61 10.54-11.61 10.54h17.964c6 0 11.03-4.56 11.61-10.54l8.5-86.7c.74-7.6 5.39-14.28 12.26-17.62l51.455-25.054z"/><path d="m485.416 461.74-26.39-109.96-17.77-74.04c0-11.53-1.8-22.91-5.28-33.76-3.48-10.84-8.64-21.15-15.34-30.53l-79.87-111.73c-6.66-9.31-17.13-14.93-28.32-15.5-2.32-.13-4.68-.04-7.04.29-1.323.184-2.627.441-3.909.761 8.456 2.093 16.063 7.121 21.305 14.449l79.87 111.73c6.7 9.38 11.86 19.69 15.34 30.53 3.48 10.85 5.28 22.23 5.28 33.76l17.77 74.04 26.39 109.96c1.09 4.56 1.64 9.23 1.64 13.92v17.17c0 6.44-5.22 11.67-11.67 11.67h17.964c6.45 0 11.67-5.23 11.67-11.67v-17.17c0-4.69-.55-9.36-1.64-13.92z"/></g><path d="m304.466 152.628-24.011 65.596c-7.371 20.138-29.671 30.487-49.809 23.116l-65.022-23.8-24.773-4.868 8.175-22.333c4.395-12.008 17.693-18.179 29.7-13.784l58.609 21.453 21.922-61.599c4.774-13.583 20.346-19.941 33.263-13.582 11.014 5.422 16.165 18.274 11.946 29.801z" fill="#ffdfcf"/><g fill="#ffcebf"><path d="m292.522 122.827c-6.427-3.164-13.511-3.178-19.595-.722.547.221 1.092.457 1.631.722 11.012 5.421 16.163 18.274 11.944 29.8l-24.011 65.596c-4.648 12.699-15.235 21.499-27.471 24.424 18.896 4.513 38.594-5.735 45.435-24.424l24.01-65.596c4.22-11.526-.931-24.378-11.943-29.8z"/><path d="m219.372 198.008 2.07-5.818-42.715-15.635c-5.707-2.089-11.704-1.787-16.899.39z"/></g><path d="m247.963 168.149-10.627 29.859-31.859 97.322-2.956 29.925-26.772-7.336c-10.186-2.791-16.003-13.499-12.8-23.563l29.283-92.019c3.722-11.697 12.919-20.84 24.637-24.493z" fill="#ffb09e"/><path d="m227.757 174.449-8.385 23.559-31.859 97.322-2.483 25.132 17.491 4.793 2.956-29.925 31.859-97.322 10.627-29.859z" fill="#f7a28b"/><path d="m441.256 277.74c0-11.53-1.8-22.91-5.28-33.76-3.48-10.84-8.64-21.15-15.34-30.53l-79.87-111.73c-6.66-9.31-17.13-14.93-28.32-15.5l21.7 104.06-14.22 37.75-.21 2.73 22.48 32.76-65.31 38.95 47.55 32.15 63.13-30.738 6.259 5.568 14.21 57.16 50.99-14.83z" fill="#fd4755"/><g fill="#e41f2d"><path d="m387.567 303.882-6.354-5.653-64.297 31.306 7.52 5.085 51.455-25.054z"/><path d="m441.256 277.74c0-11.53-1.8-22.91-5.28-33.76-3.48-10.84-8.64-21.15-15.34-30.53l-79.87-111.73c-6.66-9.31-17.13-14.93-28.32-15.5l1.383 6.631c3.421 2.386 6.467 5.366 8.973 8.869l79.87 111.73c6.7 9.38 11.86 19.69 15.34 30.53 3.48 10.85 5.28 22.23 5.28 33.76l17.77 74.04-34.237 9.958 1.211 4.872 50.99-14.83z"/></g><path d="m337.019 266.344c18.642-8.316 27.013-30.169 18.698-48.811l-4.069-9.123c-8.316-18.642-30.169-27.013-48.811-18.698-18.642 8.316-27.013 30.169-18.698 48.811l4.069 9.123c8.316 18.642 30.169 27.013 48.811 18.698z" fill="#ffb09e"/><path d="m355.717 217.533-4.069-9.123c-7.427-16.65-25.652-25.096-42.744-20.788 10.628 2.668 19.97 10.005 24.78 20.788l4.069 9.123c8.315 18.642-.056 40.495-18.698 48.811-1.992.889-4.022 1.575-6.067 2.091 7.745 1.945 16.172 1.415 24.031-2.091 18.642-8.316 27.013-30.169 18.698-48.811z" fill="#f7a28b"/></g><path d="m492.709 459.99-18.119-75.496c-.967-4.028-5.017-6.503-9.043-5.543-4.028.967-6.51 5.016-5.543 9.043l18.117 75.489c.952 3.983 1.435 8.08 1.435 12.177v17.17c0 2.299-1.871 4.17-4.17 4.17h-49.101l13.302-27.271c.772-1.583.963-3.388.538-5.097l-23.074-92.833 44.069-12.817c3.565-1.032 6.251-4.986 5.198-8.951l-17.566-73.191c-.088-23.058-7.757-48.024-22.015-67.75l-79.871-111.735c-6.959-9.728-17.302-16.135-28.883-18.067 3.315-5.741 5.222-12.392 5.222-19.484v-25.153c0-19.106-15.544-34.651-34.651-34.651h-19.618c-19.106 0-34.651 15.545-34.651 34.651v25.152c-.288 19.993 17.035 39.174 38.838 39.099-1.258 2.132-18.409 29.041-19.166 31.051l-53.148 12.526c-14.821 3.357-29.186 13.202-37.938 26.213-9.587 2.56-17.428 9.621-20.889 19.07l-7.576 20.708c-12.264 11.003-25.414 24.439-29.009 41.653l-14.469 59.696c-1.152 4.737-3.166 9.13-5.99 13.065l-61.88 86.43c-11.549 15.7-4.764 42.384 15.593 49.366l34.591 12.87c1.483.551 3.024.822 4.555.822 2.741 0 5.449-.87 7.727-2.553 3.548-2.621 5.514-6.816 5.259-11.229l-1.403-23.872 60.469-83.219c3.317-4.577 5.867-9.624 7.581-15.008.001-.005.004-.009.005-.013l5.5-17.333c3.03 2.812 6.711 4.877 10.832 6.007l26.771 7.336c2.992.881 8.73-.823 9.446-6.496l.921-9.318 15.76 7.676c1.058.515 2.176.759 3.279.759 2.779 0 5.45-1.552 6.748-4.218 1.814-3.724.265-8.213-3.458-10.027l-20.755-10.109.382-3.871 15.81-48.296c14.815 5.437 34.748 2.216 47.348-10.219 1.475 3.831 4.239 10.038 6.431 14.591l-14.296 14.366-6.44-3.841c-3.559-2.121-8.162-.957-10.283 2.6-2.122 3.558-.958 8.162 2.6 10.283l25.99 15.499-6.976 4.16c-.008.005-.014.011-.022.015-9.526 5.683-15.905 15.657-17.064 26.687l-9.57 90.51-17.081 22.482c-3.06 4.039-3.559 9.368-1.303 13.906 2.254 4.534 6.799 7.352 11.862 7.352h109.59c5.062 0 9.607-2.817 11.862-7.352 2.256-4.538 1.757-9.867-1.31-13.916l-17.074-22.473-7.977-75.401 51.375-25.016.775.689 37.803 152.092-13.337 27.344c-2.013 4.134-1.759 8.931.679 12.83 2.436 3.896 6.632 6.223 11.224 6.223h51.91c10.57 0 19.17-8.6 19.17-19.17v-17.17c0-5.268-.622-10.539-1.848-15.669zm-243.424-425.339c0-10.836 8.815-19.651 19.651-19.651h19.618c10.836 0 19.651 8.815 19.651 19.651v25.152c0 13.292-10.814 24.105-24.106 24.105h-10.708c-6.237 0-11.928-2.381-16.213-6.282l6.247-3.919c3.509-2.201 4.569-6.831 2.367-10.339-2.201-3.508-6.83-4.567-10.339-2.368l-5.693 3.571c-.311-1.542-.476-3.136-.476-4.769v-25.151zm-45.038 122.429 43.329-10.212c-1.069 3.006-4.222 11.868-5.419 15.234l-27.519 8.58c-4.625 1.442-8.916 3.613-12.763 6.36l-20.336-7.441c6.243-6.138 14.078-10.492 22.708-12.521zm-35.823 25.736c2.623-.395 5.221-.132 7.725.786l14.331 5.243c-2.278 3.437-4.115 7.196-5.394 11.216l-4.736 14.882c-7.057-3.294-21.551-6.767-29.434-7.94l5.153-14.085c1.967-5.371 6.705-9.243 12.355-10.102zm-35.06 47.502 9.884-9.534 20.353 4.001 12.196 4.466-30.145 94.769-38.66-16.795 12.984-53.569c2.158-8.911 6.786-16.979 13.388-23.338zm-57.695 197.753c-1.02 1.404-1.521 3.117-1.42 4.849l1.382 23.514-31.743-11.81c-9.19-3.252-15.642-16.335-8.577-26.657l61.819-86.344c2.228-3.105 4.082-6.421 5.576-9.906l37.808 16.424c-.832 1.574-1.756 3.1-2.805 4.549zm122.68-135.074c-.349-.015-2.322 22.357-2.418 22.676l-18.199-4.987c-5.094-1.676-9.376-6.509-7.635-14.056l29.283-92.02c2.977-9.355 10.35-16.686 19.723-19.607l16.757-5.225zm58.833-59.704c-7.555 3.507-16.019 3.874-23.846 1.041l11.09-33.877c5.856-16.87 16.72-46.171 22.252-62.968 1.046-1.456 17.371-27.883 18.642-29.846 4.045-6.418 11.731-12.432 21.076-13.699l17.832 85.511c-7.573-1.105-15.302-.233-22.551 2.614l5.407-14.77c1.423-3.89-.576-8.197-4.466-9.62-3.888-1.424-8.196.576-9.621 4.466l-19.584 53.495c-2.876 7.862-8.64 14.131-16.231 17.653zm92.291 9.835c-2.232 5.827-6.162 10.682-11.274 14.043-13.414 9.49-36.155 4.32-43.141-12.581l-4.069-9.122c-6.618-14.835.068-32.288 14.903-38.906 12.849-6.289 32.558-.416 38.906 14.904l4.069 9.123c3.206 7.186 3.421 15.19.606 22.539zm-68.04 32.118 10.135-10.184c3.732 3.39 10.009 7.792 16.853 9.868l-13.758 8.205zm-38.042 166.734 16.208-21.333c.828-1.091 1.342-2.387 1.486-3.748l9.791-92.596c.509-4.839 2.762-9.321 6.23-12.633l34.679 23.448c-3.932 4.557-6.477 10.275-7.073 16.39l-8.5 86.708c-.208 2.146-1.99 3.764-4.145 3.764zm102.541 0h-35.172c.166-.755 8.881-89.014 8.881-89.014.162-1.668.625-3.274 1.33-4.758l7.267 68.691c.144 1.361.658 2.658 1.487 3.748zm-20.884-116-34.184-23.114 52.602-31.371c19.128-10.029 28.819-36.216 19.101-57.018l-4.069-9.123c-3.769-8.451-9.935-15.352-17.717-20.003l-18.627-89.321c4.449 2.032 8.677 4.731 12.512 10.051l79.869 111.729c12.501 17.158 19.24 39.297 19.43 61.681l16.101 67.086-36.631 10.654-12.328-49.59c-.409-.596.371-.852-2.293-3.794l-22.658-20.156c-3.095-2.754-7.835-2.475-10.588.618-2.753 3.096-2.476 7.836.619 10.589l8.029 7.143z"/></g></svg>