<svg height="512" viewBox="0 0 42 58" width="512" xmlns="http://www.w3.org/2000/svg"><g id="Page-1" fill="none" fill-rule="evenodd"><g id="004---Parking-Location" fill-rule="nonzero" transform="translate(0 -1)"><path id="Shape" d="m41.951 24.32c-1.23 18.766-17.027 31.967-20.324 34.48-.354072.2710809-.845928.2710809-1.2 0-3.427-2.616-20.4-16.787-20.4-36.8-.00126238-5.6473347 2.2720756-11.0571717 6.30689656-15.00845134 4.03482094-3.95127962 9.49103094-6.11094959 15.13710344-5.99154866 12.209.256 21.279 11.133 20.48 23.32z" fill="#3b97d3"/><g fill="#fff"><path id="Shape" d="m12 37v-25c0-1.1045695.8954305-2 2-2h9.165c5.080352-.06659026 9.3557736 3.7888266 9.813 8.849.1773881 2.6257554-.7412496 5.2076235-2.5373122 7.1312184-1.7960626 1.9235948-4.3089489 3.0169112-6.9406878 3.0197816h-6.5v8c0 1.1045695-.8954305 2-2 2h-1c-1.1045695 0-2-.8954305-2-2zm5-13h6.5c2.4852814 0 4.5-2.0147186 4.5-4.5s-2.0147186-4.5-4.5-4.5h-6.5z"/><path id="Shape" d="m24.739 47.67c-1.082 1.2-2.119 2.244-3.046 3.129-.387341.3733667-1.000659.3733667-1.388 0-.932-.885-1.971-1.934-3.053-3.13-.2647833-.2941667-.3311586-.716819-.1692923-1.0779887.1618664-.3611697.5215137-.5928904.9172923-.5910113h6c.3945543.0013241.7514462.2345216.9111092.5953298s.0922459.7817688-.1721092 1.0746702z"/></g></g></g></svg>