<svg height="512" viewBox="0 0 64 64" width="512" xmlns="http://www.w3.org/2000/svg"><g id="_17-protection" data-name="17-protection"><path d="m32 56c22-5 23-43 23-43s-15.3 2.7-23-5c-7.7 7.7-23 5-23 5s1 38 23 43z" fill="#7bace6"/><path d="m32 51.872c-7.162-2.054-12.514-8.905-15.915-20.383a81.066 81.066 0 0 1 -2.74-14.067c.583.023 1.2.037 1.85.037 4.981 0 11.575-.812 16.805-4.314 5.23 3.5 11.824 4.314 16.805 4.314.646 0 1.264-.014 1.847-.037a80.989 80.989 0 0 1 -2.781 14.213c-3.404 11.39-8.741 18.192-15.871 20.237z" fill="#a8d7e4"/><path d="m40 29h-5v-5h-6v5h-5v6h5v5h6v-5h5z" fill="#f6f0e5"/><g fill="#a8d7e4"><circle cx="8" cy="56" r="7"/><circle cx="58" cy="6" r="5"/><circle cx="54" cy="51" r="5"/></g><path d="m56 13.026a1 1 0 0 0 -1.174-1.011c-.148.026-14.883 2.514-22.119-4.722a1 1 0 0 0 -1.414 0c-7.236 7.236-21.972 4.748-22.119 4.722a1 1 0 0 0 -1.174 1.011 85.763 85.763 0 0 0 3.291 19.883c4.034 13.615 11.118 21.937 20.487 24.067a1.039 1.039 0 0 0 .444 0c9.369-2.13 16.453-10.452 20.487-24.067a85.763 85.763 0 0 0 3.291-19.883zm-24 41.947c-18.639-4.467-21.534-34.433-21.939-40.81 3.756.462 15.078 1.25 21.939-4.792 6.861 6.043 18.185 5.254 21.939 4.792-.403 6.376-3.289 36.337-21.939 40.81z"/><path d="m51.383 16.739a1.006 1.006 0 0 0 -.77-.316c-.571.023-1.176.036-1.808.036-4.59 0-11.134-.719-16.248-4.145a1 1 0 0 0 -1.114 0c-5.116 3.426-11.659 4.145-16.243 4.145-.633 0-1.24-.013-1.81-.036a1.017 1.017 0 0 0 -.771.316 1 1 0 0 0 -.263.789 82.362 82.362 0 0 0 2.775 14.245c3.5 11.821 9.088 18.907 16.6 21.06a.989.989 0 0 0 .55 0c7.479-2.145 13.048-9.181 16.554-20.912a82.065 82.065 0 0 0 2.817-14.392 1 1 0 0 0 -.269-.79zm-4.47 14.61c-3.254 10.885-8.27 17.437-14.913 19.48-6.674-2.052-11.7-8.652-14.956-19.624a79.241 79.241 0 0 1 -2.575-12.751q.357 0 .726 0c4.7 0 11.367-.727 16.805-4.123 5.437 3.4 12.1 4.123 16.805 4.123q.367 0 .723 0a79.064 79.064 0 0 1 -2.615 12.895z"/><path d="m40 28h-4v-4a1 1 0 0 0 -1-1h-6a1 1 0 0 0 -1 1v4h-4a1 1 0 0 0 -1 1v6a1 1 0 0 0 1 1h4v4a1 1 0 0 0 1 1h6a1 1 0 0 0 1-1v-4h4a1 1 0 0 0 1-1v-6a1 1 0 0 0 -1-1zm-1 6h-4a1 1 0 0 0 -1 1v4h-4v-4a1 1 0 0 0 -1-1h-4v-4h4a1 1 0 0 0 1-1v-4h4v4a1 1 0 0 0 1 1h4z"/><path d="m15 55a6.006 6.006 0 0 1 -6-6 1 1 0 0 0 -2 0 6.006 6.006 0 0 1 -6 6 1 1 0 0 0 0 2 6.006 6.006 0 0 1 6 6 1 1 0 0 0 2 0 6.006 6.006 0 0 1 6-6 1 1 0 0 0 0-2zm-7 4.13a8.05 8.05 0 0 0 -3.13-3.13 8.05 8.05 0 0 0 3.13-3.13 8.05 8.05 0 0 0 3.13 3.13 8.05 8.05 0 0 0 -3.13 3.13z"/><path d="m63 5a4 4 0 0 1 -4-4 1 1 0 0 0 -2 0 4 4 0 0 1 -4 4 1 1 0 0 0 0 2 4 4 0 0 1 4 4 1 1 0 0 0 2 0 4 4 0 0 1 4-4 1 1 0 0 0 0-2zm-5 2.687a6.049 6.049 0 0 0 -1.687-1.687 6.049 6.049 0 0 0 1.687-1.687 6.049 6.049 0 0 0 1.687 1.687 6.049 6.049 0 0 0 -1.687 1.687z"/><path d="m59 50a4 4 0 0 1 -4-4 1 1 0 0 0 -2 0 4 4 0 0 1 -4 4 1 1 0 0 0 0 2 4 4 0 0 1 4 4 1 1 0 0 0 2 0 4 4 0 0 1 4-4 1 1 0 0 0 0-2zm-5 2.687a6.049 6.049 0 0 0 -1.687-1.687 6.049 6.049 0 0 0 1.687-1.687 6.049 6.049 0 0 0 1.687 1.687 6.049 6.049 0 0 0 -1.687 1.687z"/><path d="m5 34h1v1a1 1 0 0 0 2 0v-1h1a1 1 0 0 0 0-2h-1v-1a1 1 0 0 0 -2 0v1h-1a1 1 0 0 0 0 2z"/><path d="m13 7h1v1a1 1 0 0 0 2 0v-1h1a1 1 0 0 0 0-2h-1v-1a1 1 0 0 0 -2 0v1h-1a1 1 0 0 0 0 2z"/></g></svg>