<svg enable-background="new 0 0 64 64" viewBox="0 0 64 64" xmlns="http://www.w3.org/2000/svg"><g id="_x30_1_Isolation"/><g id="_x30_2_Hospital"/><g id="_x30_3_14_days"/><g id="_x30_4_Physical_distancing"/><g id="_x30_5_Monitoring"/><g id="_x30_6_Stay_home"/><g id="_x30_7_Avoid_close_contact"/><g id="_x30_8_Rapid_test"/><g id="_x30_9_Positive"/><g id="_x31_0_Isolation_room"/><g id="_x31_1_Suspect"/><g id="_x31_2_Medical_kit"/><g id="_x31_3_Negative"/><g id="_x31_4_Vaccine"/><g id="_x31_5_Disinfectant"/><g id="_x31_6_Emergency_call"/><g id="_x31_7_Wash_hand"/><g id="_x31_8_Lab"/><g id="_x31_9_Patient_data"/><g id="_x32_0_No_smoking"/><g id="_x32_1_Drugs"/><g id="_x32_2_Swab"/><g id="_x32_3_Vegetables"/><g id="_x32_4_Own_clothes"/><g id="_x32_5_Sunbathe"/><g id="_x32_6_Emergency_admission"/><g id="_x32_7_Tableware"/><g id="_x32_8_Mask"/><g id="_x32_9_Physical_distancing"/><g id="_x33_0_Thermometer"/><g id="_x33_1_Treatment"/><g id="_x33_2_Disinfectant"/><g id="_x33_3_Protection"/><g id="_x33_4_Thermal_scanner"/><g id="_x33_5_Hand_sanitizer"/><g id="_x33_6_No_alcohol"/><g id="_x33_7_Oxygen"/><g id="_x33_8_Monitoring"/><g id="_x33_9_Blood_test"/><g id="_x34_0_Isolation"/><g id="_x34_1_Vitamin"/><g id="_x34_2_Tissue"/><g id="_x34_3_Rest"/><g id="_x34_4_Oxygen"/><g id="_x34_5_Antibody"/><g id="_x34_6_Disinfectant"><g><circle cx="21" cy="6" fill="#ff738e" r="5"/><path d="m25.487 43.643-.487 5.357h-8l-.487-5.357c-3.267.988-5.513 3.013-5.513 5.357 0 3.314 4.477 6 10 6s10-2.686 10-6c0-2.344-2.246-4.369-5.513-5.357z" fill="#dedee0"/><path d="m1 11v4h12c1.105 0 2 .895 2 2v10l2 22h8l2-22v-10c0-1.105.895-2 2-2h12v-4z" fill="#ff738e"/><path d="m55 21h-10v6l6 4v6h6v-6h6v-2c0-4.418-3.582-8-8-8z" fill="#dedee0"/><path d="m41 21h4v6h-4z" fill="#00a5ff"/><path d="m51 37h-4c-1.105 0-2 .895-2 2v22c0 1.105.895 2 2 2h14c1.105 0 2-.895 2-2v-22c0-1.105-.895-2-2-2z" fill="#00a5ff"/><path d="m49 48h3v-3h4v3h3v4h-3v3h-4v-3h-3z" fill="#dedee0"/><g fill="#003564"><path d="m26.552 42.965 1.448-15.965v-10c0-.552.448-1 1-1h12c.553 0 1-.447 1-1v-4c0-.553-.447-1-1-1h-15.541c.955-1.063 1.541-2.463 1.541-4 0-3.309-2.691-6-6-6s-6 2.691-6 6c0 1.537.586 2.937 1.54 4h-15.54c-.553 0-1 .447-1 1v4c0 .553.447 1 1 1h12c.552 0 1 .448 1 1l.004 10.091 1.443 15.875c-3.371 1.239-5.447 3.493-5.447 6.034 0 3.925 4.832 7 11 7s11-3.075 11-7c0-2.541-2.077-4.796-5.448-6.035zm-9.552-36.965c0-2.206 1.794-4 4-4s4 1.794 4 4-1.794 4-4 4-4-1.794-4-4zm-4 8h-11v-2h38v2h-11c-1.654 0-3 1.346-3 3l.004 9.909-1.917 21.091h-2.087v-18c0-.553-.447-1-1-1s-1 .447-1 1v18h-2.087l-1.913-21v-10c0-1.654-1.346-3-3-3zm8 40c-4.879 0-9-2.29-9-5 0-1.538 1.395-3.024 3.634-3.973l.369 4.064c.048.514.479.909.997.909h8c.518 0 .949-.395.996-.909l.369-4.064c2.239.949 3.635 2.435 3.635 3.973 0 2.71-4.121 5-9 5z"/><path d="m55 20h-10-4c-.553 0-1 .447-1 1v6c0 .553.447 1 1 1h3.697l5.303 3.535v4.465h-3c-1.654 0-3 1.346-3 3v22c0 1.654 1.346 3 3 3h14c1.654 0 3-1.346 3-3v-22c0-1.654-1.346-3-3-3h-3v-4h5c.553 0 1-.447 1-1v-2c0-4.963-4.037-9-9-9zm-13 2h2v4h-2zm20 17v22c0 .552-.448 1-1 1h-14c-.552 0-1-.448-1-1v-22c0-.552.448-1 1-1h14c.552 0 1 .448 1 1zm0-9h-5c-.553 0-1 .447-1 1v5h-4v-5c0-.334-.167-.646-.445-.832l-5.555-3.703v-4.465h9c3.859 0 7 3.141 7 7z"/><path d="m37 23h-4c-.553 0-1 .447-1 1s.447 1 1 1h4c.553 0 1-.447 1-1s-.447-1-1-1z"/><path d="m35.447 18.105c-.493-.245-1.094-.047-1.342.447-.247.494-.047 1.095.447 1.342l2 1c.144.072.297.106.447.106.367 0 .72-.202.895-.553.247-.494.047-1.095-.447-1.342z"/><path d="m36.553 27.105-2 1c-.494.247-.694.848-.447 1.342.175.351.528.553.895.553.15 0 .303-.034.446-.105l2-1c.494-.247.694-.848.447-1.342-.248-.494-.848-.693-1.341-.448z"/><path d="m57 45c0-.553-.447-1-1-1h-4c-.553 0-1 .447-1 1v2h-2c-.553 0-1 .447-1 1v4c0 .553.447 1 1 1h2v2c0 .553.447 1 1 1h4c.553 0 1-.447 1-1v-2h2c.553 0 1-.447 1-1v-4c0-.553-.447-1-1-1h-2zm1 4v2h-2c-.553 0-1 .447-1 1v2h-2v-2c0-.553-.447-1-1-1h-2v-2h2c.553 0 1-.447 1-1v-2h2v2c0 .553.447 1 1 1z"/></g></g></g><g id="_x34_7_Mask"/><g id="_x34_8_Consultation"/><g id="_x34_9_Ambulance"/><g id="_x35_0_Vitamin"/></svg>