<svg id="Climbing_Bar_Chart" viewBox="0 0 96 96" xmlns="http://www.w3.org/2000/svg" data-name="Climbing Bar Chart"><rect height="33.59" rx="1" width="14" x="41" y="58.41"/><rect height="50.01" rx="1" width="14" x="59.5" y="41.99"/><path d="m91 31h-5c-.01-7.23 0-18.81 0-26 0-.55-.45-1-1-1h-21.51c-.37 0-.72.21-.89.54s-.14.73.07 1.04l4.59 6.48-4.59 6.48c-.22.3-.24.71-.07 1.04s.51.54.89.54h20.51v10.88h-5c-.55 0-1 .45-1 1v59c0 .55.45 1 1 1h12c.55 0 1-.45 1-1v-59c0-.55-.45-1-1-1z"/><rect height="29.3" rx="1" width="14" x="22.5" y="62.7"/><rect height="21.31" rx="1" width="14" x="4" y="70.69"/><path d="m36.99 16.57c3.47 0 6.29-2.82 6.29-6.29-.3-8.32-12.28-8.32-12.57 0 0 3.47 2.82 6.29 6.29 6.29z"/><path d="m52.99 26-7.96-.12-5.82-6.7c-.83-.85-1.9-1.44-3.15-1.44h-2.38c-1.15 0-2.18.48-2.91 1.25l-8.55 4.84c-.97.55-1.67 1.49-1.92 2.58 0 0-2.13 9.3-2.13 9.3-.75 3.09 2.85 5.64 5.51 3.87.82-.52 1.39-1.33 1.6-2.29l1.71-7.78 2.65-1.5v8.58l-4.95 19.27c-.5 1.95.68 3.94 2.62 4.44 1.9.5 3.94-.66 4.43-2.62 0 0 4.16-16.19 4.16-16.19l5.81 3.22c.15.08.24.24.24.42v7.28c0 2.01 1.63 3.64 3.64 3.64s3.64-1.63 3.64-3.64v-8.89c0-1.83-.99-3.51-2.59-4.4l-6.57-3.64v-4.16c.77.99 1.94 1.64 3.21 1.67.06 0 9.56.31 9.6.3 4.76-.1 4.84-7.1.07-7.29z"/></svg>