<svg id="uuid-6ee9fe73-dae5-4aa7-8c4c-0467b9077772" enable-background="new 0 0 512 512" viewBox="0 0 512 512" xmlns="http://www.w3.org/2000/svg"><path d="m451.3 400c-.9-12.8-3.5-25.6-7.9-37.7-2.9-6.4-6.6-13.1-8.2-19.7-1.1-4.6-1.3-9.4-1.6-14.6-1-22.3-3.7-47.7-17.6-68.1-2.9-4.2-6.5-8.5-8.5-12.9-3.3-7.6-3.8-16.4-8.2-24-7-12.3-20.7-17.6-33.1-21.2-12.3-3.3-29.5-3.3-42-5.2-1.3-.2-2.5-.4-3.6-.6-4.4-.9-9.2-5.1-12.5-9-2.5-2.9-4.1-6.3-4.7-10 0 0-.6-3.4-.6-3.4 5.5-8.7 9.7-19 12.3-30.5-.2.5 10.8-10.5 11-10.6 1.8-1.7 3.7-3.7 5.3-6.1 3.4-5.2 4.2-11.3 4.5-16.6.8-8.4-2.5-16.8-11.8-18.3 2.8-13.3 5.9-29.3 1.7-44.4-8.8-31.7-41.2-44.5-67.8-43.9-26.7-.6-58.9 12.2-67.8 43.8-4.2 15.1-1.1 31.2 1.7 44.4-9.4 1.6-12.7 9.9-11.8 18.3.3 5.3 1.1 11.4 4.5 16.6 1.6 2.5 3.6 4.4 5.3 6.1 3.7 3.5 7.2 7.3 11 10.6 2.6 11.5 6.8 21.8 12.3 30.5 0 0-.7 3.8-.7 3.8-.9 5.5-5.5 11.7-9 15.1-1.3 1.1-3.4 2.5-7.9 3.5-1.1.2-2.3.5-3.6.6-9.2 1.4-22 1.9-31.7 3.2-17.9 1.9-35.8 12-41.9 25.9-2.2 4.7-3.2 9.5-4.1 14.2-1.9 12.8-7.8 20.3-16.8 30-11.5 12.3-16.9 20.9-21 37.4-1.3 4.7-2.5 9.1-4.3 13.2-4.1 9.3-11.3 17.8-16.6 26.8-1.7 2.9-3.4 6.1-3.7 10-.4 4.6 1.1 8.7 2.6 12.1 6.8 15.7 16.1 30.2 27.7 42.9 10.1 11.1 22.4 21.2 30.6 33.3-2.9 2.5-5.6 4.2-8.6 5.3-2.7.9-5.4 4-4.8 7.8 1.8 16.3 14.9 31.1 31.8 36.1 9.5 2.6 23.5 2 33.8-2 .6 1.7 1.9 3.1 3.7 3.8 16.2 5.7 35 6.1 51.3 6.1 21.4-.5 41.1-7.1 64.7-6.8 28.6 0 32.5.2 60.1 3.7 1.9.2 3.7-.4 5.1-1.8s1.9-3.2 1.6-5.1c-2.2-14.3-2.7-31.6-1.7-54.4 7.9-.4 16 0 24.1-.6 20.2-1.3 53.8-13.3 72-25.6 4-2.5 6-6.9 5.4-12zm-96.6-44.5c2.9 6.7 6.4 13.1 10.6 19.1-4.2 1.9-7.9 3.9-12.2 5.4.5-8.3 1-16.4 1.6-24.5zm-54.7-105.9c-5.7 5.8-11.9 10.3-18.6 13.3 13.3-15.4 23.6-34.6 31-57.2 1.6.8 3.1 1.3 4.7 1.8 0 15.4-6.2 31-17.1 42.1zm-101-42.1c1.7-.4 3.3-.9 4.8-1.5 7.3 22.5 17.7 41.6 30.9 57-21-9.3-36.1-32.4-35.7-55.5zm19.9-15.4c1.4-2.1 2.6-4.3 3.5-6.6 21.7 22.9 49.3 22.9 71.1.1 1.8 4.8 5 9 8.7 12.5-6.8 22.6-16.8 41.6-29.6 56.7-7.9-5.9-20.2-4.4-26.5 3-14-15.4-24.8-35.2-32.1-59.1 1.8-2 3.3-4.2 4.9-6.6zm34.1 79.1c.4-10.7 15.8-10.7 16.1.1 0 4.4-3.6 8-8 8-3.3 0-6 2.7-6 6v5.6h-2v-19.7zm70.5-167.3c.8 1.1.6 4 .6 5.1-.2 3.9-.7 7.9-2.6 10.8-.8 1.2-2 2.5-3.4 3.8.5-6.5.5-13 0-19.5 1.9-1.1 4.7-1.1 5.4-.2zm-121.8-53.7c2.9-10.6 10.5-20.2 20.7-26.4 18-11.4 53.1-11.4 71.1 0 26.2 16.3 24.7 41.1 18.4 67.5-.1.5-.6 1.5-.9 2.2-1.9-2.5-3.8-6.5-4-9.7-.4-6.2.7-12.5-.1-19-1.1-8.7-5.7-18.7-13.5-22.9-9.3-4.6-18.8 2.5-22 4.9-3.4 2.5-10 4.5-13.4 4.5s-10-2-13.4-4.5c-3.1-2.4-12.7-9.5-22-4.9-8 4.4-12.3 14.5-13.5 22.9-.8 6.5.3 12.8-.1 19-.3 3.3-2.1 7.2-4 9.7-.3-.7-.8-1.8-.9-2.2-2.8-13.1-6-27.9-2.4-41.1zm-7.1 69.6c-1.9-2.9-2.3-7.1-2.6-10.7-.1-1.1-.2-4.1.5-5.1s3.5-.9 5.4.2c-.5 6.5-.5 13 0 19.5-1.2-1.3-2.5-2.6-3.3-3.9zm15.3-14.4c6.6-4.6 10.6-14.2 11.1-20.6.5-6.2-.6-12.6.1-18.5.6-4.9 3-10.8 6.9-13.7 1.2-.6 3.8-.4 9.4 3.7 5.8 4.3 15 6.9 20.6 6.9s14.8-2.6 20.6-6.9c5.9-4.4 8.4-4.2 9.4-3.7.6.3 1.4 1 2.3 2.2 7.3 9.2 4 19.2 4.7 30 .5 6.4 4.5 16 11.1 20.6 1.7 21.2-2.9 46.8-14.5 63.6-8.2 12.4-21.4 21.9-33.6 22.1-10.9-.6-21.1-6.4-30.1-17.3-14.6-17.7-19.7-45-18-68.4zm-50.4 227.1c3.8 24 6.7 49.9 8.9 79.1-5.8-5.9-12.7-8.7-19.1-13-8.2-5.2-17.2-17.2-23.1-28.4 12-4.3 27.9-24.5 33.3-37.7zm-25.3 150.8c-11.3-3.3-20.2-12.4-22.7-22.7 4.4-2.2 8.5-5.4 12.9-9.9 1.9-1.9 2.3-4.9.9-7.2-6.3-10.8-15.1-19.6-23.7-28.1-15.3-14.5-28.2-31.4-36.5-50.8-.9-2.1-1.9-4.4-1.7-6.2.1-1.5 1.2-3.4 2.1-4.9 1.9-3.2 4.1-6.4 6.3-9.7 3.9-5.8 8-11.7 11-18.5 2.1-4.9 3.5-9.9 4.9-14.7 1.6-5.6 3-10.9 5.5-15.6 3.1-6.1 7.9-11.4 12.9-17 6.5-7.2 13.2-14.7 16.8-24.5 2.8-7.4 3-15.8 6.1-22.7 5-10.7 17.2-15.5 24.1-17.5-7.5 33.7-3 68.2 2.1 95.4-4.6 15.1-8.7 26.3-20.1 39.4-6.9 7.9-11.3 10-14.8 11.5-.5-.9-.9-1.8-1.4-2.7-1.5-3-5.1-4.1-8.1-2.6s-4.1 5.1-2.6 8.1c3.6 6.9 7.1 13.7 11 20.2 9.3 15 17.3 23.2 30 30.2 4 2.3 7.8 4.5 10.7 7.5 2.5 2.7 6.4 9.3 9 12.9-.1 14.4-1.1 29.7-3.1 45.4-6.6 5.8-24 7.1-31.6 4.7zm150.1.6c-23.7-.3-43.8 6.2-64.7 6.8-13.7 0-29.2-.3-42.6-4 3.6-26.4 5.1-51.4 3.3-76.7-2.9-38.7-7-71.2-12.9-102.1-5.3-27.5-10.1-63.1-1.3-96.7 6.7-.7 14.3-1.2 20.9-1.9.2 31.1 24.1 61.6 54 68.5v19.1c0 3.3 2.7 6 6 6h14c3.3 0 6-2.7 6-6v-6.5c6.6-2 11.7-7.4 13.4-14.1 27.4-9 48.4-37.6 48.6-66.9 6.6.7 14.2 1.2 20.9 1.9 9.8 38.4 2.7 74.4-3.1 107.1-.5 1.1-.7 2.4-.6 3.6-3 20.4-4.2 41-5.4 61-4.2.5-8.4.5-12.6.1-.3-9-4.6-16.6-11.5-20.5v-33.7c0-3.3-2.7-6-6-6h-27.1c.6-8.6-6.2-16-14.8-16h-21.8c-8.6 0-15.4 7.4-14.8 16h-27.1c-3.3 0-6 2.7-6 6v145c0 3.3 2.7 6 6 6h105.5c3.3 0 6-2.7 6-6v-26.5c6.9-2.7 13.3-6.2 20.5-7.6-.8 18.7-.5 34 .9 47-21.2-2.7-27.5-2.9-53.7-2.9zm-37.2-52.2c17.3 14.8 37.3 22 57.6 19v17.1h-93.5v-133h21.1v3.7c0 3.3 2.7 6 6 6s6-2.7 6-6v-3.7h27.4v3.7c0 3.3 2.7 6 6 6s6-2.7 6-6v-3.7h21.1v36.5c-1.3 2.6-3.1 5.6-4.9 7.8-4.1-.8-8.7-2.6-12.6-4.3-7.5-3.4-16.6-1.1-21.5 5.5-9.6 12.8-16.9 29-20.6 45.5-.4 2.2.3 4.4 1.9 5.9zm24.6-108.8h-27.4v-1.2c0-1.6 1.3-2.8 2.8-2.8h21.8c1.6 0 2.8 1.3 2.8 2.8zm167 79.4c-21.6 13.8-54.5 25.1-78.7 23.9-5.5 0-11.2.1-16.9.6-5.2.5-9.7 1.4-13.9 2.7-7 2.1-13.4 5.8-20.2 8-18.6 6-38.2-2.2-51.2-12.5 3.5-13.5 9.9-27 17.7-37.5 1.6-2.1 4.4-2.9 6.9-1.7 4 1.8 8.2 3.4 12.4 4.6 2.9.8 6.3 1.5 9.8 0 2.9-1.2 4.7-3.4 6.1-5.4 1.6-2.3 3.1-4.7 4.4-7.2 1 2.2 1.3 4.5 1.2 6.7 0 1.6 0 4.6 2.2 7.1 2.2 2.6 5.3 3 6.6 3.2 7.5 1 15.1.8 22.7-.7 10.3-1.9 18.3-6.7 28-11 13.5-6 23.3-9.1 29.9-9.7 3.3-.3 5.8-3.2 5.5-6.5s-3.1-5.8-6.5-5.5c-7.1.6-16.1 3.2-28.2 8.2-10.2-14-16.4-30.4-18.1-47.4 5.8-33.6 13.2-69 4.4-108.9 10.1 2.9 21.2 7 26.1 15.6 3.7 6.8 4.2 15.6 7.7 22.9 1.9 4.1 4.4 7.6 6.9 11 14.4 18.4 17.3 43.6 18.2 65.7.3 5.5.5 11.2 1.9 16.8 1.5 6.2 4.1 11.8 6.7 17.1 5.8 12.2 8.2 25.9 9.1 39.3-.3.3-.6.5-.7.6z"/></svg>