<svg id="Layer_1" enable-background="new 0 0 500 500" viewBox="0 0 500 500" xmlns="http://www.w3.org/2000/svg"><g clip-rule="evenodd" fill-rule="evenodd"><path d="m216.623 144.719c4.399-13.885 17.284-23.323 31.85-23.329 14.565.006 27.451 9.444 31.85 23.329-8.676 32.228-8.814 63.267-.411 93.119 7.258 30.282 12.594 52.544 16.007 66.784 3.029 12.64 4.544 18.96 4.544 18.96-4.168 3.972-11.269 4.177-15.821 1.311-3.912-2.463-8.161-7.696-11.859-14.946-5.908-6.137-10.981-14.391-4.217-23.615-7.001-17.259-13.277-35.941-20.093-54.32-6.817 18.378-13.092 37.061-20.094 54.32 6.764 9.225 1.691 17.478-4.217 23.615-3.698 7.25-7.947 12.484-11.859 14.946-4.551 2.865-11.652 2.66-15.821-1.311 0 0 1.515-6.32 4.544-18.96 3.413-14.24 8.749-36.501 16.007-66.784 8.404-29.851 8.266-60.891-.41-93.119z" fill="#60b7fe"/><g fill="#f0b16e"><path d="m217.753 134.385c-4.585-14.087 10.754-12.731 13.24-13.421-10.751-23.551-3.562-42.347 9.501-57.651 3.393-3.975 10.228-11.535 6.683-18.244-3.951-7.479-15.49-2.845-20.277 1.547-27.084 24.846-33.709 75.525-9.147 87.769z"/><path d="m283.081 132.72c1.851-3.025-9.932-.437-14.989-13.216 10.751-23.551.33-38.717-12.734-54.02-3.393-3.975-10.228-11.535-6.683-18.244 3.951-7.479 15.489-2.845 20.277 1.547 27.085 24.846 38.691 71.689 14.129 83.933z"/><ellipse cx="247.822" cy="114.852" rx="19.533" ry="19.533" transform="matrix(.957 -.29 .29 .957 -22.649 76.744)"/></g><path d="m419.832 182.12c-11.66-24.36-23.02-34.178-34.079-29.451-11.059 4.725-20.127 25.952-25.949 36.537-8.603 15.642-15.187 27.614-19.753 35.915-25.182 45.787 23.566 49.589 48.934 38.583-5.448 17.907-8.977 31.574-14.819 43.996l1.409 25.092 38.013-1.821c2.777-8.511-3.186-17.489-18.226-20.91 19.715-38.711 28.275-51.831 28.275-51.831 8.937-22.325-23.311-19.098-38.02-21.278 22.811-36.555 34.215-54.832 34.215-54.832z" fill="#19cfba"/><path d="m446.066 155.552c-4.906-2.453-5.339-9.249-3.36-14.365s7.523-7.888 12.803-6.402c23.047 6.489.706 56.323-4.04 70.292-1.998 5.878-8.762 8.482-14.184 5.46-22.378-12.472-54.882-41.439-40.886-55.641 14.514-14.728 28.614 13.205 40.055 26.28 7.61-17.759 9.612-25.624 9.612-25.624z" fill="#f0b16e"/><path d="m400.865 106.354c11.477 0 20.78 9.303 20.78 20.78 0 11.476-9.303 20.78-20.78 20.78-11.476 0-20.779-9.304-20.779-20.78-.001-11.477 9.303-20.78 20.779-20.78z" fill="#f0b16e"/><path d="m94.255 245.327c-5.368 51.32-7.508 71.787-7.508 71.787-24.326 9.328-40.898 12.175-40.898 12.175-8.65 18.164-12.975 27.247-12.975 27.247 6.205 6.45 18.566 3.583 27.548-9.57 3.451-.258 18.366-.203 30.395-1.406 8.241-.824 15.128-2.239 16.047-4.749 3.729-10.187 5.653-21.504 10.235-33.49 11.447-29.946 17.171-44.919 17.171-44.919-26.676-11.382-40.015-17.075-40.015-17.075z" fill="#19cfba"/><path d="m109.531 165.95c17.821-4.681 23.976.605 30.252 2.682 10.516 25.511 8.148 58.296-3.65 95.357 15.561 7.352 32.994 8.588 31.495 23.486 0 0 .916 20.622-4.816 52.65 14.514 5.657 13.389 16.83 5.574 19.371 0 0-11.298.117-33.894.351 7.932-22.053 6.552-32.527 8.915-56-72.314-18.837-68.739-48.257-56.423-101.824.347.521 41.731-13.212 22.547-36.073z" fill="#19cfba"/><path d="m128.392 123.063c11.014 1.109 19.043 10.936 17.935 21.949-1.109 11.014-10.936 19.044-21.949 17.935-11.014-1.109-19.043-10.936-17.935-21.949s10.935-19.043 21.949-17.935z" fill="#f0b16e"/><path d="m99.355 165.969c-12.646 6.643-16.087 10.526-34.29 27.884-11.307 9.239-10.099 20.439-.86 31.746 11.169 13.656 16.753 20.484 16.753 20.484 1.687 5.624 7.393 9.024 13.142 7.83 5.748-1.194 9.629-6.586 8.937-12.416s-4.652-11.572-10.521-11.386c-6.591-15.755-10.962-22.224-10.962-22.224 22.356-15.91 24.37-22.209 24.37-22.209 22.77-14.91 5.947-25.753-6.569-19.709z" fill="#f0b16e"/><path d="m301.826 402.911c10.591-15.39 11.817-30.988 3.677-46.794l-180.182 48.178c.714 25.87 1.071 38.805 1.071 38.805 1.337.017 2.621.033 3.85.049 14.981.192 12.503-4.322 17.434-17.959.818-2.263 2.403-3.992 4.753-5.185 24.145 1.082 42.38-2.388 54.706-10.41 31.114 8.895 62.678 6.668 94.691-6.684z" fill="#fa6e85"/><path d="m343.511 449.941c-19.211.047-28.98.091-28.98.091-3.644-16.29-10.724-31.469-13.218-42.673-1.707-7.666-7.471-34.609 4.062-38.368 4.913-1.601 12.179 1.964 13.971 6.811 4.245 19.282 6.01 32.859 7.727 43.022 2.855 16.903 7.993 13.912 15.347 20.843 2.106 1.984 1.726.836 1.091 10.274z" fill="#f0b16e"/><path d="m341.285 339.173c11.629.914 20.316 11.083 19.402 22.712-.914 11.63-11.082 20.316-22.712 19.402-11.629-.914-20.316-11.082-19.402-22.712.914-11.629 11.082-20.316 22.712-19.402z" fill="#f0b16e"/><path d="m225.459 130.859c-.307.371-.604.751-.891 1.138-1.497 2.015-2.747 4.266-3.695 6.714 4.391 16.932 6.624 33.629 6.697 50.088.076 17.144-2.198 33.93-6.822 50.356l-.01-.003-20.568 85.811c4.539.807 7.259-1.753 10.228-5.495 1.821-2.295 3.652-5.192 5.396-8.611l.01.005c1.505-2.957 11.225-9.786 5.212-17.808-1.47-1.846-1.929-4.409-.981-6.751 7.199-17.763 14.993-40.617 21.263-57.51 2.166-5.834 10.5-5.886 12.682 0 6.255 16.869 14.078 39.799 21.263 57.51l-.007.003c2.485 6.152-4.555 7.685-2.59 14.429 1.452 4.981 5.685 7.86 6.838 10.122 2.406 4.724 6.3 10.8 10.165 13.233 1.456.916 3.556 1.214 5.46.874l-20.523-85.626c-4.68-17.443-6.957-32.324-6.877-50.538.073-16.459 2.305-33.156 6.697-50.089-.939-2.425-2.171-4.653-3.645-6.647-.277-.374-.562-.741-.855-1.1-11.035 15.022-33.486 14.963-44.447-.105zm118.903 326.632c-20.064.05-30.269.096-30.299.096-3.272.026-6.017-2.285-6.652-5.373-2.659-12.367-8.042-25.258-11.748-36.988-48.195 14.536-82.685 1.557-84.385 1.781-6.768 3.896-14.804 6.729-24.109 8.499-9.623 1.831-20.665 2.529-33.124 2.094-.927.979-2.63 7.324-2.877 8.172-3.568 12.246-4.824 16.553-22.647 16.325l-3.948-.051c-3.666.035-6.698-2.875-6.799-6.554l-1.125-40.758c-.312-3.229 1.744-6.304 4.981-7.169l191.378-51.171.002.006c.126-.034.252-.063.378-.089 9.507-18.465 34.707-21.368 48.156-5.625 10.456 12.24 9.014 30.685-3.226 41.142-7.927 6.772-19.239 8.92-29.268 5.132 2.284 12.318 3.062 18.529 4.937 29.632 2.365 14.003 5.251 10.134 14.643 18.674 2.057 1.875 3.002 2.737 3.371 6.22.227 2.138-.286 6.904-.474 9.716-.245 3.714-3.452 6.526-7.165 6.289zm-51.99-55.344c-2.009-10.198-4.366-26.768 1.128-36.553l-163.24 43.648.809 29.335c5.331-.312 5.878-2.182 7.153-6.557 2.105-7.223 3.384-13.461 10.906-17.268 1.146-.578 2.378-.798 3.57-.703 12.194.532 22.857-.07 31.987-1.807 8.809-1.676 16.115-4.402 21.915-8.177 1.699-1.104 3.71-1.344 5.518-.83l.004-.015c26.842 7.674 53.52 7.096 80.25-1.073zm26.922 41.944c4.031-.015 10.342-.036 18.91-.059-7.246-6.174-14.042-4.564-17.531-25.221-.246-1.455-.769-4.778-1.337-8.379-1.458-9.256-3.282-20.832-6.69-36.394-.46-1.207-4.379-3.463-6.274-2.846-2.397.781-2.937 6.248-2.781 12.241.209 8.035 2.096 16.767 2.958 20.638 1.103 4.956 3.26 11.085 5.617 17.785 2.42 6.874 5.042 14.326 7.128 22.235zm32-94.634c-8.992-10.527-26.462-5.019-27.56 8.954-1.088 13.844 15.208 22.225 25.814 13.164 6.552-5.597 7.342-15.567 1.746-22.118zm-302.528-248.845c0 3.735-3.029 6.764-6.764 6.764s-6.764-3.029-6.764-6.764v-59.316c0-3.735 3.029-6.764 6.764-6.764h59.315c3.735 0 6.764 3.029 6.764 6.764s-3.029 6.764-6.764 6.764h-52.551zm351.327-52.552c-3.735 0-6.764-3.029-6.764-6.764s3.029-6.764 6.764-6.764h59.316c3.735 0 6.764 3.029 6.764 6.764v59.316c0 3.735-3.029 6.764-6.764 6.764s-6.764-3.029-6.764-6.764v-52.552zm52.552 351.328c0-3.735 3.029-6.764 6.764-6.764s6.764 3.029 6.764 6.764v59.316c0 3.735-3.029 6.764-6.764 6.764h-59.316c-3.735 0-6.764-3.029-6.764-6.764s3.029-6.764 6.764-6.764h52.552zm-351.328 52.552c3.735 0 6.764 3.029 6.764 6.764s-3.029 6.764-6.764 6.764h-59.315c-3.735 0-6.764-3.029-6.764-6.764v-59.316c0-3.735 3.029-6.764 6.764-6.764s6.764 3.029 6.764 6.764v52.552zm-.552-281.891c-9.242 4.861-10.892 6.487-18.994 14.471l-11.49 11.106c-9.117 7.282-6.81 15.508.2 24.094l.013-.01 17.794 21.757c1.675 2.048 1.016 3.834 3.591 5.367 3.663 2.182 8.445-.718 7.917-5.165-.287-2.416-1.906-6.223-4.252-6.149-2.88.09-5.394-1.64-6.438-4.152l-.009.004c-3.694-8.828-8.302-18.39-11.01-22.442-2.036-3.041-1.271-7.138 1.693-9.245l-.002-.003c6.949-4.945 18.531-13.591 23.748-19.318 7.102-7.796 2.382-12.703-2.761-10.315zm-28.452 4.854c-2.685 2.647-6.044 5.957-10.658 10.359-7.252 6.024-10.65 12.886-10.85 20.263-.201 7.438 3.153 15.454 9.24 22.735l-.013.011 12.133 14.835c-.997 13.177.842 24.468 7.95 34.442l-2.695 33.737c-22.569 9.211-32.93 12.669-32.961 12.68-1.976.67-3.439 2.165-4.134 3.97l-12.926 28.945c-1.174 2.63-.526 5.611 1.4 7.53 4.785 4.751 11.553 6.311 18.46 4.602 7.365-1.822 14.002-7.057 19.046-13.842 5.328-.472 14.006-1.243 23.401-2.415 7.881-.983 20.002-2.651 22.491-10.005 1.758-5.194 3.095-10.66 4.484-16.34 1.996-8.159 3.471-13.803 6.493-22.235 2.92.96 5.993 1.897 9.228 2.811-1.595 18.305-1.276 32.737-8.501 52.005-1.733 4.621 1.685 9.235 6.329 9.193l35.567-.368c.813.046 1.647-.055 2.468-.322 12.831-4.172 15.768-21.503-.506-30.873 4.81-29.178 4.462-48.708 4.366-51.858 1.443-16.704-10.869-21.188-25.554-26.532-2.102-.765-4.266-1.552-6.427-2.407 9.222-30.842 13.874-62.301 3.941-91.215 5.509-4.543 9.297-11.177 10.069-18.841 1.551-15.405-9.702-29.135-25.1-30.685-22.256-2.24-37.959 21.322-27.603 40.946-2.188.222-4.686.901-6.87 2.02-11.072 5.819-12.942 7.662-22.268 16.854zm48.112-4.508c1.831 11.925-7.605 20.613-17.235 28.474-3.468 2.831-7.147 5.638-10.427 8.062l-.078.331c1.859 3.456 4.393 8.523 7.379 15.401 11.142 3.265 17.677 19.556 9.732 30.593-5.308 7.374-15.11 9.894-23.319 5.967 3.775 16.119 18.554 23.895 35.028 30.102 4.853 1.828 13.2 4.479 19.678 6.078 3.248.755 5.511 3.819 5.176 7.227-1.87 18.787-1.358 33.357-6.847 51.984l25.248-.261c.241-.07.716-.583.701-1.154-.059-2.317-4.095-5.03-7.634-6.41l.001-.003c-2.953-1.138-4.781-4.243-4.202-7.474 5.678-31.729 5.084-52.433 5.015-54.326-.021-.351-.015-.707.021-1.067.673-6.685-7.238-9.564-16.688-13.002-4.179-1.521-8.585-3.124-12.934-5.178l.006-.012c-3.007-1.414-4.577-4.871-3.546-8.126 9.31-29.317 15.079-59.975 6.34-87.14-3.723.752-7.621.74-11.415-.066zm17.091-36.634c5.074 6.21 4.18 15.39-2.037 20.469-10.024 8.191-24.982.156-23.686-12.725 1.291-12.834 17.564-17.73 25.723-7.744zm-26.99 165.71c-.431 1.188-.798 2.21-1.093 3.041-4.556 12.854-6.14 24.427-10.024 35.906-.343 1.014-.096-1.253-1.034-.977-7.107 2.097-29.242 3.952-33.016 4.288-3.772.335-6.432.229-8.456 3.348-3.354 5.172-8.814 10.65-14.419 11.087l9.104-20.389c4.804-1.716 15.923-5.829 34.345-13.408 2.512-.826 4.41-3.093 4.629-5.894l2.129-26.653c4.874 3.454 10.763 6.66 17.835 9.651zm291.77-201.613c-23.39 0-36.974 26.465-23.569 45.448-11.111 8.783-18.235 25.653-25.217 38.348l-20.98 38.146c-24.474 44.499 9.736 63.022 47.777 54.505-3.879 13.055-7.148 23.867-11.727 33.602-.373.797-.575 1.63-.624 2.458l-.01-.001-1.323 21.862c-.239 4.002 2.982 7.357 7.284 7.123l42.594-1.206c2.929-.08 5.369-2.018 6.226-4.653l.009.003c4.205-12.888-4.113-20.395-15.772-24.471 18.907-36.695 25.887-46.716 26.523-48.298l.003.001c5.951-14.866.023-22.585-10.575-26.827-7.148-2.861-16.299-3.524-24.509-4.056l15.161-24.296c6.507 5.071 13.264 9.557 19.351 12.95 9.435 5.258 21.265.692 24.736-9.524.623-1.834 1.496-4.154 2.521-6.881 2.579-6.857 6.069-16.137 8.776-25.752 6.163-21.889 8.029-45.174-11.578-50.694-8.928-2.514-18.362 2.213-21.71 10.868-2.467 6.378-2.403 14.537 2.11 19.98-.846 2.554-2.204 6.39-4.289 11.666-4.599-6.19-9.344-12.697-14.734-17.788 7.576-5.275 12.378-13.984 12.378-23.68.003-15.922-12.908-28.833-28.832-28.833zm10.824 18.011c-9.615-9.615-26.13-2.775-26.13 10.824 0 13.704 16.672 20.282 26.13 10.824 5.977-5.977 5.977-15.671 0-21.648zm-9.947 80.827c-10.303-9.634-23.426-24.903-20.302-38.723-6.905 8.272-12.453 20.96-17.524 30.181l-20.98 38.146c-9.998 18.179-10.44 32.73 10.917 35.93 10.624 1.592 23.193-.356 32.471-4.381 3.415-1.474 7.378.099 8.851 3.514.657 1.522.708 3.152.261 4.623l.003.001c-.682 2.241-1.967 6.57-3.195 10.705-4.06 13.672-7.419 24.984-12.33 35.719l-.803 13.266 28.315-.801c-2.342-1.931-6.709-3.565-13.14-5.028-4.323-.978-6.506-5.749-4.532-9.637l-.013-.006c18.537-36.399 27.99-51.835 29.993-55.017 1.8-4.952-.007-7.457-3.269-8.763-8.14-3.258-22.709-2.751-32.027-4.122-5.062-.745-7.283-6.376-4.619-10.471zm44.533-49.962c-.908-3.882 1.285-9.423 6.025-8.089 16.388 4.613-4.774 53.961-8.862 65.994-.791 2.329-3.354 3.211-5.395 2.074-7.202-4.014-15.447-9.724-22.889-16.11-.174-.167-.359-.327-.554-.478-6.792-5.559-25.739-24.496-18.452-31.891 3.867-3.924 8.276-1.654 12.665 2.671 6.824 6.725 13.549 17.583 19.997 24.952 3.316 3.789 9.371 2.689 11.277-1.799l.005.002c8.263-19.281 10.52-28.141 10.527-28.167.822-3.171-.756-6.4-3.602-7.766-.347-.23-.591-.746-.742-1.393zm-186.732-56.151c-1.418-8.021-5.104-14.721-10.721-21.277-.796-.928-1.695-1.978-2.614-3.132l-3.027 3.614c-5.403 6.32-9.002 13.22-10.332 20.899 8.259-4.633 18.397-4.674 26.694-.104zm13.301 16.897c2.859-17.605-1.91-33.075-13.357-46.464-1.8-2.106-6.267-7.292-6.449-9.775.026-.516.026-1.037.001-1.562.291-2.829 8.126.143 11.19 2.955 13.315 12.216 20.957 31.481 22.187 48.806.697 9.828-.629 18.963-4.137 25.734-2.324-3.805-5.206-7.195-8.581-10.089.28-3.26-.015-6.512-.854-9.605zm-53.973 9.469c-3.423 2.91-6.378 6.367-8.733 10.224-3.507-6.772-4.834-15.906-4.137-25.734 1.23-17.325 8.872-36.589 22.187-48.806 2.141-1.964 6.079-3.844 8.949-4.042 2.092-.144 2.406.428 2.242 2.649-.8 5.883-13.592 13.845-18.678 32.076-2.129 7.632-2.547 15.782-1.069 24.557-.557 2.182-.853 4.467-.853 6.822 0 .759.032 1.511.092 2.254zm37.307-12.141c5.46 5.46 5.46 14.316 0 19.775-8.783 8.783-23.87 2.535-23.87-9.888s15.086-18.67 23.87-9.887zm-49.174 39.828c-11.439-9.573-15.717-26.686-14.478-44.147 1.468-20.677 10.627-43.21 26.52-57.789 6.464-5.929 18.922-10.642 27.162-5.271 8.241-5.37 20.698-.658 27.162 5.271 15.893 14.579 25.052 37.111 26.52 57.79 1.152 16.234-2.48 31.487-11.342 41.147-.981 1.07-2.026 2.072-3.136 3-3.708 15.049-5.595 29.788-5.659 44.217-.07 15.824 2.046 31.377 6.347 46.657.065.231.117.463.156.695l21.725 90.641c.575 2.417-.232 4.84-1.91 6.439l.007.007c-6.652 6.338-17.535 6.941-25.047 2.212-2.755-1.734-5.524-4.323-8.151-7.633-2.24-2.823-4.422-6.201-6.438-10.038-3.486-3.752-6.673-8.196-8.174-13.346-1.497-5.136-1.325-10.631 1.733-16.318-4.606-11.607-9.261-24.672-13.794-37.302-4.533 12.63-9.188 25.695-13.794 37.302 3.057 5.686 3.23 11.182 1.733 16.318-1.501 5.149-4.688 9.594-8.174 13.346-2.016 3.837-4.198 7.215-6.438 10.038-5.588 7.043-12.118 11.417-21.108 10.672-4.394-.364-8.752-2.069-12.09-5.25-1.91-1.817-2.522-4.487-1.806-6.85l21.732-90.669.068-.26-.015-.004c8.457-30.043 8.239-60.238.689-90.875z" fill="#1e2f3f"/></g></svg>