<?xml version="1.0" encoding="UTF-8"?>
<svg xmlns="http://www.w3.org/2000/svg" id="Layer_3" data-name="Layer 3" viewBox="0 0 64 64" width="512" height="512"><path d="M35,21v5l6,3h4.172A6.826,6.826,0,0,1,50,31h0a6.825,6.825,0,0,1,2,4.828V38h0a9.324,9.324,0,0,1,3.874,5.5L56,44V33l-3.485-6.1a1.938,1.938,0,0,1-.051-1.829h0A1.94,1.94,0,0,1,54.2,24h0a4.761,4.761,0,0,1,4.163,2.449h0A28.928,28.928,0,0,1,62,40.494v7.263A4.242,4.242,0,0,1,57.757,52h0a4.243,4.243,0,0,1-3-1.243L44,40l-2.377,7.131A12.129,12.129,0,0,0,41,50.97h0a12.141,12.141,0,0,0,3.556,8.586L47,62H17l2.444-2.444A12.141,12.141,0,0,0,23,50.97h0a12.129,12.129,0,0,0-.623-3.839L20,40,9.243,50.757a4.243,4.243,0,0,1-3,1.243h0A4.242,4.242,0,0,1,2,47.757V40.494A28.928,28.928,0,0,1,5.639,26.449h0A4.761,4.761,0,0,1,9.8,24h0a1.94,1.94,0,0,1,1.734,1.072h0a1.938,1.938,0,0,1-.051,1.829L8,33V44l.126-.5A9.324,9.324,0,0,1,12,38h0V35.828A6.825,6.825,0,0,1,14,31h0a6.826,6.826,0,0,1,4.828-2H23l6-3V21Z" style="fill:#f2b9a1"/><path d="M22.377,47.131a12.075,12.075,0,0,1,.4,1.551,26.149,26.149,0,0,1,18.454,0,12.075,12.075,0,0,1,.4-1.551L44,40,41,29l-3.636-1.818L39,37H25l1.636-9.818L23,29,20,40Z" style="fill:#c45c91"/><path d="M58.361,26.449A4.761,4.761,0,0,0,54.2,24h0a1.939,1.939,0,0,0-1.683,2.9L56,33h5.005A28.935,28.935,0,0,0,58.361,26.449Z" style="fill:#964ea8"/><path d="M11.485,26.9A1.939,1.939,0,0,0,9.8,24h0a4.761,4.761,0,0,0-4.163,2.449A28.935,28.935,0,0,0,3,33H8Z" style="fill:#964ea8"/><path d="M29,25.122a5.564,5.564,0,0,0,6,0V21H29Z" style="fill:#d08d78"/><path d="M33,6l1.2-1.6A6,6,0,0,1,39,2h0a6,6,0,0,1,6,6v7.528A7.237,7.237,0,0,0,49,22H45a7.189,7.189,0,0,1-7.073-5.9L37,11Z" style="fill:#785349"/><ellipse cx="32" cy="15" rx="7" ry="9" style="fill:#f2b9a1"/><path d="M35,10h0a6.093,6.093,0,0,1-4.029,3.909L24,16V12a8,8,0,0,1,8-8h0a8,8,0,0,1,8,8v4Z" style="fill:#916658"/><path d="M24.667,28.167,23,39H41L39.182,28.091,37,27v7.066A1.934,1.934,0,0,1,35.066,36H28.934A1.934,1.934,0,0,1,27,34.066V27Z" style="fill:#d08d78"/><path d="M22.377,47.131A12.129,12.129,0,0,1,23,50.97h0c0,.156-.017.31-.023.465l1.177-.336a28.557,28.557,0,0,1,15.692,0l1.177.336c-.006-.155-.023-.309-.023-.465h0a12.129,12.129,0,0,1,.623-3.839L42,46H22Z" style="fill:#d08d78"/><path d="M22.377,47.131a12.075,12.075,0,0,1,.4,1.551L21,36,8.866,48.134a2.956,2.956,0,0,1-5.04-1.9L3,33H3a28.889,28.889,0,0,0-1,7.494v7.263a4.243,4.243,0,0,0,7.243,3L20,40Z" style="fill:#d08d78"/><path d="M60.174,46.23a2.956,2.956,0,0,1-5.04,1.9L43,36,41.227,48.682a12.075,12.075,0,0,1,.4-1.551L44,40,54.757,50.757a4.243,4.243,0,0,0,7.243-3V40.494A28.889,28.889,0,0,0,61.005,33h0Z" style="fill:#d08d78"/><path d="M22.377,47.131a12.075,12.075,0,0,1,.4,1.551,26.149,26.149,0,0,1,18.454,0,12.075,12.075,0,0,1,.4-1.551L44,40,41,29l-3.636-1.818L39,37H25l1.636-9.818L23,29,20,40Z" style="fill:#c45c91"/></svg>
