<svg viewBox="0 0 96 96" xmlns="http://www.w3.org/2000/svg"><g id="Layer_1"/><g id="Layer_2"/><g id="Layer_3"/><g id="Layer_4"><g><g><g><g><path d="m18.212 64.39c1.382.625 2.852 1.037 4.357 1.22 9.981 1.195 9.778 5.626 19.904 5.68 0 0 2.214.046 5.68.183 7.839.312 22.057 1.138 31.437 3.201l8.303 1.002c-.097-2.914-2.831-5.455-5.726-5.796h-2.663s-30.829-8.118-31.041-8.185c-3.384-1.085-1.444-.445-5.27-1.691 0 0-5.682-7.22-16.913-5.754-.941-.508-1.793-1.165-2.523-1.946-1.413-1.497-2.791-3.888-2.225-7.277.85-5.1-1.098-9.706-4.707-10.94l-3.157-.225c-5.332.828-7.491 4.414-7.451 11.9.022 4.282 2.058 9.692 5.635 13.8" fill="#ff738d"/></g></g><g><g><path d="m87.894 76.777c-.044 0-.088-.003-.132-.008l-8.303-1.002c-.035-.004-.07-.01-.105-.018-9.343-2.055-23.586-2.872-31.245-3.176-3.415-.135-5.638-.182-5.66-.183-5.648-.031-8.239-1.371-10.981-2.79-2.247-1.162-4.57-2.364-9.03-2.898-1.621-.198-3.194-.638-4.68-1.31-.553-.25-.799-.902-.549-1.455s.901-.799 1.455-.549c1.282.58 2.641.961 4.037 1.131 4.853.581 7.469 1.934 9.777 3.128 2.61 1.35 4.864 2.516 10 2.544.039.001 2.281.048 5.718.184 7.717.307 22.069 1.131 31.578 3.215l6.738.813c-.675-1.709-2.464-3.167-4.413-3.422h-2.595c-.094 0-.189-.012-.28-.036-9.277-2.443-30.879-8.132-31.095-8.201-1.373-.44-1.868-.596-2.228-.709-.53-.167-.772-.243-3.048-.984-.207-.067-.389-.195-.523-.365-.011-.014-1.377-1.708-4.015-3.202-3.516-1.992-7.516-2.712-11.892-2.141-.229.03-.461-.013-.664-.123-1.048-.565-1.992-1.293-2.804-2.163-1.501-1.59-3.157-4.309-2.506-8.208.753-4.518-.863-8.555-3.851-9.672l-2.881-.206c-3.878.637-6.443 2.749-6.399 10.788.022 4.23 2.127 9.366 5.364 13.084.399.458.351 1.152-.107 1.551s-1.153.351-1.551-.107c-3.618-4.155-5.88-9.718-5.905-14.516-.043-8.078 2.541-12.085 8.381-12.992.082-.013.165-.016.247-.01l3.157.225c.094.007.188.026.277.056 4.092 1.398 6.378 6.512 5.436 12.161-.404 2.416.249 4.549 1.94 6.341.575.616 1.229 1.14 1.949 1.565 10.367-1.203 16.13 4.584 17.326 5.941 1.991.648 2.231.724 2.73.881.36.113.855.269 2.22.707.71.196 20.377 5.377 30.865 8.139h2.52c.043 0 .086.003.128.008 3.581.422 6.585 3.495 6.697 6.851.011.321-.119.63-.356.847-.203.184-.469.286-.742.286z" fill="#29292b"/></g></g></g><g><g><g><path d="m87.893 75.677-8.303-1.002c-9.38-2.063-23.598-2.89-31.437-3.201-3.467-.137-5.68-.183-5.68-.183-10.126-.055-9.923-4.486-19.904-5.68-1.506-.183-2.976-.594-4.357-1.22l-.885-.671c3.837-2.525 7.027-6.813 8.812-9.549.048.029.093.055.141.081 11.231-1.466 16.913 5.754 16.913 5.754 3.826 1.246 1.886.607 5.27 1.691.213.068 31.041 8.185 31.041 8.185h2.662c2.896.34 5.63 2.882 5.727 5.795z" fill="#9783c9"/></g></g><g><g><path d="m87.893 76.777c-.044 0-.088-.003-.132-.008l-8.303-1.002c-.035-.004-.07-.01-.105-.018-9.34-2.055-23.585-2.872-31.245-3.177-3.417-.135-5.638-.182-5.66-.183-5.648-.031-8.239-1.371-10.981-2.79-2.247-1.162-4.57-2.364-9.03-2.898-1.625-.198-3.2-.639-4.681-1.311-.074-.034-.145-.076-.21-.125l-.885-.671c-.285-.215-.447-.556-.435-.913s.196-.686.494-.882c3.771-2.482 6.942-6.849 8.496-9.231.274-.421.789-.592 1.247-.449 10.394-1.221 16.169 4.578 17.365 5.936 1.991.648 2.231.724 2.73.881.36.113.855.269 2.221.707.712.196 20.377 5.377 30.865 8.139h2.52c.043 0 .086.003.128.008 3.581.421 6.585 3.495 6.697 6.851.011.321-.119.63-.356.847-.201.187-.466.289-.74.289zm-8.118-3.187 6.738.813c-.675-1.709-2.464-3.168-4.413-3.422h-2.595c-.094 0-.189-.012-.28-.036-9.278-2.443-30.879-8.132-31.095-8.201-1.374-.44-1.868-.596-2.228-.709-.53-.167-.772-.243-3.048-.984-.207-.067-.389-.195-.523-.365-.011-.014-1.377-1.708-4.015-3.202-3.439-1.949-7.344-2.68-11.608-2.176-1.77 2.641-4.338 5.943-7.411 8.349 1.091.431 2.234.721 3.408.864 4.854.581 7.469 1.934 9.777 3.128 2.61 1.35 4.864 2.516 10 2.544.039.001 2.281.048 5.718.184 7.716.305 22.069 1.13 31.575 3.213z" fill="#29292b"/></g></g></g><g><g><g><path d="m14.496 42.105c2.45-.052 4.439 1.968 4.35 4.417l-.986 26.979c.005.484-.383.881-.867.887l-7.388.099c-.112-1.906 1.547-3.775 3.553-4.182l.099-.02-2.901-23.394c-.31-2.507 1.615-4.732 4.14-4.786z" fill="#f9cec7"/></g></g><g><g><path d="m9.605 75.586c-.581 0-1.063-.453-1.097-1.035-.125-2.126 1.407-4.234 3.543-5.062l-2.785-22.463c-.186-1.503.275-3.022 1.266-4.167s2.427-1.821 3.941-1.853c1.488-.029 2.888.536 3.934 1.598s1.592 2.468 1.538 3.958l-.985 26.958c-.005 1.074-.875 1.953-1.952 1.967l-7.388.099c-.005 0-.01 0-.015 0zm4.915-32.381c-.907.019-1.732.407-2.325 1.093s-.858 1.559-.747 2.458l2.901 23.394c.071.57-.31 1.099-.873 1.213l-.099.02c-1.101.223-2.066 1.046-2.472 1.987l5.863-.079.98-26.809c.032-.879-.29-1.708-.907-2.335-.618-.626-1.444-.964-2.321-.942z" fill="#29292b"/></g></g></g><g><g><g><path d="m21.529 30.162c-1.205 3.247-4.814 4.902-8.061 3.697s-4.902-4.814-3.697-8.061c.014-.039.029-.078.045-.117l.55-1.442c1.235-3.233 4.857-4.853 8.091-3.618.002.001.005.002.007.003 3.233 1.235 4.853 4.857 3.618 8.091-.001.002-.002.005-.003.007z" fill="#f9cec7"/></g></g><g><g><path d="m15.643 35.351c-.85 0-1.714-.148-2.557-.461-3.81-1.414-5.759-5.664-4.345-9.474.017-.046.035-.091.052-.137l.545-1.431c1.45-3.795 5.717-5.704 9.51-4.253.004.001.008.003.013.005 1.835.703 3.288 2.078 4.09 3.872.803 1.796.859 3.798.157 5.636-.002.005-.005.014-.008.02l-.543 1.423c-1.102 2.963-3.922 4.8-6.914 4.8zm.576-14.045c-.717 0-1.433.151-2.108.453-1.26.564-2.225 1.584-2.718 2.873l-.549 1.441c-.017.043-.029.076-.042.108-.992 2.673.376 5.655 3.049 6.647 1.295.481 2.7.428 3.955-.148s2.212-1.606 2.692-2.901c.001-.003.002-.006.004-.009l.55-1.44c.002-.005.006-.014.008-.02.488-1.277.449-2.681-.115-3.941s-1.584-2.225-2.873-2.718c-.004-.002-.008-.003-.013-.005-.597-.226-1.22-.34-1.84-.34z" fill="#29292b"/></g></g></g><g><g><g><path d="m22.496 26.481c0 .742-.134 1.499-.414 2.234-.002.004-.002.005-.004.007l-.55 1.44c-.498 1.341-1.405 2.41-2.527 3.119l-2.203-4.671c-.167-.475-.163-.993.011-1.466.41-1.072-.125-2.276-1.198-2.686 0 0 0 0-.002 0l-4.304-1.873c1.653-2.089 4.53-2.963 7.152-1.963.002 0 .004.002.006.002 2.497.955 4.033 3.334 4.033 5.857z" fill="#5b6972"/></g></g><g><g><path d="m19.001 34.38c-.103 0-.206-.014-.307-.044-.303-.088-.553-.302-.687-.587l-2.203-4.671c-.016-.034-.03-.069-.043-.105-.251-.715-.245-1.499.017-2.21.098-.258.091-.524-.015-.764-.103-.232-.287-.411-.521-.506-.024-.009-.048-.018-.071-.028l-4.304-1.873c-.313-.136-.545-.41-.628-.741s-.008-.682.204-.949c2-2.528 5.368-3.457 8.386-2.315.009.003.017.006.026.01 2.835 1.084 4.74 3.85 4.74 6.883 0 .897-.164 1.78-.486 2.626-.005.013-.01.025-.015.037l-.538 1.41c-.565 1.519-1.592 2.787-2.966 3.656-.179.114-.383.171-.589.171zm-1.18-6.179 1.577 3.344c.478-.502.851-1.099 1.099-1.766l.553-1.449c.004-.012.009-.023.014-.035.22-.586.331-1.196.331-1.814 0-2.122-1.329-4.058-3.309-4.823-.008-.003-.015-.006-.022-.008-1.641-.626-3.43-.379-4.807.586l2.753 1.198c.79.304 1.415.898 1.76 1.672.346.776.369 1.639.065 2.432-.074.205-.08.442-.014.663zm4.26.514h.002z" fill="#29292b"/></g></g></g><g><g><g><path d="m24.266 24.396c.926.13 1.571.986 1.441 1.912l-.315 2.245c-.13.926-.986 1.571-1.912 1.441s-1.571-.986-1.441-1.912l.315-2.245c.13-.926.986-1.571 1.912-1.441z" fill="#5b6972"/></g></g><g><g><path d="m23.721 31.11c-.131 0-.262-.009-.394-.028-.739-.104-1.393-.489-1.842-1.084-.449-.596-.639-1.33-.535-2.069l.315-2.245c.214-1.525 1.626-2.591 3.154-2.377 1.525.214 2.591 1.629 2.377 3.154l-.315 2.245c-.104.739-.489 1.393-1.084 1.842-.49.368-1.074.562-1.676.562zm.309-5.631c-.291 0-.546.215-.588.511l-.315 2.245c-.022.157.018.313.114.44.095.127.234.208.392.231.156.022.313-.018.44-.114.127-.095.208-.234.231-.392l.315-2.245c.045-.324-.181-.625-.506-.671-.028-.003-.056-.005-.083-.005z" fill="#29292b"/></g></g></g><g><g><g><path d="m71.722 73.336.874-5.276c4.017 1.059 6.908 1.821 6.908 1.821h2.662c2.895.341 5.629 2.882 5.726 5.796l-8.303-1.002c-2.372-.522-5.056-.965-7.867-1.339z" fill="#f9cec7"/></g></g><g><g><path d="m87.893 76.777c-.044 0-.088-.003-.132-.008l-8.303-1.002c-.035-.004-.07-.01-.105-.018-2.203-.485-4.82-.93-7.777-1.323-.295-.039-.562-.196-.739-.436-.177-.239-.25-.54-.201-.834l.874-5.276c.05-.305.227-.575.487-.743s.578-.219.878-.14l6.77 1.785h2.52c.043 0 .086.003.128.008 3.581.421 6.585 3.495 6.697 6.851.011.321-.119.63-.356.847-.202.187-.468.289-.741.289zm-8.119-3.187 6.738.813c-.675-1.709-2.465-3.168-4.413-3.422h-2.595c-.095 0-.189-.012-.28-.036l-5.741-1.514-.492 2.969c2.54.36 4.817.759 6.783 1.19z" fill="#29292b"/></g></g></g><g><g><g><path d="m90.901 76.895c-.006 0-.012 0-.018 0l-85.801-1.389c-.607-.01-1.092-.51-1.082-1.117.01-.601.5-1.082 1.099-1.082h.018l85.801 1.389c.607.01 1.091.51 1.082 1.117-.01.601-.5 1.082-1.099 1.082z" fill="#29292b"/></g></g></g></g></g></svg>