<svg id="Layer_1" enable-background="new 0 0 491.52 491.52" height="512" viewBox="0 0 491.52 491.52" width="512" xmlns="http://www.w3.org/2000/svg"><g><path d="m128.49 226.26c54 0 97.77-43.77 97.77-97.77s-43.77-97.77-97.77-97.77-97.77 43.77-97.77 97.77 43.77 97.77 97.77 97.77zm55.51-58.64c7.94-8.87 12.28-20.28 12.28-32.18 0-2.65 2.15-4.8 4.8-4.8s4.8 2.15 4.8 4.8c0 14.29-5.22 27.91-14.76 38.56-1.76 1.97-4.78 2.14-6.75.38s-2.13-4.79-.37-6.76zm-55.51-91.99c29.19 0 52.86 23.67 52.86 52.86s-23.67 52.86-52.86 52.86-52.86-23.67-52.86-52.86 23.67-52.86 52.86-52.86z"/><path d="m128.49 171.76c23.89 0 43.26-19.37 43.26-43.26 0-56.96-86.53-56.96-86.53 0 .01 23.89 19.38 43.26 43.27 43.26z"/><path d="m305 172.71c13.48-1.07 27.23.78 40.27 5.68 2.47.93 3.73 3.69 2.79 6.17-.93 2.47-3.69 3.73-6.17 2.79-12.75-4.79-26.27-6.33-39.44-4.75-39.7 4.75-70.27 36.84-73.56 76.18 2.5-.29 5.02-.49 7.54-.58 15.37-.58 30.88 2.54 45.13 9.39 17.86 8.59 23.62 11.85 44.92 12.7 2.64.1 4.7 2.33 4.59 4.97-.1 2.64-2.33 4.7-4.97 4.59-23.43-.93-28.46-3.93-48.67-13.64-12.83-6.17-26.81-8.98-40.67-8.46-13.82.52-27.53 4.36-39.89 11.5-11.86 6.85-22.53 16.96-29.82 28.05-8.47-10.97-26.75-30.92-39.88-34.03-8.59-2.03-18.42-23.04-24.09-40.44-28.35-6.87-52.3-24.99-66.86-49.37-6.35 19.62-7.23 51.75-2.64 96.38 12.42 94.41 33.87 153.19 64.36 176.35 17.18 5.57 40.23 6.09 69.16 1.56 64.19-6.22 119.82-35.27 166.91-87.15 28.3-31.18 9.24-15.65 51.01 2.1l75.78-43.75v-260.3c-118.89-4.97-158.44 65.46-155.8 104.06zm-83.14 240.94c-11.78 7.52-30.99-.48-42.23-5.87-2.38-1.14-3.39-3.99-2.25-6.38s3.99-3.39 6.38-2.25c7.27 3.49 25.19 11.4 32.97 6.43 2.23-1.42 5.18-.76 6.6 1.46s.75 5.19-1.47 6.61zm78.09-72.71c-3.94 14.81-10.46 31.14-22.15 41.56-1.98 1.76-5.01 1.58-6.77-.39s-1.58-5.01.39-6.77c10.14-9.04 15.85-24 19.26-36.83.67-2.56 3.29-4.09 5.85-3.41 2.56.66 4.09 3.28 3.42 5.84z"/></g></svg>