<svg id="Layer_1" enable-background="new 0 0 500 500" viewBox="0 0 500 500" xmlns="http://www.w3.org/2000/svg"><path clip-rule="evenodd" d="m388.2 360.206-38.565-102.463 10.884-101.677c.396-3.686-2.273-6.994-5.954-7.39-3.686-.402-6.999 2.273-7.39 5.959l-15 140.074h-2.035c-14.691-44.857-27.421-91.228-48.097-133.48 18.618-23.404 36.072-47.632 48.719-65.552l53.514 27.154 71.866 218.542zm-95.036-52.077 40.691 29.131-1.114-7.891-.955-21.24zm54.141 80.445 10.646-17.56-86.374-61.839-11.031 8.956zm-193.876 39.196h193.136l-3.567-25.416-52.553-42.667h-81.082l-52.344 42.497zm76.259-119.641h21.88l-99.078 80.446-10.646-17.56zm-62.436 21.239-1.091 7.73 40.47-28.97h-38.424zm-55.458 30.838 38.565-102.463-10.884-101.677c-.396-3.686 2.273-6.994 5.953-7.39 3.68-.402 6.988 2.273 7.39 5.959l15 140.074h115.028c-26.833-75.55-49.479-149.53-114.576-198.548l-52.547 26.671-71.872 218.542zm138.106-33.433 24.012 19.495h-48.024zm-57.301-252.646-13.468 13.463c67.006 52.136 90.242 129.17 117.951 207.119h18.941c-26.385-81.331-47.941-169.749-123.424-220.582zm20.218-1.897c18.036 14.135 32.815 30.372 45.248 48.043 11.992-14.806 24.962-31.178 37.05-48.043zm53.033 59.754c3.319 5.276 6.457 10.672 9.436 16.156 17.284-22.017 33.358-44.365 45.101-61.022l-11.336-11.337c-14.027 19.915-29.371 39.178-43.201 56.203zm205.23 211.877-74.925-227.855c-.554-1.683-1.753-3.088-3.336-3.883l-57.766-29.319-22.027-22.034c-1.261-1.252-2.968-1.958-4.749-1.958h-116.555c-1.781 0-3.489.706-4.755 1.958l-22.022 22.035-57.771 29.319c-1.583.795-2.782 2.199-3.336 3.883l-74.924 227.854c-1.191 3.63.887 7.546 4.579 8.562l80.63 22.357c3.341.921 6.841-.859 8.062-4.106l31.351-83.281 1.521 14.241-1.142 26.186-2.821 20.067-22.112 15.826c-2.844 2.05-3.652 5.941-1.838 8.938l16.622 27.411-4.704 33.479c-.562 4.035 2.569 7.648 6.649 7.648h208.577c4.071 0 7.212-3.607 6.643-7.648l-4.738-33.729 16.458-27.16c1.821-2.997 1.024-6.888-1.832-8.938l-21.903-15.674-2.844-20.219-1.136-26.186 1.521-14.241 31.351 83.281c1.241 3.301 4.761 5.009 8.068 4.106l80.624-22.357c3.682-1.014 5.791-4.935 4.58-8.563z" fill-rule="evenodd"/></svg>