<svg id="Layer_1" enable-background="new 0 0 66 66" height="512" viewBox="0 0 66 66" width="512" xmlns="http://www.w3.org/2000/svg"><g><path d="m49.5 31c-6.08 0-11 4.92-11 11s4.92 11 11 11c6.07 0 11-4.92 11-11s-4.93-11-11-11zm0 10c2.1 0 3.8 1.7 3.8 3.8 0 1.75-1.19 3.21-2.8 3.65v.55c0 .55-.45 1-1 1s-1-.45-1-1v-.55c-1.61-.44-2.8-1.9-2.8-3.65 0-.55.45-1 1-1s1 .45 1 1c0 .99.81 1.8 1.8 1.8s1.8-.81 1.8-1.8-.81-1.8-1.8-1.8c-2.1 0-3.8-1.7-3.8-3.8 0-1.75 1.19-3.21 2.8-3.65v-.55c0-.55.45-1 1-1s1 .45 1 1v.55c1.61.44 2.8 1.9 2.8 3.65 0 .55-.45 1-1 1s-1-.45-1-1c0-.99-.81-1.8-1.8-1.8s-1.8.81-1.8 1.8.81 1.8 1.8 1.8z"/><path d="m47.5 54.83v1.17c0 2.21-1.79 4-4 4h-32v2c0 1.1.9 2 2 2h36c1.1 0 2-.9 2-2v-7.17c-.65.1-1.32.17-2 .17s-1.35-.07-2-.17z"/><path d="m51.5 29.17v-19.17c0-1.1-.9-2-2-2h-2v21.17c.65-.1 1.32-.17 2-.17s1.35.07 2 .17z"/><path d="m12.79 14.71c.2.2.45.29.71.29s.51-.1.71-.29l3-3c.39-.39.39-1.02 0-1.41s-1.02-.39-1.41 0l-2.29 2.29-.29-.29c-.39-.39-1.02-.39-1.41 0s-.39 1.02 0 1.41z"/><path d="m12.79 29.71c.2.2.45.29.71.29s.51-.1.71-.29l3-3c.39-.39.39-1.02 0-1.41s-1.02-.39-1.41 0l-2.29 2.29-.29-.29c-.39-.39-1.02-.39-1.41 0s-.39 1.02 0 1.41z"/><path d="m12.79 44.71c.2.2.45.29.71.29s.51-.1.71-.29l3-3c.39-.39.39-1.02 0-1.41s-1.02-.39-1.41 0l-2.29 2.29-.29-.29c-.39-.39-1.02-.39-1.41 0s-.39 1.02 0 1.41z"/><path d="m45.5 56v-1.64c-5.22-1.69-9-6.59-9-12.36s3.78-10.67 9-12.36v-25.64c0-1.1-.9-2-2-2h-36c-1.1 0-2 .9-2 2v52c0 1.1.9 2 2 2h36c1.1 0 2-.9 2-2zm-22-44h18c.55 0 1 .45 1 1s-.45 1-1 1h-18c-.55 0-1-.45-1-1s.45-1 1-1zm0 4h12c.55 0 1 .45 1 1s-.45 1-1 1h-12c-.55 0-1-.45-1-1s.45-1 1-1zm0 11h18c.55 0 1 .45 1 1s-.45 1-1 1h-18c-.55 0-1-.45-1-1s.45-1 1-1zm-4 21h-10v-10h10zm0-15h-10v-10h10zm0-15h-10v-10h10zm11 30h-7c-.55 0-1-.45-1-1s.45-1 1-1h7c.55 0 1 .45 1 1s-.45 1-1 1zm3-4h-10c-.55 0-1-.45-1-1s.45-1 1-1h10c.55 0 1 .45 1 1s-.45 1-1 1zm2-11h-12c-.55 0-1-.45-1-1s.45-1 1-1h12c.55 0 1 .45 1 1s-.45 1-1 1z"/></g></svg>