<?xml version="1.0" encoding="UTF-8"?>
<svg xmlns="http://www.w3.org/2000/svg" id="icons" viewBox="0 0 60 60" width="512" height="512"><path d="M38.5,39A1.5,1.5,0,0,0,40,37.5v-7a1.5,1.5,0,0,0-3,0v7A1.5,1.5,0,0,0,38.5,39Z"/><path d="M15,33a1,1,0,0,1,0,2H13.051A16.994,16.994,0,0,0,29,50.949V49a1,1,0,0,1,2,0v1.949A16.994,16.994,0,0,0,46.949,35H45a1,1,0,0,1,0-2h1.949A16.994,16.994,0,0,0,31,17.051V19a1,1,0,0,1-2,0V17.051A16.994,16.994,0,0,0,13.051,33Zm20-2.5a3.5,3.5,0,0,1,7,0v7a3.5,3.5,0,0,1-7,0ZM28,29a2,2,0,0,1,2-2h3a1,1,0,0,1,0,2H30v4h2a1,1,0,0,1,0,2H30v4h3a1,1,0,0,1,0,2H30a2,2,0,0,1-2-2Zm-6,6a4,4,0,1,1,4-4,1,1,0,0,1-2,0,2,2,0,1,0-2,2,4,4,0,1,1-4,4,1,1,0,0,1,2,0,2,2,0,1,0,2-2Z"/><path d="M2,56a2,2,0,0,0,2,2H56a2,2,0,0,0,2-2V10H2ZM52.4,39.227A23.122,23.122,0,0,1,35.227,56.4.946.946,0,0,1,35,56.43a1,1,0,0,1-.226-1.974A21.113,21.113,0,0,0,50.456,38.773a1,1,0,1,1,1.947.454ZM34.026,12.344a.993.993,0,0,1,1.2-.747A23.122,23.122,0,0,1,52.4,28.773a1,1,0,0,1-.747,1.2.983.983,0,0,1-.227.026,1,1,0,0,1-.973-.773A21.113,21.113,0,0,0,34.773,13.544,1,1,0,0,1,34.026,12.344ZM29,13a1,1,0,0,1,2,0v2.051A18.993,18.993,0,0,1,48.949,33H51a1,1,0,0,1,0,2H48.949A18.993,18.993,0,0,1,31,52.949V55a1,1,0,0,1-2,0V52.949A18.993,18.993,0,0,1,11.051,35H9a1,1,0,0,1,0-2h2.051A18.993,18.993,0,0,1,29,15.051ZM7.6,28.773A23.122,23.122,0,0,1,24.773,11.6a1,1,0,1,1,.454,1.947A21.113,21.113,0,0,0,9.544,29.227,1,1,0,0,1,8.571,30a.983.983,0,0,1-.227-.026A1,1,0,0,1,7.6,28.773Zm.747,9.253a1,1,0,0,1,1.2.747A21.113,21.113,0,0,0,25.227,54.456,1,1,0,0,1,25,56.43a.946.946,0,0,1-.228-.027A23.122,23.122,0,0,1,7.6,39.227,1,1,0,0,1,8.344,38.026Z"/><path d="M56,2H4A2,2,0,0,0,2,4V8H58V4A2,2,0,0,0,56,2ZM6,6H5A1,1,0,0,1,5,4H6A1,1,0,0,1,6,6Zm5,0H10a1,1,0,0,1,0-2h1a1,1,0,0,1,0,2Zm5,0H15a1,1,0,0,1,0-2h1a1,1,0,0,1,0,2ZM55,6H49a1,1,0,0,1,0-2h6a1,1,0,0,1,0,2Z"/></svg>
