<svg height="512" viewBox="0 0 96 96" width="512" xmlns="http://www.w3.org/2000/svg"><g id="Teamwork"><path d="m81.71 53.55-23 23-6.46-6.46a16.19 16.19 0 0 0 12.07-4.76l14.59-14.58z"/><path d="m58.29 23a1 1 0 0 1 -.71-1.7l3.94-3.94a1 1 0 1 1 1.41 1.41l-3.93 3.98a1 1 0 0 1 -.71.25z"/><path d="m62.8 34a1 1 0 0 1 -.71-1.71l3.91-3.91a1 1 0 1 1 1.42 1.42l-3.94 3.94a1 1 0 0 1 -.68.26z"/><path d="m67 45.34a1 1 0 0 1 -.7-1.71l3.93-3.94a1 1 0 0 1 1.42 0 1 1 0 0 1 0 1.41l-3.95 3.9a1 1 0 0 1 -.7.34z"/><path d="m78.51 48.32-15.58 15.57a14.27 14.27 0 0 1 -11.93 4.11l-2.81-.37a8 8 0 0 0 -6.68 2.27l-4.2 4.2c-.09-.1-23.23-23.29-23.31-23.29l.07-.07a7.48 7.48 0 0 0 12.64-5.4 2.81 2.81 0 0 0 0-.29 1.32 1.32 0 0 0 .28 0 7.48 7.48 0 0 0 7.47-7.77 1.32 1.32 0 0 0 .28 0 7.47 7.47 0 0 0 7.47-7.78 1.32 1.32 0 0 0 .28 0 7.47 7.47 0 0 0 5.4-12.63l8.11-8.06a5.48 5.48 0 0 1 8.11.4 5.65 5.65 0 0 1 -.53 7.52l-1.35 1.37a5.5 5.5 0 0 1 8.12.4 5.65 5.65 0 0 1 -.54 7.5l-3.07 3.07a5.47 5.47 0 0 1 8.11.4 5.64 5.64 0 0 1 -.53 7.53l-3.38 3.38a5.49 5.49 0 0 1 8.1.4 5.65 5.65 0 0 1 -.53 7.54z"/><rect height="15.72" rx="1.83" transform="matrix(.707 .707 -.707 .707 54.55 7.12)" width="36.48" x=".44" y="61.55"/><path d="m94.48 63.25-8.48-8.52a1.82 1.82 0 0 0 -2.59 0l-23.2 23.2a1.82 1.82 0 0 0 0 2.59l8.48 8.48a1.82 1.82 0 0 0 2.59 0l23.2-23.2a1.82 1.82 0 0 0 0-2.55zm-24.01 18.75a3.24 3.24 0 1 1 3.24-3.24 3.24 3.24 0 0 1 -3.24 3.24z"/><path d="m46.38 26a5.48 5.48 0 0 1 -7.75 0l-10.19-10.23a5.48 5.48 0 1 1 7.78-7.72.87.87 0 0 0 -.11.18 4.89 4.89 0 0 0 1 5.68l3.19 3.21a7.29 7.29 0 0 0 6.8 1.93 5.49 5.49 0 0 1 -.72 6.95z"/><path d="m38.63 33.71a5.46 5.46 0 0 1 -7.75 0c-7-7-5.55-5.53-8.67-8.67a5.48 5.48 0 0 1 7.85-7.64l8.57 8.6a5.5 5.5 0 0 1 0 7.71z"/><path d="m30.88 41.46a5.49 5.49 0 0 1 -7.76 0l-7-7.05a5.48 5.48 0 0 1 7.79-7.71l7 7a5.48 5.48 0 0 1 -.03 7.76z"/><path d="m23.12 49.21a5.48 5.48 0 0 1 -7.75 0l-3-3a5.48 5.48 0 1 1 7.75-7.76l3 3a5.46 5.46 0 0 1 0 7.76z"/><path d="m53.08 8.93-8.28 8.27a5.29 5.29 0 0 1 -3.13-1.5l-3.18-3.2a3 3 0 0 1 2.09-5h10a2.74 2.74 0 0 1 2.5 1.43z"/></g></svg>