<svg id="Layer" height="512" viewBox="0 0 24 24" width="512" xmlns="http://www.w3.org/2000/svg"><g id="user-shield"><path d="m6.009 6.5a4 4 0 1 1 4 4 4 4 0 0 1 -4-4zm8.571 7.39c.13-.04.25-.08.36-.11a.293.293 0 0 0 .23-.29.28.28 0 0 0 -.09-.21 1.3 1.3 0 0 0 -.13-.08 5.848 5.848 0 0 0 -2.95-.7h-4c-4.06 0-5.5 2.97-5.5 5.52 0 2.28 1.21 3.48 3.5 3.48h8c.12 0 .23 0 .34-.01.241-.008.33-.15.33-.3a.392.392 0 0 0 -.09-.21 5.782 5.782 0 0 1 -1.08-3.42v-2.23a1.509 1.509 0 0 1 1.08-1.44zm3.855.11a17.391 17.391 0 0 1 -3.435 1.333v2.223a4.806 4.806 0 0 0 3.429 4.444 4.806 4.806 0 0 0 3.428-4.444v-2.281a14.406 14.406 0 0 1 -3.422-1.275z" fill="rgb(0,0,0)"/></g></svg>