<svg width="24" height="24" viewBox="0 0 24 24" fill="none" xmlns="http://www.w3.org/2000/svg">
  <path d="M12.04 2C6.61 2 2.21 6.42 2.21 11.86C2.21 13.88 2.82 15.81 3.95 17.43L2.25 22L6.94 20.33C8.46 21.2 10.21 21.71 12.04 21.71C17.47 21.71 21.89 17.29 21.89 11.86C21.89 6.42 17.47 2 12.04 2Z" fill="#25D366"></path>
  <path d="M16.56 14.45C16.33 14.33 15.19 13.76 14.96 13.67C14.74 13.58 14.58 13.54 14.43 13.76C14.28 13.98 13.88 14.45 13.77 14.61C13.67 14.76 13.57 14.78 13.34 14.66C13.11 14.53 12.38 14.28 11.59 13.65C10.93 13.11 10.46 12.42 10.33 12.19C10.2 11.96 10.32 11.86 10.44 11.74C10.54 11.64 10.66 11.49 10.78 11.34C10.9 11.19 10.94 11.09 11.03 10.92C11.12 10.74 11.08 10.59 11 10.46C10.91 10.33 10.38 9.16 10.16 8.72C9.95 8.29 9.73 8.36 9.56 8.36C9.4 8.36 9.23 8.34 9.07 8.34C8.9 8.34 8.66 8.39 8.48 8.59C8.29 8.8 7.77 9.32 7.77 10.48C7.77 11.65 8.7 12.78 8.82 12.94C8.94 13.09 10.37 15.06 12.66 16.13C13.15 16.35 13.55 16.49 13.86 16.61C14.51 16.86 15.08 16.85 15.53 16.79C16.05 16.72 17.11 16.12 17.3 15.5C17.49 14.88 17.49 14.41 17.42 14.3C17.34 14.19 16.78 14.56 16.56 14.45Z" fill="white"></path>
</svg>
