<svg id="visual" viewBox="0 0 960 540" width="960" height="540" xmlns="http://www.w3.org/2000/svg" xmlns:xlink="http://www.w3.org/1999/xlink" version="1.1"><rect x="0" y="0" width="960" height="540" fill="#14182b"></rect><g transform="translate(481.5899789965505 261.88349630390337)"><path d="M103.2 -151C127.6 -124.3 137 -85.9 153.3 -47.1C169.6 -8.3 192.7 30.9 194.8 75.2C196.8 119.6 177.8 169 141.8 190C105.8 211 52.9 203.5 12.4 186.4C-28 169.2 -56 142.5 -94.4 122.3C-132.8 102.1 -181.5 88.4 -194.4 60.4C-207.3 32.3 -184.5 -10.1 -159.4 -40.8C-134.2 -71.4 -106.8 -90.3 -79.9 -116.2C-52.9 -142.2 -26.5 -175.1 6.5 -184C39.4 -192.9 78.8 -177.7 103.2 -151" fill="#3f4a60"></path></g></svg>