<svg id="visual" viewBox="0 0 960 540" width="960" height="540" xmlns="http://www.w3.org/2000/svg" xmlns:xlink="http://www.w3.org/1999/xlink" version="1.1"><rect x="0" y="0" width="960" height="540" fill="#e4e6ec"></rect><path d="M0 130L20 129.5C40 129 80 128 120 138.5C160 149 200 171 240 166.3C280 161.7 320 130.3 360 133C400 135.7 440 172.3 480 177.7C520 183 560 157 600 153.7C640 150.3 680 169.7 720 174.3C760 179 800 169 840 167.3C880 165.7 920 172.3 940 175.7L960 179L960 0L940 0C920 0 880 0 840 0C800 0 760 0 720 0C680 0 640 0 600 0C560 0 520 0 480 0C440 0 400 0 360 0C320 0 280 0 240 0C200 0 160 0 120 0C80 0 40 0 20 0L0 0Z" fill="#768198"></path><path d="M0 62L20 64.7C40 67.3 80 72.7 120 75.5C160 78.3 200 78.7 240 82.8C280 87 320 95 360 100.7C400 106.3 440 109.7 480 111.8C520 114 560 115 600 108.5C640 102 680 88 720 84.5C760 81 800 88 840 95.3C880 102.7 920 110.3 940 114.2L960 118L960 0L940 0C920 0 880 0 840 0C800 0 760 0 720 0C680 0 640 0 600 0C560 0 520 0 480 0C440 0 400 0 360 0C320 0 280 0 240 0C200 0 160 0 120 0C80 0 40 0 20 0L0 0Z" fill="#3f4a60"></path></svg>