<svg id="visual" viewBox="0 0 960 540" width="960" height="540" xmlns="http://www.w3.org/2000/svg" xmlns:xlink="http://www.w3.org/1999/xlink" version="1.1"><rect x="0" y="0" width="960" height="540" fill="#fff"></rect><defs><linearGradient id="grad1_0" x1="43.8%" y1="0%" x2="100%" y2="100%"><stop offset="14.444444444444446%" stop-color="#ffffff" stop-opacity="1"></stop><stop offset="85.55555555555554%" stop-color="#ffffff" stop-opacity="1"></stop></linearGradient></defs><defs><linearGradient id="grad2_0" x1="0%" y1="0%" x2="56.3%" y2="100%"><stop offset="14.444444444444446%" stop-color="#ffffff" stop-opacity="1"></stop><stop offset="85.55555555555554%" stop-color="#ffffff" stop-opacity="1"></stop></linearGradient></defs><g transform="translate(960, 0)"><path d="M0 108C-18.5 104.6 -36.9 101.2 -53.5 92.7C-70.1 84.1 -84.8 70.3 -93.5 54C-102.3 37.7 -105.1 18.8 -108 0L0 0Z" fill="#f5c84b"></path></g><g transform="translate(0, 540)"><path d="M0 -108C19.9 -105.7 39.8 -103.5 54 -93.5C68.2 -83.6 76.8 -65.9 84.9 -49C92.9 -32.1 100.5 -16.1 108 0L0 0Z" fill="#f5c84b"></path></g></svg>