<svg id="visual" viewBox="0 0 900 600" width="900" height="600" xmlns="http://www.w3.org/2000/svg" xmlns:xlink="http://www.w3.org/1999/xlink" version="1.1"><rect x="0" y="0" width="900" height="600" fill="#14182b"></rect><g transform="translate(422.05548085864535 319.9498224719379)"><path d="M160.2 -218.8C202.8 -189.5 229.3 -136.3 226.6 -87.2C223.8 -38.1 191.8 6.9 173.1 53.7C154.3 100.4 148.9 148.9 122.2 177.3C95.6 205.6 47.8 213.8 8.2 202.5C-31.3 191.1 -62.7 160.3 -95 133.8C-127.4 107.3 -160.7 85.2 -168.8 55.9C-176.9 26.6 -159.8 -9.9 -147.5 -48C-135.3 -86.2 -127.9 -126 -104.1 -161.5C-80.3 -196.9 -40.2 -227.9 9.3 -240.8C58.8 -253.6 117.6 -248.1 160.2 -218.8" fill="#3f4a60"></path></g></svg>