<svg id="visual" viewBox="0 0 900 600" width="900" height="600" xmlns="http://www.w3.org/2000/svg" xmlns:xlink="http://www.w3.org/1999/xlink" version="1.1"><rect x="0" y="0" width="900" height="600" fill="#14182b"></rect><path d="M0 550L18.8 548.2C37.7 546.3 75.3 542.7 112.8 542.8C150.3 543 187.7 547 225.2 549.2C262.7 551.3 300.3 551.7 337.8 544.8C375.3 538 412.7 524 450.2 524C487.7 524 525.3 538 562.8 545.8C600.3 553.7 637.7 555.3 675.2 550.8C712.7 546.3 750.3 535.7 787.8 533.2C825.3 530.7 862.7 536.3 881.3 539.2L900 542L900 601L881.3 601C862.7 601 825.3 601 787.8 601C750.3 601 712.7 601 675.2 601C637.7 601 600.3 601 562.8 601C525.3 601 487.7 601 450.2 601C412.7 601 375.3 601 337.8 601C300.3 601 262.7 601 225.2 601C187.7 601 150.3 601 112.8 601C75.3 601 37.7 601 18.8 601L0 601Z" fill="#3f4a60" stroke-linecap="round" stroke-linejoin="miter"></path></svg>