<svg id="visual" viewBox="0 0 900 600" width="900" height="600" xmlns="http://www.w3.org/2000/svg" xmlns:xlink="http://www.w3.org/1999/xlink" version="1.1"><g><g transform="translate(45 223)"><path d="M0 -45.8L35.8 -28.5L44.6 10.2L19.9 41.2L-19.9 41.2L-44.6 10.2L-35.8 -28.5Z" fill="#bfa24a"></path></g><g transform="translate(152 160)"><path d="M0 -32L25 -20L31.2 7.1L13.9 28.8L-13.9 28.8L-31.2 7.1L-25 -20Z" fill="#bfa24a"></path></g><g transform="translate(557 138)"><path d="M0 -28L21.9 -17.5L27.3 6.2L12.1 25.2L-12.1 25.2L-27.3 6.2L-21.9 -17.5Z" fill="#bfa24a"></path></g><g transform="translate(423 165)"><path d="M0 -31L24.2 -19.3L30.2 6.9L13.5 27.9L-13.5 27.9L-30.2 6.9L-24.2 -19.3Z" fill="#bfa24a"></path></g><g transform="translate(466 562)"><path d="M0 -39L30.5 -24.3L38 8.7L16.9 35.1L-16.9 35.1L-38 8.7L-30.5 -24.3Z" fill="#bfa24a"></path></g><g transform="translate(211 430)"><path d="M0 -31L24.2 -19.3L30.2 6.9L13.5 27.9L-13.5 27.9L-30.2 6.9L-24.2 -19.3Z" fill="#bfa24a"></path></g><g transform="translate(128 577)"><path d="M0 -32L25 -20L31.2 7.1L13.9 28.8L-13.9 28.8L-31.2 7.1L-25 -20Z" fill="#bfa24a"></path></g><g transform="translate(145 285)"><path d="M0 -40L31.3 -24.9L39 8.9L17.4 36L-17.4 36L-39 8.9L-31.3 -24.9Z" fill="#bfa24a"></path></g><g transform="translate(864 315)"><path d="M0 -43L33.6 -26.8L41.9 9.6L18.7 38.7L-18.7 38.7L-41.9 9.6L-33.6 -26.8Z" fill="#bfa24a"></path></g><g transform="translate(890 418)"><path d="M0 -35L27.4 -21.8L34.1 7.8L15.2 31.5L-15.2 31.5L-34.1 7.8L-27.4 -21.8Z" fill="#bfa24a"></path></g><g transform="translate(310 363)"><path d="M0 -27L21.1 -16.8L26.3 6L11.7 24.3L-11.7 24.3L-26.3 6L-21.1 -16.8Z" fill="#bfa24a"></path></g><g transform="translate(502 267)"><path d="M0 -23L18 -14.3L22.4 5.1L10 20.7L-10 20.7L-22.4 5.1L-18 -14.3Z" fill="#bfa24a"></path></g><g transform="translate(835 531)"><path d="M0 -36L28.1 -22.4L35.1 8L15.6 32.4L-15.6 32.4L-35.1 8L-28.1 -22.4Z" fill="#bfa24a"></path></g><g transform="translate(692 274)"><path d="M0 -31L24.2 -19.3L30.2 6.9L13.5 27.9L-13.5 27.9L-30.2 6.9L-24.2 -19.3Z" fill="#bfa24a"></path></g><g transform="translate(86 451)"><path d="M0 -26L20.3 -16.2L25.3 5.8L11.3 23.4L-11.3 23.4L-25.3 5.8L-20.3 -16.2Z" fill="#bfa24a"></path></g><g transform="translate(317 561)"><path d="M0 -25L19.5 -15.6L24.4 5.6L10.8 22.5L-10.8 22.5L-24.4 5.6L-19.5 -15.6Z" fill="#bfa24a"></path></g><g transform="translate(600 370)"><path d="M0 -30L23.5 -18.7L29.2 6.7L13 27L-13 27L-29.2 6.7L-23.5 -18.7Z" fill="#bfa24a"></path></g><g transform="translate(764 408)"><path d="M0 -43L33.6 -26.8L41.9 9.6L18.7 38.7L-18.7 38.7L-41.9 9.6L-33.6 -26.8Z" fill="#bfa24a"></path></g><g transform="translate(593 588)"><path d="M0 -29L22.7 -18.1L28.3 6.5L12.6 26.1L-12.6 26.1L-28.3 6.5L-22.7 -18.1Z" fill="#bfa24a"></path></g><g transform="translate(293 113)"><path d="M0 -31L24.2 -19.3L30.2 6.9L13.5 27.9L-13.5 27.9L-30.2 6.9L-24.2 -19.3Z" fill="#bfa24a"></path></g><g transform="translate(36 323)"><path d="M0 -29L22.7 -18.1L28.3 6.5L12.6 26.1L-12.6 26.1L-28.3 6.5L-22.7 -18.1Z" fill="#bfa24a"></path></g><g transform="translate(589 14)"><path d="M0 -33L25.8 -20.6L32.2 7.3L14.3 29.7L-14.3 29.7L-32.2 7.3L-25.8 -20.6Z" fill="#bfa24a"></path></g><g transform="translate(83 69)"><path d="M0 -22L17.2 -13.7L21.4 4.9L9.5 19.8L-9.5 19.8L-21.4 4.9L-17.2 -13.7Z" fill="#bfa24a"></path></g><g transform="translate(451 44)"><path d="M0 -23L18 -14.3L22.4 5.1L10 20.7L-10 20.7L-22.4 5.1L-18 -14.3Z" fill="#bfa24a"></path></g><g transform="translate(664 141)"><path d="M0 -43L33.6 -26.8L41.9 9.6L18.7 38.7L-18.7 38.7L-41.9 9.6L-33.6 -26.8Z" fill="#bfa24a"></path></g><g transform="translate(594 230)"><path d="M0 -42L32.8 -26.2L40.9 9.3L18.2 37.8L-18.2 37.8L-40.9 9.3L-32.8 -26.2Z" fill="#bfa24a"></path></g><g transform="translate(399 405)"><path d="M0 -36L28.1 -22.4L35.1 8L15.6 32.4L-15.6 32.4L-35.1 8L-28.1 -22.4Z" fill="#bfa24a"></path></g><g transform="translate(199 47)"><path d="M0 -30L23.5 -18.7L29.2 6.7L13 27L-13 27L-29.2 6.7L-23.5 -18.7Z" fill="#bfa24a"></path></g><g transform="translate(780 222)"><path d="M0 -39L30.5 -24.3L38 8.7L16.9 35.1L-16.9 35.1L-38 8.7L-30.5 -24.3Z" fill="#bfa24a"></path></g><g transform="translate(339 238)"><path d="M0 -26L20.3 -16.2L25.3 5.8L11.3 23.4L-11.3 23.4L-25.3 5.8L-20.3 -16.2Z" fill="#bfa24a"></path></g><g transform="translate(799 113)"><path d="M0 -29L22.7 -18.1L28.3 6.5L12.6 26.1L-12.6 26.1L-28.3 6.5L-22.7 -18.1Z" fill="#bfa24a"></path></g><g transform="translate(584 480)"><path d="M0 -24L18.8 -15L23.4 5.3L10.4 21.6L-10.4 21.6L-23.4 5.3L-18.8 -15Z" fill="#bfa24a"></path></g><g transform="translate(701 483)"><path d="M0 -34L26.6 -21.2L33.1 7.6L14.8 30.6L-14.8 30.6L-33.1 7.6L-26.6 -21.2Z" fill="#bfa24a"></path></g><g transform="translate(899 138)"><path d="M0 -37L28.9 -23.1L36.1 8.2L16.1 33.3L-16.1 33.3L-36.1 8.2L-28.9 -23.1Z" fill="#bfa24a"></path></g><g transform="translate(693 588)"><path d="M0 -35L27.4 -21.8L34.1 7.8L15.2 31.5L-15.2 31.5L-34.1 7.8L-27.4 -21.8Z" fill="#bfa24a"></path></g><g transform="translate(300 9)"><path d="M0 -39L30.5 -24.3L38 8.7L16.9 35.1L-16.9 35.1L-38 8.7L-30.5 -24.3Z" fill="#bfa24a"></path></g><g transform="translate(860 18)"><path d="M0 -27L21.1 -16.8L26.3 6L11.7 24.3L-11.7 24.3L-26.3 6L-21.1 -16.8Z" fill="#bfa24a"></path></g><g transform="translate(693 12)"><path d="M0 -35L27.4 -21.8L34.1 7.8L15.2 31.5L-15.2 31.5L-34.1 7.8L-27.4 -21.8Z" fill="#bfa24a"></path></g></g></svg>