<svg id="Capa_1" enable-background="new 0 0 512 512" height="512" viewBox="0 0 512 512" width="512" xmlns="http://www.w3.org/2000/svg"><g><path d="m471.327 263.097c6.994-8.677 11.194-19.695 11.194-31.681v-148.733c0-27.886-22.687-50.573-50.573-50.573h-148.733c-27.886 0-50.573 22.687-50.573 50.573v148.733c0 24.498 17.511 44.977 40.673 49.594-6.994 8.676-11.194 19.695-11.194 31.681v148.733c0 27.886 22.688 50.573 50.573 50.573h148.733c27.886 0 50.573-22.687 50.573-50.573v-148.734c0-24.497-17.512-44.977-40.673-49.593zm-218.591-31.681v-148.733c0-16.806 13.672-30.479 30.479-30.479h148.733c16.806 0 30.479 13.672 30.479 30.479v148.733c0 16.806-13.672 30.479-30.479 30.479h-148.733c-16.807 0-30.479-13.673-30.479-30.479zm239.17 230.008c0 16.806-13.672 30.479-30.479 30.479h-148.733c-16.806 0-30.479-13.672-30.479-30.479v-148.734c0-16.806 13.672-30.479 30.479-30.479h148.733c16.806 0 30.479 13.673 30.479 30.479z"/><path d="m448.243 301.946h-122.365c-13.195 0-23.929 10.734-23.929 23.929v122.365c0 13.195 10.734 23.929 23.929 23.929h122.366c13.195 0 23.928-10.734 23.928-23.929v-122.366c0-13.194-10.734-23.928-23.929-23.928zm11.872 146.294c0 6.546-5.326 11.872-11.872 11.872h-122.365c-6.546 0-11.872-5.326-11.872-11.872v-122.366c0-6.546 5.326-11.872 11.872-11.872h122.366c6.546 0 11.872 5.326 11.872 11.872v122.366z"/><path d="m418.764 242.161c13.195 0 23.928-10.734 23.928-23.928v-122.366c0-13.195-10.734-23.929-23.928-23.929h-122.365c-13.195 0-23.928 10.734-23.928 23.929v122.366c0 13.195 10.734 23.928 23.928 23.928zm-134.237-23.929v-122.365c0-6.546 5.326-11.872 11.872-11.872h122.366c6.546 0 11.872 5.326 11.872 11.872v122.366c0 6.546-5.326 11.872-11.872 11.872h-122.366c-6.547-.001-11.872-5.327-11.872-11.873z"/><path d="m199.306 261.512h-148.733c-27.886 0-50.573 22.687-50.573 50.573v148.733c0 27.886 22.687 50.573 50.573 50.573h148.733c27.887 0 50.574-22.687 50.574-50.573v-148.733c0-27.886-22.687-50.573-50.574-50.573zm30.48 199.306c0 16.806-13.673 30.479-30.479 30.479h-148.734c-16.806 0-30.479-13.672-30.479-30.479v-148.733c0-16.806 13.673-30.479 30.479-30.479h148.733c16.806 0 30.479 13.672 30.479 30.479v148.733z"/><path d="m186.122 301.34h-122.365c-13.194 0-23.929 10.734-23.929 23.929v122.366c0 13.195 10.734 23.929 23.929 23.929h122.366c13.194 0 23.929-10.734 23.929-23.929v-122.366c-.001-13.195-10.735-23.929-23.93-23.929zm11.873 146.294c0 6.546-5.326 11.872-11.872 11.872h-122.366c-6.546 0-11.872-5.326-11.872-11.872v-122.365c0-6.546 5.326-11.872 11.872-11.872h122.366c6.546 0 11.872 5.326 11.872 11.872z"/><path d="m72.716 357.741c-5.549 0-10.047 4.499-10.047 10.047v12.118c0 5.548 4.498 10.047 10.047 10.047s10.047-4.499 10.047-10.047v-12.118c0-5.548-4.498-10.047-10.047-10.047z"/><path d="m72.716 324.618c-5.549 0-10.047 4.499-10.047 10.047v4.447c0 5.549 4.498 10.047 10.047 10.047s10.047-4.499 10.047-10.047v-4.447c0-5.548-4.498-10.047-10.047-10.047z"/><path d="m366.069 336.421c.346 5.34 5.019 9.378 10.37 9.378h11.54v92.218c0 5.351 4.038 10.024 9.377 10.37 5.852.38 10.717-4.255 10.717-10.025v-101.098c0-6.384-5.175-11.56-11.56-11.56h-20.419c-5.77 0-10.404 4.866-10.025 10.717z"/><path d="m327.46 135.765c5.446 1.07 10.726-2.477 11.796-7.922 1.487-7.565 8.175-13.056 15.905-13.056 8.749 0 15.901 6.967 16.199 15.646-.818 7.211-4.134 12.894-9.59 21.047-16.272 23.249-25.984 35.965-31.202 42.797-6.453 8.45-8.868 11.612-7.123 17.281 1.013 3.293 3.513 5.82 6.853 6.933 5.773 1.642 38.198.731 55.595.676 5.548-.07 9.989-4.624 9.92-10.173-.069-5.505-4.554-9.921-10.043-9.921-.043 0-.086 0-.13.001-11.621.146-24.003.235-33.649.235-.005 0-.009 0-.013 0 5.783-7.68 14.271-19.187 26.254-36.308 6.442-9.203 10.636-17.874 12.466-25.768.039-.395.876-5.992.766-6.238 0-20.018-16.285-36.303-36.303-36.303-17.308 0-32.289 12.313-35.622 29.277-1.07 5.445 2.476 10.727 7.921 11.796z"/><path d="m161.243 360.195c0-20.018-16.285-36.303-36.303-36.303-17.308 0-32.289 12.314-35.622 29.278-1.07 5.445 2.477 10.726 7.922 11.796 5.442 1.066 10.726-2.478 11.795-7.922 1.486-7.566 8.175-13.057 15.904-13.057 8.937 0 16.209 7.271 16.209 16.209 0 8.937-7.271 16.209-16.209 16.209-5.549 0-10.047 4.499-10.047 10.047s4.498 10.047 10.047 10.047c8.937 0 16.209 7.271 16.209 16.209s-7.271 16.209-16.209 16.209c-8.042 0-14.943-5.991-16.052-13.932-.104-.748-.157-1.514-.157-2.276 0-5.548-4.498-10.047-10.047-10.047s-10.047 4.499-10.047 10.047c0 1.688.118 3.386.35 5.051 2.486 17.817 17.943 31.252 35.953 31.252 20.018 0 36.303-16.285 36.303-36.303 0-10.32-4.335-19.64-11.272-26.256 6.937-6.618 11.273-15.938 11.273-26.258z"/><path d="m139.54 45.912 21.319 9.606c.913.411 1.636 1.225 2.002 2.253l8.534 23.996c1.206 3.39 5.469 3.39 6.675 0l8.534-23.996c.365-1.027 1.089-1.842 2.001-2.253l21.319-9.606c3.012-1.357 3.012-6.156 0-7.513l-21.319-9.605c-.913-.412-1.636-1.225-2.001-2.253l-8.534-23.996c-1.206-3.39-5.469-3.39-6.675 0l-8.534 23.996c-.365 1.028-1.089 1.842-2.002 2.253l-21.319 9.606c-3.013 1.357-3.013 6.156 0 7.512z"/><ellipse cx="53.788" cy="203.827" rx="18.634" ry="18.634" transform="matrix(.099 -.995 .995 .099 -154.347 237.268)"/><path d="m85.726 85.857c4.358 0 7.891-3.533 7.891-7.891 0-4.359-3.533-7.892-7.891-7.892s-7.891 3.533-7.891 7.892c0 4.358 3.533 7.891 7.891 7.891z"/><path d="m98.834 180.876 15.815 7.125c.677.305 1.214.909 1.485 1.671l6.33 17.8c.894 2.514 4.057 2.514 4.951 0l6.33-17.8c.271-.762.807-1.366 1.485-1.671l15.814-7.125c2.234-1.007 2.234-4.567 0-5.573l-15.814-7.125c-.677-.305-1.214-.909-1.485-1.671l-6.33-17.8c-.895-2.515-4.057-2.515-4.951 0l-6.33 17.8c-.271.762-.808 1.366-1.485 1.671l-15.815 7.125c-2.234 1.006-2.234 4.567 0 5.573z"/></g></svg>