<svg id="Capa_1" enable-background="new 0 0 512 512" height="512" viewBox="0 0 512 512" width="512" xmlns="http://www.w3.org/2000/svg"><g><path d="m170.332 305.499c-8.853 0-16.03 7.177-16.03 16.03s7.177 16.03 16.03 16.03 16.03-7.177 16.03-16.03-7.177-16.03-16.03-16.03z"/><path d="m341.668 305.499c-8.853 0-16.03 7.177-16.03 16.03s7.177 16.03 16.03 16.03 16.03-7.177 16.03-16.03-7.177-16.03-16.03-16.03z"/><path d="m186.066 276.901c-.728-.372-7.35-3.629-15.734-3.629-8.383 0-15.007 3.257-15.734 3.629-2.973 1.517-4.152 5.156-2.635 8.128 1.068 2.093 3.188 3.297 5.387 3.297.924 0 1.863-.212 2.742-.662.045-.023 4.676-2.307 10.24-2.307 5.535 0 10.219 2.298 10.238 2.307 2.973 1.519 6.613.337 8.129-2.634 1.518-2.971.339-6.611-2.633-8.129z"/><path d="m357.402 276.901c-.728-.372-7.35-3.629-15.734-3.629-8.383 0-15.007 3.257-15.734 3.629-2.973 1.517-4.152 5.156-2.635 8.128 1.068 2.093 3.187 3.297 5.387 3.297.924 0 1.863-.212 2.742-.662.045-.023 4.676-2.307 10.24-2.307 5.535 0 10.219 2.298 10.238 2.307 2.972 1.519 6.612.337 8.129-2.634 1.518-2.971.339-6.611-2.633-8.129z"/><path d="m272.03 315.486c-3.337 0-6.042 2.706-6.042 6.043 0 5.507-4.481 9.988-9.988 9.988-5.506 0-9.987-4.481-9.987-9.988 0-3.337-2.706-6.043-6.043-6.043s-6.042 2.706-6.042 6.043c0 12.171 9.902 22.073 22.072 22.073 12.172 0 22.073-9.902 22.073-22.073 0-3.338-2.706-6.043-6.043-6.043z"/><path d="m473.452 216.112c0-20.146-13.764-37.36-32.822-42.136-8.994-17.439-26.548-46.274-54.4-71.243-37.064-33.225-80.879-50.072-130.23-50.072s-93.167 16.847-130.23 50.072c-27.852 24.968-45.406 53.805-54.4 71.243-19.059 4.776-32.821 21.99-32.821 42.136 0 16.946 9.757 31.648 23.942 38.809.839 6.192 2.238 12.189 4.19 17.974-13.853 8.572-22.479 23.742-22.479 40.394 0 26.202 21.316 47.518 47.518 47.518 5.464 0 10.764-.906 15.818-2.696 6.447 7.9 13.614 15.231 21.418 21.836 8.637 7.31 17.911 13.581 27.623 18.746-15.374 21.001-23.723 46.351-23.723 72.667v30.569c0 5.562 4.509 10.071 10.071 10.071s10.071-4.509 10.071-10.071v-30.569c0-23.473 7.958-46.016 22.497-64.219 1.778.651 3.565 1.27 5.361 1.85-.026 3.603-.066 9.98-.09 17.834-.011 3.499.68 6.976 1.969 10.218-.138.215-.269.437-.382.674-5.224 10.977-7.874 22.751-7.874 34.994v32.679c0 3.337 2.706 6.042 6.042 6.042 3.337 0 6.042-2.706 6.042-6.042v-32.679c0-8.367 1.475-16.466 4.344-24.168 6.737 6.291 15.354 9.799 24.486 9.799h.156c11.506-.051 22.173-5.647 29.267-15.354l9.845-13.473 9.661 13.396c7.025 9.742 17.643 15.411 29.134 15.555.148.001.296.002.443.002 10.044 0 19.485-4.253 26.475-11.806 3.322 8.231 5.064 17.108 5.064 26.048v32.679c0 3.337 2.706 6.042 6.043 6.042s6.043-2.706 6.043-6.042v-32.679c0-13.371-3.309-26.635-9.572-38.359-.099-.185-.206-.363-.321-.534.575-2.236.879-4.544.879-6.863v-17.197c2.673-.81 5.331-1.701 7.974-2.666 14.543 18.2 22.523 40.866 22.523 64.268v30.569c0 5.562 4.509 10.071 10.071 10.071 5.561 0 10.071-4.509 10.071-10.071v-30.568c0-26.21-8.367-51.654-23.722-72.658 10.304-5.398 20.205-12.002 29.48-19.744 7.522-6.278 14.461-13.139 20.753-20.461 4.694 1.523 9.587 2.31 14.624 2.31 26.201 0 47.517-21.316 47.517-47.518 0-17.313-9.322-33.025-24.15-41.385 1.678-5.162 2.918-10.49 3.718-15.972 15.336-6.715 26.083-22.033 26.083-39.82zm-56.848 66.385c-9.016-3.981-25.33-11.816-41.914-22.931h51.512c-1.915 8.142-5.12 15.81-9.598 22.931zm-308.042-130.683h294.876c7.525 10.38 13.403 20.26 17.788 28.512h-330.452c4.385-8.252 10.262-18.132 17.788-28.512zm147.438-79.011c66.162 0 110.49 33.796 138.051 66.926h-276.103c27.562-33.131 71.89-66.926 138.052-66.926zm-176.716 120.161c.794-.092 1.561-.285 2.294-.553h348.843c.733.268 1.5.461 2.294.553 11.741 1.358 20.595 11.309 20.595 23.148 0 12.855-10.458 23.313-23.313 23.313h-347.995c-12.854 0-23.312-10.458-23.312-23.313 0-11.839 8.853-21.79 20.594-23.148zm14.112 89.533c-4.477-7.12-7.683-14.789-9.597-22.931h51.511c-16.585 11.116-32.9 18.952-41.914 22.931zm-1.678 58.169c-15.095 0-27.376-12.281-27.376-27.376 0-8.628 4.029-16.553 10.642-21.658-.063 1.028.026 2.083.297 3.135 4.14 16.067 10.834 31.52 19.657 45.712-1.06.123-2.134.187-3.22.187zm143.341 95.192c-4.804 6.576-11.935 10.366-19.562 10.399-.034 0-.068 0-.101 0-7.579 0-14.688-3.715-19.517-10.204-1.964-2.639-3.04-5.902-3.029-9.19.018-5.849.045-10.867.068-14.538 10.254 2.359 20.705 3.577 31.173 3.577h25.552zm81.364-8.903c0 3.39-1.129 6.743-3.18 9.441-4.831 6.359-11.87 9.987-19.35 9.987-.096 0-.193 0-.288-.001-7.62-.095-14.721-3.937-19.483-10.54l-14.38-19.94h28.166c9.517 0 19.067-1.029 28.514-3.031v14.084zm-28.513-31.194h-63.82c-55.014 0-105.937-38.648-125.48-93.553 12.317-5.221 43.83-19.84 69.869-42.641h173.044c30.161 26.411 67.665 41.843 74.174 44.408-21 52.608-74.163 91.786-127.787 91.786zm132.372-55.095c-.392 0-.78-.016-1.169-.032 9.464-14.42 16.601-30.06 20.973-46.236 4.764 4.993 7.571 11.697 7.571 18.892 0 15.095-12.28 27.376-27.375 27.376z"/><path d="m134.107 222.085c7.676.051 15.219.076 22.738.076s15.014-.025 22.588-.076c5.562-.037 10.04-4.577 10.003-10.139-.037-5.539-4.539-10.003-10.07-10.003-.023 0-.046 0-.069 0-15.057.102-29.794.102-45.056 0-.023 0-.045 0-.068 0-5.531 0-10.032 4.465-10.07 10.004-.036 5.561 4.442 10.1 10.004 10.138z"/><path d="m86.584 222.085h13.607c5.562 0 10.071-4.509 10.071-10.071s-4.509-10.071-10.071-10.071h-13.607c-5.562 0-10.071 4.509-10.071 10.071.001 5.561 4.51 10.071 10.071 10.071z"/><path d="m41.398 46.018 21.37 9.628c.915.412 1.64 1.228 2.006 2.258l8.554 24.052c1.208 3.398 5.482 3.398 6.691 0l8.554-24.052c.366-1.03 1.091-1.846 2.006-2.258l21.37-9.628c3.019-1.361 3.019-6.171 0-7.531l-21.37-9.628c-.915-.412-1.64-1.228-2.006-2.258l-8.555-24.052c-1.208-3.398-5.482-3.398-6.691 0l-8.554 24.052c-.366 1.03-1.091 1.846-2.006 2.258l-21.37 9.628c-3.019 1.36-3.019 6.17.001 7.531z"/><path d="m395.03 57.556c10.316 0 18.678-8.362 18.678-18.678s-8.362-18.678-18.678-18.678-18.678 8.363-18.678 18.678c0 10.316 8.363 18.678 18.678 18.678z"/><path d="m24.713 87.587c-4.369 0-7.91 3.541-7.91 7.91s3.541 7.91 7.91 7.91c4.368 0 7.91-3.542 7.91-7.91s-3.541-7.91-7.91-7.91z"/><path d="m493.517 106.096-15.852-7.142c-.679-.306-1.216-.911-1.488-1.675l-6.345-17.842c-.897-2.521-4.067-2.521-4.963 0l-6.345 17.842c-.272.764-.809 1.369-1.488 1.675l-15.852 7.142c-2.24 1.008-2.24 4.577 0 5.586l15.852 7.141c.679.306 1.216.911 1.488 1.675l6.345 17.842c.897 2.52 4.066 2.52 4.963 0l6.345-17.842c.272-.764.809-1.369 1.488-1.675l15.852-7.141c2.239-1.009 2.239-4.577 0-5.586z"/></g></svg>