<svg enable-background="new 0 0 32 32" viewBox="0 0 32 32" xmlns="http://www.w3.org/2000/svg"><g id="_x30_1_calendar_clock"><path d="m31 7v2h-30v-2c0-2.42 1.72-4.44 4-4.9v.9c0 .55.45 1 1 1s1-.45 1-1v-1h3v1c0 .55.45 1 1 1s1-.45 1-1v-1h3v1c0 .55.45 1 1 1s1-.45 1-1v-1h3v1c0 .55.45 1 1 1s1-.45 1-1v-1h3v1c0 .55.45 1 1 1s1-.45 1-1v-.9c2.28.46 4 2.48 4 4.9zm-15-6c-.55 0-1 .45-1 1h2c0-.55-.45-1-1-1zm-10 0c-.55 0-1 .45-1 1v.1c.32-.07.66-.1 1-.1h1c0-.55-.45-1-1-1zm5 0c-.55 0-1 .45-1 1h2c0-.55-.45-1-1-1zm10 0c-.55 0-1 .45-1 1h2c0-.55-.45-1-1-1zm5 0c-.55 0-1 .45-1 1h1c.34 0 .68.03 1 .1v-.1c0-.55-.45-1-1-1zm5 23c0 3.87-3.13 7-7 7s-7-3.13-7-7 3.13-7 7-7 7 3.13 7 7zm-4 0c0-.55-.45-1-1-1h-1v-2c0-.55-.45-1-1-1s-1 .45-1 1v3c0 .55.45 1 1 1h2c.55 0 1-.45 1-1zm4-13v7.36c-1.65-2.05-4.17-3.36-7-3.36-4.96 0-9 4.04-9 9 0 2.83 1.31 5.35 3.36 7h-12.36c-2.76 0-5-2.24-5-5v-15zm-23 15c0-.55-.45-1-1-1s-1 .45-1 1 .45 1 1 1 1-.45 1-1zm0-5c0-.55-.45-1-1-1s-1 .45-1 1 .45 1 1 1 1-.45 1-1zm0-5c0-.55-.45-1-1-1s-1 .45-1 1 .45 1 1 1 1-.45 1-1zm6 10c0-.55-.45-1-1-1s-1 .45-1 1 .45 1 1 1 1-.45 1-1zm0-5c0-.55-.45-1-1-1s-1 .45-1 1 .45 1 1 1 1-.45 1-1zm0-5c0-.55-.45-1-1-1s-1 .45-1 1 .45 1 1 1 1-.45 1-1z"/></g><g id="_x30_2_calendar"/><g id="_x30_3_calendar_event"/><g id="_x30_4_calendar_plus"/><g id="_x30_5_calendar_check"/><g id="_x30_6_calendar_x"/><g id="_x30_7_calendar_bell"/><g id="_x30_8_calendar_edit"/><g id="_x30_9_calendar_yesterday"/><g id="_x31_0_calendar_minus"/><g id="_x31_1_calendar_new"/><g id="_x31_2_calendar_event"/><g id="_x31_3_tomorrow"/><g id="_x31_4_calendar_setting"/><g id="_x31_5_calendar_1"/><g id="_x31_6_calendar_31"/><g id="_x31_7_calendar_arrows"/><g id="_x31_8_calendar_search"/><g id="_x31_9_world_clock"/><g id="_x32_0_bell"/><g id="_x32_1_bell_ringing"/><g id="_x32_2_bell_no"/><g id="_x32_3_stopwatch"/><g id="_x32_4_alarm_clock"/><g id="_x32_5_calendar"/><g id="_x32_6_watch"/><g id="_x32_7_calendar_birthday"/><g id="_x32_8_calendar_check"/><g id="_x32_9_calendar_clock"/><g id="_x33_0_calendar_x"/><g id="_x33_1_calendar_love"/><g id="_x33_2_clock"/><g id="_x33_3_24_hours"/><g id="_x33_4_hourglass"/><g id="_x33_5_hourglass"/><g id="_x33_6_hourglass"/></svg>