<svg id="Capa_1" enable-background="new 0 0 512 512" height="512" viewBox="0 0 512 512" width="512" xmlns="http://www.w3.org/2000/svg"><g><path d="m162.939 133.52c1.934 0 3.89-.552 5.619-1.705 1.901-1.268 5.225-3.195 6.661-3.778 5.192-2.108 7.691-8.027 5.582-13.219-2.109-5.191-8.026-7.693-13.218-5.581-3.658 1.485-8.663 4.614-10.283 5.694-4.662 3.109-5.921 9.409-2.812 14.071 1.956 2.933 5.173 4.518 8.451 4.518z"/><path d="m112.539 174.108c1.685 1.067 3.563 1.576 5.421 1.576 3.36 0 6.648-1.668 8.58-4.716 7.246-11.434 15.654-19.558 21.432-24.36 4.31-3.582 4.9-9.979 1.318-14.288-3.581-4.31-9.979-4.9-14.288-1.318-6.9 5.734-16.942 15.438-25.602 29.104-3 4.734-1.594 11.002 3.139 14.002z"/><g><ellipse cx="165.829" cy="313.053" rx="16.663" ry="16.663" transform="matrix(.23 -.973 .973 .23 -176.95 402.521)"/><ellipse cx="343.931" cy="313.053" rx="16.663" ry="16.663" transform="matrix(.999 -.038 .038 .999 -11.761 13.43)"/><path d="m271.543 306.965c-3.362 0-6.088 2.726-6.088 6.088 0 5.832-4.744 10.576-10.576 10.576-5.831 0-10.575-4.744-10.575-10.576 0-3.362-2.726-6.088-6.088-6.088s-6.088 2.726-6.088 6.088c0 12.545 10.206 22.751 22.75 22.751 12.545 0 22.751-10.207 22.751-22.751.002-3.362-2.724-6.088-6.086-6.088z"/><path d="m471.237 254.83c.018-.265.027-.531.027-.797v-17.513c0-103.417-84.136-187.553-187.553-187.553h-57.663c-103.416 0-187.552 84.136-187.552 187.553v17.513c0 .16.004.32.01.481.352 8.752 1.949 16.528 4.319 23.446-5.103 7.902-7.785 16.987-7.785 26.529 0 15.65 7.372 29.6 18.816 38.592-.003.111-.017.221-.017.333v52.744c0 32.465 26.412 58.878 58.878 58.878h15.224c-.492 4.551-.748 9.144-.748 13.764v31.777c0 5.603 4.542 10.146 10.146 10.146s10.146-4.543 10.146-10.146v-31.777c0-24.176 8.141-47.529 23.008-66.406 8.518 2.879 17.29 5.03 26.191 6.444-16.62 15.733-26.353 37.755-26.353 61.368v33.969c0 3.362 2.726 6.088 6.088 6.088s6.088-2.726 6.088-6.088v-33.969c0-.826.015-1.651.043-2.472h13.228c13.234 0 24.002-10.767 24.002-24.002v-32.929c.644.008 1.287.029 1.931.029h10.288v14.214c0 13.234 10.767 24.002 24.002 24.002 13.234 0 24.002-10.767 24.002-24.002v-14.214h8.048c1.391 0 2.781-.026 4.17-.063v32.963c0 13.234 10.767 24.002 24.002 24.002h10.986c.028.822.045 1.646.045 2.472v33.969c0 3.362 2.726 6.088 6.088 6.088s6.088-2.726 6.088-6.088v-33.969c0-23.477-9.663-45.531-26.385-61.363 8.914-1.413 17.699-3.567 26.23-6.45 14.864 18.876 23.002 42.248 23.002 66.408v31.777c0 5.603 4.543 10.146 10.146 10.146s10.146-4.543 10.146-10.146v-31.778c0-4.618-.255-9.212-.748-13.764h15.224c32.465 0 58.878-26.412 58.878-58.878v-52.744c0-.113-.014-.221-.017-.333 11.444-8.991 18.817-22.943 18.817-38.592 0-9.525-2.81-18.865-7.974-26.796 2.442-7.109 3.944-14.734 4.488-22.863zm-408.866-18.309c0-90.252 73.425-163.678 163.677-163.678h57.663c90.252 0 163.678 73.426 163.678 163.678v17.101c-1.335 18.597-8.952 32.595-23.817 43.56-.612-.332-1.34-.726-2.27-1.233-1.862-1.015-3.875-1.475-5.854-1.449-8.131-29.171-34.922-50.643-66.65-50.643-6.4 0-12.591.892-18.478 2.525-.82-2.626-2.539-4.985-5.054-6.558-40.282-25.195-72.406-47.891-110.881-78.34-3.91-3.096-9.333-3.433-13.597-.847-43.971 26.663-83.346 79.557-119.955 133.329-9.747-9.668-17.655-21.687-18.461-40.184v-17.261zm286.426 133.554c-31.442 0-57.021-25.58-57.021-57.022s25.579-57.021 57.021-57.021c27.534 0 50.571 19.616 55.873 45.607-1.715 3.897-1.177 8.291 1.144 11.621-.012 3.25-.308 6.431-.844 9.533-1.636 4.052-3.475 8.13-5.077 11.377-10.028 13.528-22.347 24.954-36.192 33.915-4.754 1.29-9.748 1.99-14.904 1.99zm-64.266-82.622c-21.756-9.66-41.546-9.667-62.067-.026-1.747-4.366-3.921-8.514-6.48-12.39 24.354-10.431 49.536-10.405 74.99.074-2.543 3.862-4.705 7.994-6.443 12.342zm14.32-22.215c-30.766-13.635-61.266-13.648-90.723-.029-12.603-13.144-30.315-21.353-49.92-21.353-4.12 0-8.151.382-12.075 1.076 19.351-24.041 39.578-45.282 60.162-59.434 34.847 27.285 65.119 48.603 101.738 71.688-3.295 2.413-6.364 5.11-9.182 8.052zm-151.252 103.832c-14.611-9.189-27.579-21.098-38.03-35.303-.819-1.327-5.567-9.295-8.359-19.781-.005-.312-.024-.62-.024-.933 0-2.458.174-4.875.477-7.252 10.012-14.666 20.441-29.528 31.196-43.804 7.641-3.809 16.246-5.964 25.348-5.964 31.442 0 57.021 25.579 57.021 57.021s-25.579 57.022-57.021 57.022c-3.625-.001-7.168-.356-10.608-1.006zm-72.125-47.923c2.129 1.759 4.786 2.71 7.511 2.731 1.107 3.428 2.327 6.553 3.521 9.291-.793.065-1.592.1-2.395.1-15.869 0-28.779-12.91-28.779-28.78 0-1.06.077-2.105.188-3.143 7.05 9.13 14.765 15.515 19.954 19.801zm57.391 110.015h-20.147c-19.301 0-35.003-15.703-35.003-35.003v-43.029c2.096.274 4.228.431 6.397.431 4.647 0 9.221-.656 13.638-1.934 13.827 17.064 31.194 31.287 50.641 41.376.906.47 1.825.917 2.74 1.369-8.07 11.241-14.222 23.67-18.266 36.79zm62.913 24.396h-11.783c3.214-15.655 11.519-29.755 23.61-40.166v28.339c-.001 6.522-5.306 11.827-11.827 11.827zm72.049-30.512c0 6.522-5.305 11.827-11.827 11.827-6.521 0-11.826-5.305-11.826-11.827v-14.214h23.653zm-46.116-34.507c-17.437 0-34.526-3.331-50.438-9.543 31.928-6.128 56.132-34.255 56.132-67.943 0-4.753-.483-9.395-1.4-13.881.231-.08.461-.169.686-.278 18.032-8.763 34.702-8.701 54.051.202.084.039.17.066.255.101-.914 4.479-1.396 9.112-1.396 13.857 0 34.347 25.159 62.917 58.012 68.28-15.664 5.995-32.445 9.206-49.563 9.206h-66.339zm104.046 65.019h-9.534c-6.521 0-11.827-5.305-11.827-11.827v-26.308c10.915 10.23 18.357 23.539 21.361 38.135zm106.288-59.399c0 19.3-15.702 35.003-35.003 35.003h-20.151c-4.045-13.119-10.193-25.551-18.26-36.79.915-.452 1.833-.898 2.738-1.368 19.446-10.09 36.812-24.311 50.639-41.374 4.416 1.277 8.987 1.932 13.639 1.932 2.169 0 4.301-.156 6.397-.431v43.028zm22.383-91.67c0 15.869-12.91 28.78-28.779 28.78-.997 0-1.986-.056-2.967-.156 1.348-3.186 2.749-6.753 3.943-10.334 1.373-.275 2.71-.773 3.938-1.533 9.511-5.888 17.379-12.759 23.592-20.574.165 1.255.273 2.525.273 3.817z"/><path d="m367.424 232.755c3.362 0 6.088-2.726 6.088-6.088v-12.276c0-3.362-2.726-6.088-6.088-6.088s-6.088 2.726-6.088 6.088v12.276c0 3.362 2.726 6.088 6.088 6.088z"/><path d="m400.169 197.145c3.362 0 6.088-2.726 6.088-6.088v-12.276c0-3.362-2.726-6.088-6.088-6.088s-6.088 2.726-6.088 6.088v12.276c0 3.362 2.726 6.088 6.088 6.088z"/><path d="m412.801 247.729c3.362 0 6.088-2.726 6.088-6.088v-12.276c0-3.362-2.726-6.088-6.088-6.088s-6.088 2.726-6.088 6.088v12.276c0 3.362 2.726 6.088 6.088 6.088z"/><path d="m158.208 266.605c-25.611 0-46.448 20.836-46.448 46.448s20.836 46.449 46.448 46.449c25.611 0 46.448-20.837 46.448-46.449s-20.837-46.448-46.448-46.448zm0 80.721c-18.898 0-34.273-15.375-34.273-34.273s15.375-34.272 34.273-34.272 34.272 15.375 34.272 34.272c0 18.899-15.374 34.273-34.272 34.273z"/><path d="m348.797 266.605c-25.612 0-46.448 20.836-46.448 46.448s20.836 46.449 46.448 46.449 46.448-20.837 46.448-46.449-20.836-46.448-46.448-46.448zm0 80.721c-18.898 0-34.273-15.375-34.273-34.273s15.375-34.272 34.273-34.272 34.273 15.375 34.273 34.272c0 18.899-15.375 34.273-34.273 34.273z"/><path d="m43.313 59.614 8.618 24.232c1.218 3.423 5.523 3.423 6.741 0l8.618-24.232c.369-1.037 1.099-1.86 2.021-2.275l21.529-9.7c3.042-1.37 3.042-6.216 0-7.587l-21.529-9.7c-.922-.415-1.652-1.237-2.021-2.275l-8.619-24.232c-1.217-3.423-5.523-3.423-6.741 0l-8.618 24.232c-.369 1.037-1.099 1.86-2.021 2.275l-21.529 9.7c-3.042 1.37-3.042 6.216 0 7.587l21.529 9.7c.922.415 1.653 1.237 2.022 2.275z"/><ellipse cx="387.116" cy="20.095" rx="18.818" ry="18.818" transform="matrix(.23 -.973 .973 .23 278.618 392.238)"/><path d="m7.969 128.627c-4.401 0-7.969 3.568-7.969 7.969s3.568 7.969 7.969 7.969 7.969-3.568 7.969-7.969-3.568-7.969-7.969-7.969z"/><path d="m510.308 87.815-15.97-7.195c-.684-.308-1.226-.918-1.499-1.687l-6.393-17.975c-.903-2.54-4.097-2.54-5 0l-6.393 17.975c-.274.769-.816 1.379-1.499 1.687l-15.97 7.195c-2.256 1.017-2.256 4.611 0 5.628l15.97 7.195c.684.308 1.226.918 1.499 1.688l6.393 17.975c.903 2.54 4.097 2.54 5 0l6.393-17.975c.274-.77.816-1.38 1.499-1.688l15.97-7.195c2.256-1.016 2.256-4.611 0-5.628z"/></g></g></svg>