<svg id="Capa_1" enable-background="new 0 0 512 512" height="512" viewBox="0 0 512 512" width="512" xmlns="http://www.w3.org/2000/svg"><g><path d="m391.075 85c-23.435 0-42.5 19.065-42.5 42.5s19.065 42.5 42.5 42.5c7.405 0 14.371-1.908 20.44-5.251l-9.044-9.044c-4.882-4.882-4.882-12.796 0-17.678s12.796-4.882 17.678 0l8.773 8.773c2.968-5.796 4.654-12.353 4.654-19.299-.001-23.436-19.066-42.501-42.501-42.501z"/><path d="m245.5 142.99h30.153l-15.007-39.766z"/><path d="m464.5 0h-340c-26.234 0-47.5 21.266-47.5 47.5v160c0 26.234 21.266 47.5 47.5 47.5h42.5v54.393c0 13.364 16.157 20.056 25.607 10.607l65-65h206.893c26.234 0 47.5-21.266 47.5-47.5v-160c0-26.234-21.266-47.5-47.5-47.5zm-275.958 138.958h-28.542v43.542c0 6.903-5.597 12.5-12.5 12.5s-12.5-5.597-12.5-12.5v-110c0-6.903 5.597-12.5 12.5-12.5h44.583c6.903 0 12.5 5.597 12.5 12.5s-5.597 12.5-12.5 12.5h-32.083v28.958h28.542c6.904 0 12.5 5.597 12.5 12.5s-5.596 12.5-12.5 12.5zm119.795 55.237c-1.453.548-2.945.808-4.412.808-5.051.001-9.808-3.084-11.697-8.09l-7.141-18.923h-49.109l-7.221 18.959c-2.458 6.451-9.678 9.689-16.131 7.232-6.451-2.457-9.689-9.68-7.232-16.131l41.305-108.45c.037-.095.074-.189.112-.284 2.313-5.654 7.755-9.311 13.864-9.316h.014c6.103 0 11.544 3.646 13.865 9.291.046.112.091.227.134.341l40.93 108.455c2.438 6.458-.822 13.671-7.281 16.108zm147.002-3.3c-4.882 4.882-12.796 4.882-17.678 0l-8.034-8.034c-10.939 7.641-24.226 12.14-38.552 12.14-37.22 0-67.5-30.28-67.5-67.5s30.28-67.5 67.5-67.5 67.5 30.28 67.5 67.5c0 13.879-4.214 26.79-11.425 37.528l8.188 8.188c4.882 4.881 4.882 12.796.001 17.678z"/><path d="m213.82 341.213c-8.519 8.519-19.781 13.211-31.711 13.211-24.873 0-45.108-20.201-45.108-45.03v-24.394h-12.5c-42.735 0-77.501-34.767-77.501-77.5v-19.911c-26.002.27-47 21.422-47 47.487v160c0 26.234 21.266 47.5 47.5 47.5h22.5v54.393c0 13.364 16.157 20.056 25.607 10.607l65-65h206.893c26.234 0 47.5-21.266 47.5-47.5v-110.076h-144.967z"/></g></svg>