<svg clip-rule="evenodd" fill-rule="evenodd" stroke-linejoin="round" stroke-miterlimit="2" viewBox="0 0 510 510" xmlns="http://www.w3.org/2000/svg"><path d="m8 484.647v-372.761c0-1.677.603-3.299 1.698-4.57l74.603-86.534c1.329-1.542 3.265-2.429 5.301-2.429h330.796c2.036 0 3.972.887 5.301 2.429l74.603 86.534c1.095 1.271 1.698 2.893 1.698 4.57v372.761c0 3.865-3.135 7-7 7h-480c-3.865 0-7-3.135-7-7zm480-23.923v-346.237l-60.602-70.294v321.841zm-74.602-428.371h-316.796v320.296h316.796zm-330.796 11.84-60.602 70.294v346.238l60.602-94.691zm339.572 433.454h60.035l-31.04-48.499h-49.457zm-78.07 0h62.875l-20.462-48.499h-55.408zm-79.655 0h65.161l-12.995-48.499h-52.166zm-79.161 0h65.161v-48.499h-52.166zm-88.506 0h74.012l12.995-48.499h-59.006zm-68.991 0h52.825l28.002-48.499h-49.787zm414.418-62.499-31.04-48.499c-6.009 0-18.752 0-35.825 0l20.461 48.499zm-297.508-48.499c-22.102 0-38.734 0-45.87 0l-31.04 48.499h48.909zm55.835 0c-14.027 0-27.419 0-39.669 0l-28.001 48.499h54.674zm49.913 0c-11.929 0-23.824 0-35.419 0l-12.996 48.499h48.415zm49.419 0c-11.556 0-23.452 0-35.419 0v48.499h48.415zm60.281 0c-13.703 0-29.252 0-45.787 0l12.996 48.499h53.252zm-162.568-101.377c5.279 10.238 14.03 18.944 26.326 26.174 2.282 1.342 3.612 3.855 3.437 6.496-.175 2.642-1.824 4.958-4.263 5.987-12.801 5.404-20.988 13.856-25.167 25.007-1.097 2.93-4.005 4.775-7.122 4.521-3.118-.253-5.689-2.545-6.298-5.613-2.358-11.872-10.993-19.21-24.376-23.732-2.668-.902-4.536-3.315-4.74-6.124-.205-2.809 1.294-5.467 3.804-6.745 12.043-6.135 20.681-14.662 25.832-25.719 1.128-2.421 3.535-3.989 6.205-4.042 2.67-.054 5.138 1.417 6.362 3.79zm-5.967 16.62c-3.921 5.482-8.706 10.346-14.368 14.585 6.359 3.689 11.375 8.254 15.001 13.759 3.825-5.153 8.621-9.662 14.473-13.463-5.983-4.552-11.003-9.522-15.106-14.881zm91.608-36.914c3.871 7.507 10.308 13.871 19.326 19.173 2.282 1.342 3.611 3.856 3.437 6.497-.175 2.641-1.824 4.957-4.263 5.987-9.229 3.895-15.155 9.966-18.167 18.007-1.097 2.929-4.005 4.774-7.123 4.521-3.118-.254-5.689-2.546-6.298-5.614-1.672-8.417-7.886-13.525-17.375-16.732-2.668-.901-4.536-3.314-4.741-6.123-.204-2.809 1.295-5.467 3.805-6.746 8.772-4.468 15.079-10.665 18.832-18.719 1.128-2.42 3.535-3.988 6.205-4.042 2.67-.053 5.138 1.417 6.362 3.791zm-5.986 16.145c-2.319 2.958-4.98 5.671-7.989 8.135 3.381 2.228 6.216 4.814 8.496 7.773 2.291-2.756 4.968-5.255 8.055-7.479-3.243-2.642-6.093-5.455-8.562-8.429z"/></svg>