<svg id="Capa_1" enable-background="new 0 0 512 512" height="512" viewBox="0 0 512 512" width="512" xmlns="http://www.w3.org/2000/svg"><g><g><g><g><path d="m46 128.5h420v90.034h-420z" fill="#d15573"/></g><g><path d="m68.509 196.025v-67.525h-22.509v90.034h420v-22.509z" fill="#c21d44"/></g><g><path d="m46 218.534h420v286.037h-420z" fill="#e5ecf5"/></g><g><path d="m68.651 481.92v-263.386h-22.651v286.037h420v-22.651z" fill="#cad8eb"/></g><g><path d="m98.102 270.732h60.536v60.536h-60.536z" fill="#9ce3bf"/></g><g><path d="m120.143 309.227v-38.495h-22.041v60.536h60.536v-22.041z" fill="#52cd8d"/></g><g><path d="m225.667 270.732h60.536v60.536h-60.536z" fill="#9ce3bf"/></g><g><path d="m247.707 309.227v-38.495h-22.04v60.536h60.535v-22.041z" fill="#52cd8d"/></g><g><path d="m353.232 270.732h60.536v60.536h-60.536z" fill="#9ce3bf"/></g><g><path d="m375.272 309.227v-38.495h-22.04v60.536h60.535v-22.041z" fill="#52cd8d"/></g><g><path d="m98.102 390.732h60.536v60.536h-60.536z" fill="#faef93"/></g><g><path d="m120.143 429.227v-38.495h-22.041v60.536h60.536v-22.041z" fill="#f6e23d"/></g><g><path d="m225.667 390.732h60.536v60.536h-60.536z" fill="#faef93"/></g><g><path d="m247.707 429.227v-38.495h-22.04v60.536h60.535v-22.041z" fill="#f6e23d"/></g><g><path d="m353.232 390.732h60.536v60.536h-60.536z" fill="#faef93"/></g><g><path d="m375.272 429.227v-38.495h-22.04v60.536h60.535v-22.041z" fill="#f6e23d"/></g><g><path d="m68.5 181h15v15h-15z" fill="#fff"/></g><g><path d="m98.5 181h15v15h-15z" fill="#fff"/></g></g></g><g><path d="m211 48.734 11.945 26.195h18.317l-15.494-31.077c8.985-2.947 15.494-11.408 15.494-21.365-.001-12.396-10.087-22.487-22.486-22.487h-22.776v74.929h15zm0-33.73h7.776c4.127 0 7.485 3.357 7.485 7.484s-3.358 7.484-7.485 7.484h-7.776z"/><path d="m151 44.964h15.011v-14.999h-15.011v-14.966h30.011v-14.999h-45.011v74.929h15z"/><path d="m308.5 59.93h-30.011v-14.966h15.011v-14.999h-15.011v-14.966h30.011v-14.999h-45.011v74.929h45.011z"/><path d="m368.5 59.93h-30.011v-14.966h15.011v-14.999h-15.011v-14.966h30.011v-14.999h-45.011v74.929h45.011z"/><path d="m199.914 139.71 11.945 26.133h18.317l-15.494-31.014c8.985-2.947 15.494-11.408 15.494-21.365 0-12.397-10.086-22.497-22.484-22.497h-22.777v74.876h15v-26.133zm0-33.73h7.777c4.127 0 7.484 3.357 7.484 7.484s-3.357 7.484-7.484 7.484h-7.777z"/><path d="m132.384 165.843h15v-59.944h22.5v-14.932h-60v14.932h22.5z"/><path d="m252.382 90.967h15v74.876h-15z"/><path d="m282.382 120.989v44.854h15v-14.92h30v14.92h15v-44.854c0-16.54-13.458-30.023-30-30.023s-30 13.483-30 30.023zm30-14.998c8.271 0 15 6.728 15 14.998v14.935h-30v-14.935c0-8.27 6.729-14.998 15-14.998z"/><path d="m357.382 90.967v74.876h44.734v-14.999h-29.734v-59.877z"/><path d="m248.5 497.001h15v14.999h-15z"/><path d="m387.998 120.965v14.999h70.502v75.026h-405v-75.026h63.498v-14.999h-78.498v391.035h195v-14.999h-180v-271.012h405v271.012h-179.732v14.999h194.732v-391.035z"/><path d="m166.138 263.184h-75.536v75.529h75.536zm-15 60.53h-45.536v-45.531h45.536z"/><path d="m421.267 263.184h-75.536v75.529h75.536zm-15 60.53h-45.536v-45.531h45.536z"/><path d="m293.768 263.184h-75.535v75.529h75.535zm-15 60.53h-45.535v-45.531h45.535z"/><path d="m90.602 458.701h75.536v-75.529h-75.536zm15-60.53h45.536v45.531h-45.536z"/><path d="m345.731 458.701h75.536v-75.529h-75.536zm15-60.53h45.536v45.531h-45.536z"/><path d="m218.232 458.701h75.535v-75.529h-75.535zm15-60.53h45.535v45.531h-45.535z"/><path d="m434.013 57.763h14.999v43.66h-14.999z" transform="matrix(.139 -.99 .99 .139 301.249 505.732)"/><path d="m420.762 3.612h43.66v14.999h-43.66z" transform="matrix(.99 -.139 .139 .99 2.762 61.717)"/><path d="m422.339 38.473h43.66v14.999h-43.66z"/><path d="m48.657 72.093h43.66v14.999h-43.66z" transform="matrix(.99 -.139 .139 .99 -10.393 10.587)"/><path d="m61.908-10.718h14.999v43.66h-14.999z" transform="matrix(.139 -.99 .99 .139 48.745 78.297)"/><path d="m46 38.473h43.66v14.999h-43.66z"/></g></g></svg>