<svg id="Capa_1" enable-background="new 0 0 507.346 507.346" height="512" viewBox="0 0 507.346 507.346" width="512" xmlns="http://www.w3.org/2000/svg"><g><g><g><path d="m305.714 162.768c-4.393 0-7.928-3.534-7.928-7.928v-33.693h-42.876c-4.393 0-7.928-3.534-7.928-7.928s3.534-7.928 7.928-7.928h50.804c4.393 0 7.928 3.534 7.928 7.928v41.621c-.001 4.361-3.535 7.928-7.928 7.928z"/><path d="m305.714 459.662h-265.249c-4.393 0-7.928-3.534-7.928-7.928v-338.547c0-4.393 3.534-7.928 7.928-7.928h50.804c4.393 0 7.928 3.534 7.928 7.928s-3.534 7.928-7.928 7.928h-42.877v322.659h249.394v-30.059c0-4.393 3.534-7.928 7.928-7.928s7.928 3.534 7.928 7.928v37.987c-.001 4.393-3.535 7.96-7.928 7.96z"/><path d="m254.91 135.781h-163.642c-4.393 0-7.928-3.534-7.928-7.928v-59.128c0-12.354 10.042-22.396 22.396-22.396h23.783c4.393 0 7.928 3.534 7.928 7.928s-3.534 7.928-7.928 7.928h-23.783c-3.601 0-6.54 2.94-6.54 6.54v51.2h147.786v-51.2c0-3.601-2.94-6.54-6.54-6.54h-23.783c-4.393 0-7.928-3.534-7.928-7.928s3.534-7.928 7.928-7.928h23.783c12.354 0 22.396 10.042 22.396 22.396v59.128c0 4.393-3.535 7.928-7.928 7.928z"/><path d="m338.283 492.199h-330.355c-4.393 0-7.928-3.534-7.928-7.928v-403.621c0-4.393 3.534-7.928 7.928-7.928h83.34c4.393 0 7.928 3.534 7.928 7.928 0 4.393-3.534 7.928-7.928 7.928h-75.413v387.766h314.5v-61.044c0-4.393 3.534-7.928 7.928-7.928s7.928 3.534 7.928 7.928v68.971c0 4.36-3.567 7.928-7.928 7.928z"/><path d="m338.283 161.216c-4.393 0-7.928-3.534-7.928-7.928v-64.71h-75.445c-4.393 0-7.928-3.534-7.928-7.928 0-4.393 3.534-7.928 7.928-7.928h83.34c4.393 0 7.928 3.534 7.928 7.928v72.638c.033 4.36-3.534 7.928-7.895 7.928z"/><path d="m216.659 79.461h-87.139c-4.393 0-7.928-3.534-7.928-7.928v-48.458c0-4.393 3.534-7.928 7.928-7.928h87.139c4.393 0 7.928 3.534 7.928 7.928v48.458c-.001 4.393-3.535 7.928-7.928 7.928zm-79.212-15.856h71.284v-32.602h-71.284z"/><g><g><path d="m230.929 203.959h-83.142c-4.393 0-7.928-3.534-7.928-7.928 0-4.393 3.534-7.928 7.928-7.928h83.142c4.393 0 7.928 3.534 7.928 7.928-.001 4.394-3.568 7.928-7.928 7.928z"/><path d="m94.076 209.938c-2.114 0-4.129-.826-5.615-2.312l-10.307-10.306c-3.105-3.105-3.105-8.126 0-11.198s8.126-3.105 11.198 0l4.691 4.691 18.267-18.267c3.105-3.105 8.126-3.105 11.198 0 3.105 3.105 3.105 8.126 0 11.198l-23.882 23.882c-1.421 1.453-3.436 2.312-5.55 2.312z"/></g><g><path d="m199.118 267.976h-51.332c-4.393 0-7.928-3.534-7.928-7.928s3.534-7.928 7.928-7.928h51.332c4.393 0 7.928 3.534 7.928 7.928s-3.567 7.928-7.928 7.928z"/><path d="m94.076 273.922c-2.114 0-4.129-.826-5.615-2.312l-10.306-10.306c-3.105-3.105-3.105-8.126 0-11.198 3.105-3.105 8.126-3.105 11.198 0l4.691 4.691 18.267-18.267c3.105-3.105 8.126-3.105 11.198 0 3.105 3.105 3.105 8.126 0 11.198l-23.882 23.882c-1.422 1.486-3.437 2.312-5.551 2.312z"/></g><g><path d="m202.983 331.959h-55.197c-4.393 0-7.928-3.534-7.928-7.928s3.534-7.928 7.928-7.928h55.197c4.393 0 7.928 3.534 7.928 7.928s-3.534 7.928-7.928 7.928z"/><path d="m94.076 337.938c-2.114 0-4.129-.826-5.615-2.312l-10.307-10.306c-3.105-3.105-3.105-8.126 0-11.198 3.105-3.105 8.126-3.105 11.198 0l4.691 4.691 18.267-18.267c3.105-3.105 8.126-3.105 11.198 0 3.105 3.105 3.105 8.126 0 11.198l-23.882 23.882c-1.421 1.486-3.436 2.312-5.55 2.312z"/></g><g><path d="m247.643 395.976h-99.857c-4.393 0-7.928-3.534-7.928-7.928s3.534-7.928 7.928-7.928h99.857c4.393 0 7.928 3.534 7.928 7.928s-3.535 7.928-7.928 7.928z"/><path d="m94.076 401.955c-2.114 0-4.129-.826-5.615-2.312l-10.306-10.306c-3.105-3.105-3.105-8.126 0-11.198 3.105-3.105 8.126-3.105 11.198 0l4.691 4.691 18.267-18.267c3.105-3.105 8.126-3.105 11.198 0 3.105 3.105 3.105 8.126 0 11.198l-23.882 23.882c-1.422 1.453-3.437 2.312-5.551 2.312z"/></g></g></g><g><path d="m328.242 423.591c-18.795 0-37.062-3.7-54.239-10.967-16.582-7.003-31.48-17.045-44.263-29.861-12.783-12.783-22.825-27.681-29.861-44.263-7.267-17.177-10.967-35.411-10.967-54.239s3.7-37.062 10.967-54.239c7.003-16.582 17.045-31.48 29.861-44.263s27.681-22.825 44.263-29.861c17.177-7.267 35.411-10.967 54.239-10.967s37.062 3.7 54.239 10.967c16.582 7.003 31.48 17.045 44.263 29.861 12.783 12.783 22.825 27.681 29.861 44.263 7.267 17.177 10.967 35.411 10.967 54.239s-3.7 37.062-10.967 54.239c-7.003 16.582-17.045 31.48-29.861 44.263-12.783 12.783-27.681 22.825-44.263 29.861-17.177 7.3-35.444 10.967-54.239 10.967zm0-262.772c-68.079 0-123.442 55.395-123.442 123.475s55.395 123.442 123.442 123.442 123.442-55.395 123.442-123.442-55.363-123.475-123.442-123.475z"/><path d="m328.242 379.46c-25.435 0-49.317-9.91-67.287-27.879-17.97-17.97-27.879-41.885-27.879-67.287s9.91-49.317 27.879-67.287c17.97-17.97 41.885-27.879 67.287-27.879s49.317 9.91 67.287 27.879c17.97 17.97 27.879 41.885 27.879 67.287s-9.91 49.317-27.879 67.287c-17.97 17.969-41.853 27.879-67.287 27.879zm0-174.477c-21.174 0-41.092 8.258-56.089 23.222-14.964 14.964-23.222 34.882-23.222 56.089s8.258 41.092 23.222 56.089c14.964 14.964 34.882 23.222 56.089 23.222s41.092-8.258 56.089-23.222 23.222-34.882 23.222-56.089-8.258-41.092-23.222-56.089c-14.997-14.963-34.883-23.222-56.089-23.222z"/><path d="m328.242 335.296c-6.805 0-13.378-1.288-19.555-3.832-6.144-2.543-11.726-6.276-16.516-11.099-4.823-4.823-8.555-10.372-11.099-16.516-2.543-6.144-3.832-12.717-3.832-19.555s1.288-13.378 3.832-19.555c2.543-6.144 6.276-11.726 11.099-16.516 4.823-4.823 10.372-8.555 16.516-11.099 6.144-2.543 12.717-3.832 19.555-3.832s13.378 1.288 19.555 3.832c6.144 2.543 11.726 6.276 16.516 11.099 4.823 4.823 8.555 10.372 11.099 16.516 2.543 6.144 3.832 12.717 3.832 19.555s-1.288 13.378-3.832 19.555c-2.543 6.144-6.276 11.726-11.099 16.516-4.823 4.823-10.372 8.555-16.516 11.099-6.144 2.543-12.718 3.832-19.555 3.832zm0-86.181c-4.724 0-9.249.892-13.477 2.643s-8.06 4.327-11.396 7.663-5.913 7.168-7.663 11.396c-1.751 4.228-2.643 8.754-2.643 13.477s.892 9.249 2.643 13.477 4.327 8.06 7.663 11.396 7.168 5.913 11.396 7.663 8.754 2.643 13.477 2.643c4.724 0 9.249-.892 13.477-2.643s8.06-4.327 11.396-7.663 5.913-7.168 7.663-11.396c1.751-4.228 2.643-8.754 2.643-13.477s-.892-9.249-2.643-13.477-4.327-8.06-7.663-11.396-7.168-5.913-11.396-7.663-8.754-2.643-13.477-2.643z"/><g><path d="m328.242 292.222c-2.015 0-4.063-.76-5.616-2.312-3.105-3.105-3.105-8.126 0-11.198l123.772-123.805c3.105-3.105 8.126-3.105 11.198 0 3.105 3.105 3.105 8.126 0 11.198l-123.772 123.771c-1.519 1.553-3.534 2.346-5.582 2.346z"/><path d="m452.013 168.45c-2.081 0-4.129-.826-5.616-2.312-1.586-1.586-2.444-3.799-2.312-6.078l1.387-23.585c.099-1.949.925-3.766 2.312-5.153l23.849-23.849c2.312-2.312 5.847-2.973 8.853-1.619s4.856 4.426 4.658 7.697l-.859 14.666 14.666-.859c3.303-.198 6.342 1.652 7.697 4.658 1.354 3.006.694 6.54-1.619 8.853l-23.849 23.849c-1.387 1.387-3.204 2.18-5.153 2.312l-23.585 1.387c-.098.033-.263.033-.429.033zm9.117-28.045-.694 11.66 11.66-.694 6.97-6.97-2.775.165c-2.279.132-4.459-.694-6.078-2.312-1.586-1.586-2.444-3.799-2.312-6.078l.165-2.775z"/></g></g></g></g></svg>