<svg id="Layer_1" height="512" viewBox="0 0 217.9284 170.938" width="512" xmlns="http://www.w3.org/2000/svg"><g><path d="m83.0776 111.3775c.9814-2.5703 2.9053-4.6045 5.416-5.7275.8329-.3723 1.6981-.6161 2.5815-.7576l-1.0796-.8491c-3.4736-2.7314-8.5039-2.1284-11.2334 1.3433-2.7314 3.4731-2.1299 8.5024 1.3428 11.2339l2.0571 1.6177.5574-.6675c-.5192-2.0406-.4084-4.186.3582-6.1932z"/><path d="m112.4155 63.0879c.0488-2.5874.7783-5.127 2.1104-7.3442l1.3226-2.2019c-11.6017-2.2948-23.1205 4.8326-26.126 16.4279-2.6807 10.342 2.2859 20.8611 11.374 25.5922l10.9576-13.1232z"/><ellipse cx="22.504" cy="148.434" rx="22.5" ry="22.5" transform="matrix(.186 -.983 .983 .186 -127.527 142.978)"/><path d="m79.1452 164.7329c5.2477-.9926 9.9436-2.0615 14.321-3.3126l-25.3154-4.936c-5.5732-1.0869-9.2246-6.5059-8.1387-12.0801.9414-4.8276 5.1885-8.3315 10.0977-8.3315.6631 0 1.3311.0649 1.9854.1929l20.6055 4.0176-1.6792-3.7549c-.7611.177-1.546.2731-2.3447.2731-2.4062 0-4.749-.8501-6.5986-2.3936-2.2695-1.8958-3.5055-4.5695-3.6649-7.3121-3.7943 1.2495-7.4012 2.3869-10.6396 3.4562-10.0817 2.3777-18.6249 11.4885-16.2953 19.9705 2.3287 8.4849 12.4359 16.9987 27.6668 14.2105z"/><path d="m160.458 40.5407c4.3584 3.6406 4.9434 10.1484 1.3037 14.5078l-7.7053 9.228c8.2898.442 17.9189 1.0045 27.3185 2.6416l-33.4271 27.7238c-5.2236 4.3325-6.0361 12.041-1.8311 17.3677l39.498 50.0269c2.4668 3.1245 6.125 4.7544 9.8193 4.7544 2.7119 0 5.4434-.8789 7.7373-2.6899 5.418-4.2778 6.3428-12.1382 2.0645-17.5566l-31.9365-40.4492 37.0664-30.7422c1.8657-1.5472 3.1537-3.5262 3.8662-5.6682.896-1.623 1.5525-3.7328 2.2433-6.2665 2.4127-8.8416 3.5822-19.9382-11.2194-27.007-15.1566-5.8701-26.2156-8.4548-39.2734-8.8499l-7.1367 11.8818c.5674.314 1.1094.6776 1.6123 1.0975z"/><path d="m141.937 67.5943-.1453 7.7819 18.2043-21.8018c2.832-3.3916 2.3779-8.4365-1.0127-11.2681-.4171-.3483-.8596-.6457-1.3196-.8953z"/><path d="m102.102 110.8477 3.5129 7.8546 5.894-7.0587.4767-25.5342-16.0245 19.1914c2.6862.9015 4.947 2.8746 6.1409 5.5469z"/><path d="m83.5527 132.6422c1.4971 1.25 3.3154 1.8594 5.124 1.8594.4631 0 .9238-.0507 1.3801-.1302l-6.4071-14.3263-1.1097 1.329c-2.832 3.3917-2.3779 8.4366 1.0127 11.2681z"/><path d="m85.397 118.3184 11.2119 25.0703-24.9551-4.8657c-4.3389-.8486-8.5381 1.9844-9.3838 6.3213-.8447 4.3364 1.9854 8.5371 6.3213 9.3828l40.0811 7.8149c.5107.0996 1.0234.1479 1.5322.1479 2.4111 0 4.7285-1.0923 6.2627-3.0234 1.8574-2.3379 2.2588-5.5166 1.0391-8.2427l-17.5039-39.1377c-1.8027-4.0332-6.5303-5.8423-10.5693-4.0366-4.0333 1.8037-5.84 6.5357-4.0362 10.5689z"/><path d="m139.6489 66.937 28.8301-47.999c3.5547-5.918 1.6387-13.5972-4.2793-17.1519-5.9199-3.5542-13.5977-1.6392-17.1523 4.2798l-30.5498 50.8623c-1.127 1.876-1.7412 4.0146-1.7822 6.2026l-.9216 49.3651-7.1335 8.5432 12.8547 28.7418c3.4326-2.1284 6.9841-4.5312 10.8081-7.3086 7.1575-6.0801 8.9114-12.0967 8.2448-17.6187l.2362-12.652z"/></g></svg>