<svg id="_x32_1_Jiu_jitsu" viewBox="0 0 512 512" xmlns="http://www.w3.org/2000/svg"><path d="m424 296c-.84 0-1.67.03-2.49.09-10.33-23.57-34.06-39.4-57.07-54.74-3.68-2.45-8.64-1.46-11.09 2.22s-1.46 8.64 2.22 11.09c21.18 14.12 41.3 27.54 50.3 45.71-12.96 6.63-21.86 20.1-21.86 35.63 0 22.06 17.94 40 40 40s40-17.94 40-40-17.94-40-40-40zm0 64c-13.23 0-24-10.77-24-24s10.77-24 24-24 24 10.77 24 24-10.77 24-24 24z"/><path d="m185.94 272.24c-4.29-1.07-8.63 1.54-9.7 5.82l-13.24 52.96c-1.02 4.08-4.16 7.37-8.19 8.58l-69.1 20.73c-2.43.73-4.37 2.57-5.23 4.95-.86 2.39-.54 5.04.87 7.15l7.68 11.52c-3.4-.28-6.57-2.02-8.62-4.76l-12.25-16.33 71.43-35.71c2.7-1.35 4.41-4.1 4.42-7.12.07-13.88 1.55-53.38 7.49-69.23 8.08-21.56 30.02-44.99 30.33-45.32 3.03-3.21 2.89-8.27-.32-11.31s-8.27-2.89-11.31.32c-.99 1.05-24.43 26.03-33.68 50.69-6.78 18.07-8.16 56.16-8.44 69.83l-75.65 37.82c-2.12 1.06-3.66 3.01-4.21 5.32-.54 2.31-.04 4.74 1.39 6.64l18 24c5.26 7.01 13.63 11.2 22.4 11.2h14c2.95 0 5.66-1.62 7.05-4.23 1.39-2.6 1.24-5.76-.4-8.21l-10-15.01 58.75-17.62c9.41-2.82 16.74-10.5 19.12-20.03l13.24-52.96c1.07-4.29-1.53-8.63-5.82-9.7z"/><path d="m275.58 384.84-26.41-13.21 12-54c2.28-10.28-1.32-20.84-9.41-27.58l-33.11-27.59 8.22-12.33c5.64 5.64 12.14 9.93 19.51 12.8 7.73 3.01 15.67 4.16 23.3 4.16 24.09 0 45.06-11.45 46.21-12.09 2.75-1.53 4.35-4.53 4.09-7.67-.27-3.14-2.35-5.83-5.33-6.87l-22.86-8c-4.17-1.46-8.73.74-10.19 4.91s.74 8.73 4.91 10.19l2.36.83c-10.76 2.86-24.43 4.43-36.76-.39-12.98-5.07-22.57-16.69-28.52-34.52-1.4-4.19-5.93-6.46-10.12-5.06s-6.46 5.93-5.06 10.12c2.25 6.76 4.98 12.81 8.16 18.19l-15.23 22.84c-2.27 3.4-1.61 7.97 1.53 10.58l38.64 32.2c3.47 2.89 5.01 7.42 4.03 11.82l-13.36 60.1c-.8 3.58.95 7.25 4.23 8.89l1.69.84h-20.35l14.09-70.43c.79-3.96-1.49-7.88-5.31-9.16l-24-8c-4.19-1.39-8.72.87-10.12 5.06s.87 8.72 5.06 10.12l17.3 5.77-14.62 73.07c-.47 2.35.14 4.79 1.66 6.64s3.79 2.93 6.19 2.93h64c3.71 0 6.93-2.55 7.79-6.16.85-3.61-.89-7.33-4.21-8.99z"/><path d="m406.71 382.46c-2.25-2.33-5.68-3.1-8.69-1.9-4.04 1.61-11.03 3.44-22.01 3.44-8.3 0-22.61-9.27-32.2-24.78-6.47-10.47-14.73-30.27-7.88-56.64l16.58 44.23c1.55 4.14 6.16 6.24 10.3 4.68 4.14-1.55 6.23-6.16 4.68-10.3l-15.18-40.47 3.57 2.14c1.28.76 2.7 1.14 4.11 1.14 2.29 0 4.57-.98 6.16-2.89 2.08-2.49 2.33-6.04.88-8.94l-54.36-108.72c9.32-7.33 15.33-18.7 15.33-31.45 0-22.06-17.94-40-40-40-14.14 0-27.33 7.56-34.5 19.75-2.09 3.56-1.31 8.26 2.03 10.69 3.91 2.86 9.32 1.64 11.68-2.43 4.28-7.41 12.25-12.01 20.79-12.01 13.23 0 24 10.77 24 24s-10.77 24-24 24c-.56 0-1.13-.03-1.69-.07l-2.49-6.85c-3.65-10.05-12.89-17.23-23.53-18.29l-63.99-6.4-21.89-29.19c-2.07-2.75-5.66-3.88-8.93-2.79s-5.47 4.15-5.47 7.59v56c0 3.81 2.69 7.1 6.43 7.84l75.99 15.2 16.59 36.28c1.34 2.94 4.25 4.68 7.28 4.68 1.33 0 2.7-.34 3.96-1.05 3.65-2.07 4.93-6.72 3.19-10.53l-18.17-39.74c-1.07-2.33-3.19-4.01-5.71-4.52l-73.57-14.71v-25.44l9.6 12.8c1.34 1.79 3.38 2.94 5.6 3.16l67.49 6.75c4.56.46 8.52 3.53 10.08 7.84l15.97 43.93c1.46 4 5.75 6.4 9.84 5.21 4.48-1.31 6.86-6.1 5.29-10.42l-7.81-21.47c2.15-.22 4.26-.62 6.3-1.17l42.19 84.38-16.44-9.87c-3.94-2.36-9.09-.94-11.23 3.21-1.95 3.79-.42 8.46 3.24 10.65l9.06 5.44c-5.7 13.76-7.86 26.35-7.89 37.54l-18.63-18.63c-2.41-2.41-4.23-5.36-5.31-8.6l-5.76-17.28c-1.4-4.19-5.93-6.46-10.12-5.06s-6.46 5.93-5.06 10.12l5.76 17.28c1.87 5.6 5.01 10.68 9.18 14.86l34.14 34.14c2.51 7.72 5.76 14.06 8.7 18.83 11.78 19.06 30.62 32.37 45.81 32.37 13.05 0 22.05-2.17 28-4.55 5.25-2.1 6.64-8.92 2.71-12.99z"/></svg>