<svg id="Layer_1" enable-background="new 0 0 512 512" height="512" viewBox="0 0 512 512" width="512" xmlns="http://www.w3.org/2000/svg"><g><path d="m76.617 120.759c-3.705-7.41-12.716-10.415-20.125-6.708l-32.133 16.066c-7.41 3.705-10.413 12.715-6.708 20.125 3.717 7.434 12.74 10.401 20.125 6.708l32.133-16.066c7.409-3.706 10.412-12.716 6.708-20.125z"/><path d="m24.358 28.42 32.133 16.067c7.399 3.699 16.414.714 20.125-6.708 3.705-7.41.702-16.42-6.708-20.125l-32.133-16.067c-7.41-3.705-16.419-.701-20.125 6.708-3.704 7.41-.701 16.42 6.708 20.125z"/><path d="m442.092 140.883 32.134 16.066c7.4 3.7 16.414.712 20.124-6.708 3.705-7.41.702-16.42-6.708-20.125l-32.134-16.066c-7.406-3.702-16.418-.702-20.124 6.708-3.705 7.41-.702 16.421 6.708 20.125z"/><path d="m455.508 44.487 32.134-16.067c7.41-3.705 10.413-12.715 6.708-20.125-3.704-7.41-12.714-10.413-20.124-6.708l-32.134 16.067c-7.41 3.705-10.413 12.715-6.708 20.125 3.719 7.438 12.743 10.398 20.124 6.708z"/><ellipse cx="95.334" cy="264.033" rx="55.166" ry="55.167" transform="matrix(.987 -.16 .16 .987 -41.062 18.68)"/><ellipse cx="416.667" cy="264.033" rx="55.166" ry="55.167" transform="matrix(.987 -.16 .16 .987 -36.913 70.152)"/><path d="m179.153 350.736.762-.305c-1.812-3.594-3.378-7.332-4.675-11.192-4.082-3.691-8.857-6.712-14.198-8.849l-8.461-3.385c-15.13 13.777-35.218 22.194-57.247 22.194-22.031 0-42.134-8.409-57.27-22.185l-8.438 3.376c-17.997 7.198-29.626 24.376-29.626 43.764v122.846c0 8.284 6.716 15 15 15h118.247c-1.665-4.695-2.58-9.742-2.58-15v-74.646c0-31.727 19.032-59.839 48.486-71.618z"/><path d="m482.374 330.391-8.438-3.376c-15.136 13.776-35.24 22.185-57.27 22.185-22.029 0-42.117-8.417-57.246-22.194l-8.461 3.385c-5.342 2.136-10.117 5.157-14.199 8.849-1.297 3.86-2.864 7.597-4.675 11.191l.766.306c29.451 11.777 48.483 39.889 48.483 71.617v74.646c0 5.258-.915 10.305-2.58 15h118.246c8.284 0 15-6.716 15-15v-122.846c0-19.388-11.629-36.566-29.626-43.763z"/><path d="m321.708 378.591-8.438-3.376c-15.136 13.776-35.239 22.185-57.27 22.185s-42.134-8.409-57.27-22.185l-8.438 3.376c-17.997 7.197-29.626 24.375-29.626 43.764v74.645c0 8.284 6.716 15 15 15h160.667c8.284 0 15-6.716 15-15v-74.646c0-19.388-11.628-36.566-29.625-43.763z"/><ellipse cx="256" cy="312.234" rx="55.166" ry="55.167" transform="matrix(.987 -.16 .16 .987 -46.709 45.038)"/><path d="m245.393 218.376c2.813 2.813 6.629 4.394 10.607 4.394 3.979 0 7.794-1.581 10.607-4.394l106.826-106.834c25.482-25.483 25.482-66.946 0-92.429-25.483-25.483-66.945-25.483-92.426-.003l-25.007 25-25.006-24.998c-25.482-25.483-66.946-25.482-92.426-.002-25.575 25.565-25.532 66.911-.002 92.432z"/></g></svg>