<svg id="Capa_1" enable-background="new 0 0 512 512" height="512" viewBox="0 0 512 512" width="512" xmlns="http://www.w3.org/2000/svg"><g><path d="m387.159 95.215h-262.666c-41.787 0-75.784 33.996-75.784 75.784v262.667c0 41.788 33.996 75.784 75.784 75.784h262.667c41.787 0 75.784-33.996 75.784-75.784v-262.667c0-41.788-33.997-75.784-75.785-75.784zm-262.666 20.312h125.24v49.387c0 2.908-2.365 5.273-5.273 5.273h-42.237c-9.627 0-17.46 7.833-17.46 17.46v40.842c0 9.627 7.833 17.459 17.46 17.459h42.237c2.908 0 5.273 2.365 5.273 5.273v46.116h-47.51c-9.627 0-17.46 7.833-17.46 17.46v40.841c0 2.908-2.365 5.273-5.272 5.273h-42.237c-2.908 0-5.273-2.365-5.273-5.273v-40.841c0-9.627-7.833-17.46-17.46-17.46h-45.5v-126.338c0-30.588 24.884-55.472 55.472-55.472zm-55.472 318.138v-124.14h45.5c2.908 0 5.273 2.365 5.273 5.273v40.841c0 9.627 7.833 17.46 17.46 17.46h42.237c9.627 0 17.459-7.833 17.459-17.46v-40.841c0-2.908 2.365-5.273 5.273-5.273h47.51v46.115c0 9.627 7.833 17.46 17.46 17.46h42.236c2.908 0 5.273 2.365 5.273 5.273v40.842c0 2.908-2.365 5.273-5.273 5.273h-42.236c-9.627 0-17.46 7.833-17.46 17.46v47.189h-125.24c-30.588 0-55.472-24.884-55.472-55.472zm318.138 55.472h-125.239v-47.189c0-2.908 2.365-5.273 5.273-5.273h42.236c9.627 0 17.46-7.833 17.46-17.46v-40.842c0-9.627-7.833-17.46-17.46-17.46h-42.236c-2.908 0-5.273-2.365-5.273-5.273v-46.115h47.509c9.627 0 17.46-7.833 17.46-17.46v-40.842c0-2.908 2.365-5.273 5.273-5.273h42.237c2.907 0 5.272 2.365 5.272 5.273v40.842c0 9.627 7.833 17.46 17.46 17.46h45.501v124.14c0 30.588-24.884 55.472-55.473 55.472zm55.473-191.799h-45.501c-2.908 0-5.273-2.365-5.273-5.273v-40.842c0-9.627-7.832-17.46-17.459-17.46h-42.237c-9.627 0-17.46 7.833-17.46 17.46v40.842c0 2.908-2.365 5.273-5.273 5.273h-47.509v-46.116c0-9.627-7.833-17.46-17.46-17.46h-42.237c-2.908 0-5.273-2.365-5.273-5.272v-40.842c0-2.908 2.365-5.273 5.273-5.273h42.237c9.627 0 17.46-7.833 17.46-17.46v-49.387h125.239c30.588 0 55.473 24.885 55.473 55.472z"/><path d="m91.343 238.36c.03 5.591 4.571 10.102 10.155 10.102h.054c5.61-.03 10.132-4.601 10.102-10.209-.019-3.469-.042-6.939-.065-10.409-.059-8.704-.119-17.705-.095-26.534.015-5.608-4.52-10.169-10.128-10.184-5.618-.04-10.169 4.518-10.184 10.128-.025 8.925.037 17.975.096 26.727.024 3.46.048 6.92.065 10.379z"/><path d="m100.976 173.489c1.064.353 2.144.522 3.206.522 4.255 0 8.22-2.695 9.636-6.953 1.848-5.558 6.077-9.33 9.299-11.515 4.643-3.148 5.853-9.464 2.704-14.105-3.148-4.643-9.467-5.854-14.105-2.704-8.349 5.663-14.286 13.24-17.172 21.913-1.769 5.322 1.11 11.072 6.432 12.842z"/><path d="m406.912 403.308c-3.365 0-6.094 2.728-6.094 6.094v11.733c0 3.365 2.729 6.094 6.094 6.094s6.094-2.728 6.094-6.094v-11.733c0-3.366-2.728-6.094-6.094-6.094z"/><path d="m369.311 347.004c-3.365 0-6.093 2.728-6.093 6.093v11.733c0 3.365 2.728 6.094 6.093 6.094s6.094-2.728 6.094-6.094v-11.733c0-3.365-2.729-6.093-6.094-6.093z"/><path d="m359.255 438.682c-3.365 0-6.093 2.728-6.093 6.094v11.734c0 3.365 2.728 6.093 6.093 6.093s6.093-2.728 6.093-6.093v-11.734c0-3.366-2.728-6.094-6.093-6.094z"/><path d="m51.88 63.618 21.55-9.71c3.045-1.372 3.045-6.222 0-7.594l-21.55-9.709c-.923-.416-1.654-1.238-2.023-2.277l-8.627-24.255c-1.219-3.427-5.529-3.427-6.747 0l-8.626 24.255c-.369 1.039-1.1 1.862-2.023 2.277l-21.55 9.709c-3.045 1.372-3.045 6.222 0 7.594l21.55 9.71c.923.415 1.654 1.239 2.023 2.277l8.626 24.256c1.219 3.427 5.529 3.427 6.747 0l8.626-24.256c.369-1.038 1.101-1.861 2.024-2.277z"/><ellipse cx="493.164" cy="100.791" rx="18.836" ry="18.836" transform="matrix(.383 -.924 .924 .383 211.32 517.844)"/><path d="m127.763 18.61c4.405 0 7.977-3.571 7.977-7.977s-3.571-7.977-7.977-7.977c-4.405 0-7.977 3.571-7.977 7.977s3.571 7.977 7.977 7.977z"/><path d="m380.615 36.975 15.985 7.202c.684.308 1.227.918 1.501 1.689l6.399 17.993c.904 2.541 4.101 2.541 5.005 0l6.399-17.993c.274-.771.816-1.381 1.501-1.689l15.985-7.202c2.258-1.017 2.258-4.616 0-5.633l-15.985-7.202c-.685-.308-1.227-.918-1.501-1.689l-6.399-17.993c-.904-2.542-4.101-2.542-5.005 0l-6.399 17.993c-.274.771-.816 1.381-1.501 1.689l-15.985 7.202c-2.259 1.017-2.259 4.615 0 5.633z"/></g></svg>