<svg id="Capa_1" enable-background="new 0 0 510.319 510.319" height="512" viewBox="0 0 510.319 510.319" width="512" xmlns="http://www.w3.org/2000/svg"><g><path d="m397.351 172.537v74.989h45.138v-15h-30.138v-59.989z"/><path d="m247.525 247.526h44.999v-15h-29.999v-45h29.999v-15h-44.999z"/><path d="m67.489 232.526v15h45.032v-45h-30.032v-15h30v-15h-45v45h30.032v15z"/><path d="m127.489 247.537h15v-29.987l30.031-.032v-44.992h-45.031zm15-60.011h15.031v15.024h-15.031z"/><path d="m187.525 247.526h45v-15h-30v-14.989h15v-15h-15v-15.011h30v-15h-45z"/><path d="m337.642 247.537h15v-29.979h15v29.979h15v-74.987h-45zm30-59.987v15.008h-15v-15.008z"/><path d="m307.541 172.537h15v75h-15z"/><path d="m104.802 337.573h44.964v-75h-44.964zm15-60h14.964v45h-14.964z"/><path d="m284.818 337.585h45v-15h-30v-14.99h15v-15h-15v-15.01h30v-15h-45z"/><path d="m164.803 337.537h15v-29.952h29.999v-15h-29.999v-15.011h29.999v-15h-44.999z"/><path d="m224.802 337.537h15v-29.952h30v-15h-30v-15.011h30v-15h-45z"/><path d="m344.766 262.555v75h15v-30h22.404v30h15v-45h-7.404v-30zm30 30h-15v-15h15z"/><path d="m510.319 142.546h-89.185c-3.442-7.623-13.865-12.708-17.556-19.116-1.739-9.078 4.359-21.545-1.621-30.783-5.267-9.656-19.125-10.303-26.289-16.082-1.508-1.758-2.417-6.038-3.218-9.814-2.792-17.342-10.963-24.15-28.562-23.597-5.062-.278-9.207.361-11.941-2.727l-11.044 10.153c9.377 11.089 23.291 5.125 33.315 9.128 4.716 6.588 3.489 19.815 10.069 26.627 5.714 7.518 19.025 8.329 24.786 13.99 1.106 1.859.444 6.75-.088 10.68-2.713 14.287.676 22.728 12.22 31.541h-24.375c-34.948-118.674-208.762-118.621-243.683 0h-24.374c29.202-21.798-3.296-41.03 21.661-47.301 13.628-4.323 19.56-11.324 21.766-25.379.829-3.9 1.859-8.754 3.56-10.158 7.369-3.35 20.105.327 28.046-4.834 8.419-4.12 11.854-17.236 18.452-21.658 8.027-.582 18.8 7.124 28.012 4.972 9.335-1.034 16.951-12.241 24.718-14.112 7.714 1.89 15.431 13.07 24.719 14.112 9.25 2.155 19.955-5.569 28.012-4.973 1.757.632 3.863 3.775 4.555 4.808l12.462-8.349c-7.783-12.768-18.995-13.862-32.235-8.532-9.101 3.417-11.34 3.258-18.75-3.151-13.269-11.738-24.287-11.718-37.527.001-7.418 6.412-9.642 6.565-18.75 3.149-16.303-6.528-26.444-2.686-34.826 12.618-4.826 8.521-6.796 9.552-16.56 9.396-17.567-.549-25.766 6.224-28.561 23.597-1.719 9.694-3.067 11.291-12.399 14.462-16.632 5.347-22.27 14.481-19 31.806.52 3.846 1.111 8.206.27 10.41-3.651 6.382-14.133 11.499-17.555 19.116h-88.843v45.002h15v-30.002h480.319v195h-480.319v-150.002h-15v165.002h98.401c-6.385 18.748-7.811 29.547 11.719 39.915 3.3 1.951 7.043 4.162 8.208 6.118 3.301 8.645-.637 21.962 6.876 30.04 6.813 8.604 20.627 6.865 28.646 11.354 5.966 7.055 6.789 20.894 16.585 25.977 9.319 5.799 21.73-.534 30.809 1.026 7.957 4.668 13.466 17.354 24.426 18.809 10.719 2.273 20.224-7.951 29.319-9.493 8.998 1.521 18.821 11.815 29.32 9.493 10.945-1.455 16.49-14.133 24.424-18.808 9.066-1.569 21.491 4.777 30.809-1.026 9.778-5.078 10.657-18.924 16.586-25.976 7.991-4.493 21.841-2.748 28.646-11.355 7.492-8.066 3.621-21.412 6.875-30.04 1.166-1.956 4.908-4.167 8.21-6.117 19.383-10.288 18.196-21.069 11.717-39.915h98.743zm-255.33-75c48.064 0 90.364 30.387 106.053 75h-212.106c15.689-44.613 57.989-75 106.053-75zm145.787 320.325c-.8 2.099-4.916 4.53-8.547 6.676-12.75 6.634-17.268 14.512-17.075 28.723-.151 3.974-.338 8.921-1.762 10.58-6.741 4.584-19.831 3.112-26.813 9.557-7.585 5.571-8.719 18.862-14.464 24.513-7.863 1.999-19.715-3.769-28.451-.06-8.973 2.624-14.643 14.945-21.91 18.146-8.036-.867-17.276-10.256-26.764-9.713-9.466-.55-18.755 8.865-26.763 9.713-7.271-3.223-12.925-15.511-21.912-18.146-8.714-3.71-20.632 2.067-28.451.06-5.725-5.67-6.872-18.929-14.464-24.514-6.959-6.439-20.131-4.979-26.813-9.555-3.414-7.269-.116-20.134-5.372-27.95-4.343-8.357-17.416-11.508-22.012-18.031-.848-5.16 3.831-14.177 4.483-20.324h19.485c18.734 64.039 88.93 103.363 153.691 85.911l-3.741-14.526c-55.505 14.973-115.966-17.462-134.158-71.385h212.046c-7.414 20.913-21.013 39.405-38.992 52.777l8.952 12.036c21.788-16.205 37.899-39.058 45.833-64.813h19.494c.505 3.435 5.24 18.332 4.48 20.325z"/><path d="m427.203 292.595h15v15h-15z"/><path d="m67.489 292.595h15v15h-15z"/><path d="m297.174 434.297 5.632 13.902c4.883-1.978 9.694-4.287 14.3-6.863l-7.322-13.092c-4.062 2.273-8.305 4.309-12.61 6.053z"/><path d="m180.37 117.108 11.488 9.646c2.929-3.489 6.183-6.743 9.672-9.672l-9.646-11.488c-4.153 3.487-8.027 7.361-11.514 11.514z"/><path d="m205.034 96.212 7.736 12.851c3.771-2.27 7.911-4.279 12.304-5.972l-5.393-13.997c-5.203 2.004-10.132 4.399-14.647 7.118z"/></g></svg>