<svg id="Capa_1" enable-background="new 0 0 512 512" height="512" viewBox="0 0 512 512" width="512" xmlns="http://www.w3.org/2000/svg"><g><g><path d="m135.022 128.568v-18.497c3.335-.013 6.998-.025 9.111-.025 13.622 0 24.705-10.931 24.705-24.366s-11.083-24.366-24.705-24.366h-16.611c-4.081 0-7.5 3.418-7.5 7.5v59.754c0 4.142 3.357 7.5 7.5 7.5s7.5-3.358 7.5-7.5zm9.112-52.255c5.261 0 9.705 4.289 9.705 9.366s-4.444 9.366-9.705 9.366c-2.1 0-5.724.012-9.045.024-.02-3.439-.038-7.227-.038-9.391 0-1.84-.007-5.764-.014-9.366h9.097z"/><path d="m229.301 84.348c0-12.701-10.727-23.034-23.912-23.034h-15.874c-.005 0-.01.001-.014.001s-.009-.001-.014-.001c-4.143 0-7.5 3.358-7.5 7.5v59.754c0 4.142 3.357 7.5 7.5 7.5s7.5-3.358 7.5-7.5v-16.828l19.186 21.785c1.483 1.683 3.552 2.543 5.632 2.543 1.761 0 3.529-.617 4.954-1.872 3.108-2.738 3.409-7.477.672-10.585l-15.154-17.208c9.836-2.855 17.024-11.66 17.024-22.055zm-23.912 8.033c-1.938 0-5.232.011-8.312.023-.019-3.002-.04-12.949-.046-16.091h8.357c4.831 0 8.912 3.679 8.912 8.034.001 4.355-4.08 8.034-8.911 8.034z"/><path d="m260.538 128.568v-59.755c0-4.142-3.357-7.5-7.5-7.5s-7.5 3.358-7.5 7.5v59.754c0 4.142 3.357 7.5 7.5 7.5s7.5-3.357 7.5-7.499z"/><path d="m313.386 76.313c4.495 0 8.812 1.317 12.485 3.809 3.428 2.325 8.093 1.432 10.417-1.996 2.326-3.428 1.433-8.092-1.995-10.417-6.167-4.185-13.396-6.396-20.907-6.396-20.609 0-37.376 16.768-37.376 37.377s16.767 37.377 37.376 37.377c8.239 0 15.631-2.706 21.409-7.857 1.129-1.019 2.157-2.083 3.145-3.253 2.672-3.166 2.271-7.897-.895-10.569-3.164-2.671-7.897-2.271-10.568.895-.554.656-1.104 1.226-1.697 1.761-2.995 2.669-6.828 4.023-11.394 4.023-12.338 0-22.376-10.038-22.376-22.377s10.038-22.377 22.376-22.377z"/><path d="m384.478 76.852c4.143 0 7.5-3.358 7.5-7.5s-3.357-7.5-7.5-7.5h-24.944c-4.143 0-7.5 3.358-7.5 7.5v59.216c0 4.142 3.357 7.5 7.5 7.5h24.944c4.143 0 7.5-3.358 7.5-7.5s-3.357-7.5-7.5-7.5h-17.444v-14.622h15.602c4.143 0 7.5-3.358 7.5-7.5s-3.357-7.5-7.5-7.5h-15.602v-14.594z"/><path d="m111.661 170.237c0 4.142 3.357 7.5 7.5 7.5h273.678c4.143 0 7.5-3.358 7.5-7.5s-3.357-7.5-7.5-7.5h-273.678c-4.142 0-7.5 3.358-7.5 7.5z"/><path d="m211.029 258.639h90.905c4.143 0 7.5-3.358 7.5-7.5s-3.357-7.5-7.5-7.5h-90.905c-4.143 0-7.5 3.358-7.5 7.5s3.358 7.5 7.5 7.5z"/><path d="m392.839 206.76h-181.81c-4.143 0-7.5 3.358-7.5 7.5s3.357 7.5 7.5 7.5h181.81c4.143 0 7.5-3.358 7.5-7.5s-3.358-7.5-7.5-7.5z"/><path d="m211.029 353.6h90.905c4.143 0 7.5-3.358 7.5-7.5s-3.357-7.5-7.5-7.5h-90.905c-4.143 0-7.5 3.358-7.5 7.5s3.358 7.5 7.5 7.5z"/><path d="m392.839 301.749h-181.81c-4.143 0-7.5 3.358-7.5 7.5s3.357 7.5 7.5 7.5h181.81c4.143 0 7.5-3.358 7.5-7.5s-3.358-7.5-7.5-7.5z"/><path d="m211.029 433.589c-4.143 0-7.5 3.358-7.5 7.5s3.357 7.5 7.5 7.5h90.905c4.143 0 7.5-3.358 7.5-7.5s-3.357-7.5-7.5-7.5z"/><path d="m400.339 404.238c0-4.142-3.357-7.5-7.5-7.5h-181.81c-4.143 0-7.5 3.358-7.5 7.5s3.357 7.5 7.5 7.5h181.81c4.142 0 7.5-3.358 7.5-7.5z"/><path d="m111.661 251.847c0 6.667 5.425 12.092 12.092 12.092h38.295c6.667 0 12.092-5.425 12.092-12.092v-38.296c0-6.667-5.425-12.092-12.092-12.092h-38.295c-6.667 0-12.092 5.425-12.092 12.092zm15-35.388h32.479v32.48h-32.479z"/><path d="m111.661 346.836c0 6.667 5.425 12.092 12.092 12.092h38.295c6.667 0 12.092-5.425 12.092-12.092v-38.296c0-6.667-5.425-12.092-12.092-12.092h-38.295c-6.667 0-12.092 5.425-12.092 12.092zm15-35.388h32.479v32.48h-32.479z"/><path d="m111.661 441.797c0 6.683 5.425 12.121 12.092 12.121h38.295c6.667 0 12.092-5.438 12.092-12.121v-38.267c0-6.683-5.425-12.121-12.092-12.121h-38.295c-6.667 0-12.092 5.438-12.092 12.121zm15-35.388h32.479v32.509h-32.479z"/><path d="m446.498 265.21c-4.143 0-7.5 3.358-7.5 7.5v219.799c0 2.434-2.069 4.491-4.519 4.491h-356.987c-2.476 0-4.49-2.015-4.49-4.491v-219.799c0-4.142-3.357-7.5-7.5-7.5s-7.5 3.358-7.5 7.5v219.799c0 10.747 8.743 19.491 19.49 19.491h356.987c10.763 0 19.519-8.744 19.519-19.491v-219.799c0-4.142-3.357-7.5-7.5-7.5z"/><path d="m434.479 0h-356.987c-10.747 0-19.49 8.744-19.49 19.491v218.608c0 4.142 3.357 7.5 7.5 7.5s7.5-3.358 7.5-7.5v-218.608c0-2.476 2.015-4.491 4.49-4.491h356.987c2.449 0 4.519 2.057 4.519 4.491v218.608c0 4.142 3.357 7.5 7.5 7.5s7.5-3.358 7.5-7.5v-218.608c0-10.747-8.756-19.491-19.519-19.491z"/></g></g></svg>