<svg id="Layer_1" enable-background="new 0 0 512 512" viewBox="0 0 512 512" xmlns="http://www.w3.org/2000/svg"><path clip-rule="evenodd" d="m200.36 141.8v48.4h96.81v-48.4c0-26.69-21.72-48.41-48.41-48.41s-48.4 21.72-48.4 48.41zm-46.05 38.05 4.4-28.11c.24-1.57-.15-3.18-1.08-4.46-.94-1.29-2.35-2.15-3.93-2.39l-28.11-4.4c-3.27-.52-6.34 1.73-6.85 5-.52 3.28 1.72 6.35 5 6.86l13.89 2.17c-23.57 18.87-41.93 43.31-53.43 71.28-1.26 3.06.2 6.57 3.27 7.83.75.31 1.52.45 2.28.45 2.36 0 4.6-1.4 5.55-3.72 10.64-25.87 27.57-48.51 49.29-66.05l-2.14 13.69c-.51 3.27 1.73 6.34 5.01 6.86 3.27.5 6.34-1.73 6.85-5.01zm223.67 42.03 26.79 9.59c.66.23 1.34.35 2.02.35.88 0 1.76-.2 2.57-.58 1.44-.68 2.55-1.9 3.08-3.4l9.59-26.79c1.12-3.12-.51-6.56-3.63-7.67-3.12-1.12-6.55.51-7.67 3.62l-4.73 13.24c-14.12-26.69-34.68-49.29-60.01-65.83-2.78-1.82-6.5-1.04-8.31 1.74-1.81 2.77-1.03 6.49 1.75 8.3 23.42 15.3 42.49 36.17 55.64 60.8l-13.05-4.67c-3.11-1.11-6.55.51-7.67 3.63-1.11 3.12.51 6.56 3.63 7.67zm-65.27 224.59c-25.82 10.77-53.8 14.81-81.56 11.84l11.19-8.16c2.68-1.95 3.27-5.71 1.31-8.38-1.95-2.68-5.71-3.27-8.38-1.31l-22.99 16.77c-1.28.93-2.14 2.34-2.39 3.92-.25 1.57.14 3.17 1.08 4.46l16.77 22.99c1.18 1.61 3 2.46 4.85 2.46 1.23 0 2.47-.37 3.54-1.15 2.67-1.96 3.26-5.71 1.31-8.39l-8.29-11.35c30.01 3.32 60.27-.98 88.18-12.63 3.06-1.27 4.5-4.79 3.23-7.85-1.28-3.05-4.79-4.5-7.85-3.22zm-62.19-98.8-.07.82-4.13-2.56c-.57-.35-1.17-.65-1.79-.91l-2.64-1.09.96-2.69c.6-1.68.86-3.48.75-5.26-.22-3.48-1.78-6.66-4.4-8.96-1.51-1.33-3.28-2.26-5.22-2.78l-2.44-.66.23-2.51c.06-.7.1-1.41.05-2.11-.22-3.48-1.78-6.66-4.4-8.96-2.31-2.03-5.24-3.16-8.32-3.23l-2.42-.05-.46-2.37c-.55-2.84-1.99-5.37-4.16-7.28-5.12-4.5-12.9-4.27-17.75.51l-1.94 1.91-2.09-1.74c-2.72-2.26-6.03-4.02-9.33-5.26l-3.37-1.27 25.87-42.85 2.51 1.35c5.25 2.82 10.8 3.89 16.71 3.89 1.95 0 3.88-.12 5.82-.28l8.23-.7-5.87 5.82c-3.19 3.16-5.2 6.79-5.81 11.25-.51 3.7 0 7.31.55 10.97.92 6.08 1.61 11.24-1.89 16.67-.5.77-.62 1.74-.31 2.61.31.88 1 1.55 1.88 1.85 5.9 1.99 12.04.16 16.85-3.54 5.37-4.13 9.67-11.16 9.21-18.12-.17-2.6 1.26-6.54 3.58-7.92l.07-.04c1.46-.82 3.02-.35 4.36.4l.27.15 53.33 46.87c1.41 1.24 2.24 2.97 2.36 4.84.12 1.86-.5 3.68-1.73 5.09-2.53 2.88-7.06 3.18-9.94.65l-28.14-24.74c-1.24-1.09-3.15-.96-4.23.27-1.09 1.24-.98 3.15.26 4.24l24.62 21.63c1.4 1.23 2.24 2.97 2.36 4.83.12 1.87-.48 3.7-1.72 5.11-2.54 2.88-7.05 3.17-9.93.64l-25.4-22.32c-1.24-1.09-3.15-.97-4.24.27s-.96 3.15.28 4.24l20.89 18.36c1.4 1.23 2.25 2.97 2.36 4.83.12 1.87-.48 3.7-1.72 5.1-1.24 1.41-2.96 2.23-4.83 2.36s-3.7-.48-5.11-1.72l-13.26-11.66c-1.24-1.09-3.15-.96-4.24.28-.43.49-.68 1.09-.74 1.74l-.13 1.5 9.67 8.48c2.88 2.53 3.17 7.05.65 9.93-1.85 2.11-4.76 2.79-7.41 1.97l-3.03-.94 1.11-2.98c.64-1.72.91-3.58.8-5.42-.05-.86-.19-1.71-.41-2.54zm103.98-52.63-12.03 5.09-26.44-62.53 12.04-5.09zm-187.66 2.37-11.19-6.75 35.09-58.12 11.19 6.75zm41.9 14.1c2.53-2.88 2.24-7.39-.64-9.93-1.28-1.13-2.94-1.73-4.64-1.73-2.02 0-3.96.85-5.3 2.37l-10.67 12.13c-2.53 2.88-2.23 7.4.64 9.93 1.41 1.24 3.24 1.85 5.11 1.73s3.61-.97 4.82-2.36zm6.82 2.04-.47-.27-1.61 1.88c-.1.12-.19.24-.26.33l-10.36 11.79c-2.53 2.88-2.24 7.39.64 9.93 1.41 1.24 3.24 1.84 5.11 1.72 1.86-.12 3.6-.96 4.83-2.36l7.36-8.37 3.33-3.78c1.22-1.41 1.82-3.23 1.7-5.08-.12-1.86-.96-3.6-2.36-4.83-1.41-1.24-3.22-1.84-5.09-1.73-1 .06-1.96.33-2.82.77zm14.92 34.05 5.39-6.14c1.23-1.4 1.84-3.23 1.72-5.09-.12-1.87-.95-3.6-2.36-4.84-2.88-2.54-7.4-2.25-9.94.64l-7.35 8.37c-2.53 2.88-2.25 7.4.63 9.93 2.86 2.51 7.32 2.25 9.86-.56l.1-.1zm14.33 14.1c1.24-1.41 1.85-3.23 1.73-5.11-.12-1.86-.96-3.58-2.36-4.82-1.28-1.13-2.94-1.73-4.64-1.73-2.03 0-3.98.85-5.3 2.38l-1.13 1.28c-1.24 1.4-1.85 3.23-1.73 5.1s.95 3.6 2.36 4.84c2.88 2.53 7.41 2.23 9.94-.65zm18.65-93.57 50.69 44.54 1.84-.99c3.81-2.05 5.68-3.88 7.92-7.46 2.13-3.42 4.03-5.57 7.65-7.53l2.4-1.3-20.52-48.54-2.58.77c-11.4 3.42-21.7 1.37-32.93-1.29-6.39-1.51-15.06-3.89-21.3-.95l-.19.09-.18.12c-4.8 3.16-9 6.67-13.31 10.45-1.8 1.58-3.61 3.19-5.51 4.64-3.1 2.35-5.55 5.11-6.35 9.01-.67 3.26-.06 6.83.43 10.08.61 4.02 1.15 7.92.56 11.99l-.89 6.18 5.38-3.16c.65-.38 1.29-.81 1.89-1.27 3.73-2.87 7.21-8.08 6.88-12.96-.33-4.81 2.23-10.96 6.53-13.49 3.69-2.18 7.68-1.48 11.18.77.15.09.28.2.41.3zm151.77 66.6c15.44 0 28-12.56 28-28s-12.56-28.01-28-28.01-28 12.57-28 28.01 12.56 28 28 28zm-48.41 64.73v48.41h96.81v-48.41c0-26.69-21.71-48.4-48.4-48.4s-48.41 21.71-48.41 48.4zm-225.76 0c0-26.69-21.72-48.4-48.41-48.4s-48.4 21.71-48.4 48.4v48.41h96.81zm-20.41-92.73c0-15.44-12.56-28.01-28-28.01s-28 12.57-28 28.01 12.56 28 28 28 28-12.56 28-28zm100.11-257.67c0 15.44 12.56 28.01 28 28.01s28.01-12.57 28.01-28.01-12.57-28-28.01-28-28 12.56-28 28z" fill-rule="evenodd"/></svg>