<svg id="Capa_1" enable-background="new 0 0 512 512" height="512" viewBox="0 0 512 512" width="512" xmlns="http://www.w3.org/2000/svg"><g><path d="m484.385 207.377c17.808-18.043 27.615-41.942 27.615-67.295v-103.13c0-12.578-10.233-22.811-22.811-22.811h-13.507c-3.144 0-6.141.639-8.869 1.795-2.922-9.229-11.568-15.936-21.751-15.936h-13.559c-5.887 0-11.26 2.242-15.311 5.916-4.05-3.674-9.423-5.916-15.31-5.916h-13.535c-5.887 0-11.259 2.241-15.309 5.915-4.05-3.674-9.423-5.915-15.309-5.915h-13.589c-12.576 0-22.807 10.231-22.807 22.784l-.032 10.146-21.823 14.548c-14.006 9.337-22.368 24.961-22.368 41.795v28.35c0 16.456 6.408 31.926 18.043 43.561l24.376 24.376c2.929 2.929 7.678 2.929 10.606 0 2.929-2.929 2.929-7.678 0-10.606l-24.376-24.376c-8.802-8.802-13.65-20.506-13.65-32.955v-28.35c0-11.807 5.865-22.765 15.688-29.314l13.49-8.993v60.011c0 4.142 3.358 7.5 7.5 7.5s7.5-3.358 7.5-7.5c0-86.16-.015-69.254.044-88.169 0-4.305 3.502-7.808 7.807-7.808h13.589c4.292 0 7.786 3.482 7.807 7.772v43.632c0 4.142 3.358 7.5 7.5 7.5s7.5-3.358 7.5-7.5c0-52.662 0-41.891 0-43.593 0-4.307 3.503-7.811 7.81-7.811h13.535c4.307 0 7.811 3.504 7.811 7.811v43.593c0 4.142 3.358 7.5 7.5 7.5s7.5-3.358 7.5-7.5v-43.593c0-4.307 3.504-7.811 7.811-7.811h13.559c4.307 0 7.811 3.504 7.811 7.811v43.593c0 4.142 3.358 7.5 7.5 7.5s7.5-3.358 7.5-7.5v-29.452c0-4.307 3.504-7.811 7.811-7.811h13.507c4.307 0 7.811 3.504 7.811 7.811v103.129c0 21.383-8.271 41.541-23.291 56.759-3.973 4.026-6.161 9.409-6.161 15.157v11.838c-8.632.012-76.657.102-102.808.137v-4.411c0-5.807-2.261-11.267-6.368-15.374l-3.863-3.863c-2.929-2.929-7.678-2.929-10.606.001-2.929 2.929-2.928 7.678.001 10.606l3.862 3.862c1.273 1.274 1.975 2.967 1.975 4.768v4.863c-13.017 1.88-24.682 9.65-31.355 21.208l-.268.463c-4.643 8.042-13.295 13.042-22.577 13.048l-109.783.017c-4.142 0-7.5 3.359-7.499 7.501s3.359 7.5 7.501 7.499l109.787-.017c14.623-.011 28.249-7.884 35.559-20.545l.268-.463c5.04-8.73 14.434-14.153 24.522-14.153 92.485-.1 74.97-.083 77.4-.083 5.396 0 9.77 4.366 9.77 9.771v63.421h-3.133c-13.345 0-24.205-10.857-24.208-24.202 0-.548-.002-23.788-.002-24.198 0-4.142-3.359-7.5-7.501-7.499s-7.5 3.359-7.499 7.501l.002 20.756c-5.724 8.966-15.773 14.197-26.464 13.685-4.626-.218-9.202-1.558-13.235-3.877-.038-.022-.076-.044-.115-.066-4.651-2.701-8.497-6.606-11.126-11.298-2.024-3.613-6.594-4.904-10.209-2.877-3.614 2.024-4.902 6.595-2.877 10.208 3.232 5.77 7.693 10.747 13.04 14.584v88.797c-6.034-2.643-11.724-6.024-16.999-10.108-5.566-4.309-12.515-6.683-19.569-6.686l-191.818-.018-25.37-29.085c-2.723-3.122-7.46-3.444-10.582-.722-3.121 2.723-3.445 7.46-.722 10.582l25.763 29.536v109.896h-95.442v-163.084c0-32.935 26.794-59.732 59.729-59.738l76.031-.017c4.142-.001 7.5-3.359 7.499-7.501s-3.359-7.5-7.501-7.499l-76.031.017c-41.205.007-74.727 33.534-74.727 74.738v169.464c0 4.753 3.867 8.62 8.62 8.62h108.205c4.753 0 8.62-3.867 8.62-8.62v-111.586l187.726.018c3.747.001 7.437 1.261 10.389 3.546 7.981 6.179 16.767 11.003 26.182 14.382v93.644c0 4.75 3.865 8.615 8.615 8.615h115.577c4.75 0 8.615-3.865 8.615-8.615v-33.562c0-4.142-3.358-7.5-7.5-7.5s-7.5 3.358-7.5 7.5v27.178h-102.808c0-58.094 0-126.987 0-185.202 13.563 3.454 28.098.331 39.103-8.596 4.484 10.523 13.443 18.702 24.471 22.131-8.048 12.108-6.133 28.479 4.983 38.393-6.077 5.419-9.909 13.304-9.909 22.068 0 16.304 13.264 29.567 29.567 29.567h14.593v19.459c0 4.142 3.358 7.5 7.5 7.5s7.5-3.358 7.5-7.5v-19.536c12.086-.97 21.625-11.116 21.625-23.448v-12.086c0-4.4-1.215-8.521-3.326-12.047 6.689-4.153 11.153-11.565 11.153-20.001v-12.087c0-6.185-2.4-11.821-6.317-16.024 3.917-4.204 6.317-9.839 6.317-16.024v-12.087c0-6.181-2.396-11.813-6.309-16.016 3.913-4.203 6.309-9.835 6.309-16.016v-12.087c0-12.971-10.553-23.524-23.524-23.524h-5.928v-11.838c-.001-1.754.669-3.439 1.836-4.622zm3.612 75.579c.317.02.552.018.917.011 4.497.229 8.086 3.96 8.086 8.513v12.087c0 4.7-3.824 8.524-8.524 8.524h-30.409v-29.135zm-49.609 58.703c0-8.033 6.535-14.567 14.567-14.567h35.521c4.7 0 8.524 3.824 8.524 8.524v12.087c0 4.7-3.824 8.524-8.524 8.524h-35.521c-8.032-.001-14.567-6.536-14.567-14.568zm50.785 50.178c0 4.7-3.824 8.524-8.524 8.524h-27.693c-8.033 0-14.567-6.535-14.567-14.568s6.535-14.567 14.567-14.567h27.693c4.7 0 8.524 3.824 8.524 8.524zm7.827-144.476v12.087c0 4.553-3.588 8.284-8.086 8.513-.383-.007 2.967-.005-30.847-.005v-19.286c0-3.439-.696-6.77-2.021-9.834h32.43c4.7 0 8.524 3.825 8.524 8.525z"/></g></svg>