<svg id="Capa_1" enable-background="new 0 0 512.001 512.001" height="512" viewBox="0 0 512.001 512.001" width="512" xmlns="http://www.w3.org/2000/svg"><g><path d="m490.05 76.64c-12.901 0-25.033 5.027-34.16 14.153-7.478 7.469-12.2 16.961-13.666 27.245l-18.192-3.282-1.616-13.194c10.674-9.591 17.513-22.872 18.982-37.651l1.088-10.95c1.343-13.519-3.115-27.049-12.231-37.121-9.108-10.066-22.115-15.841-35.677-15.84-13.544 0-26.526 5.76-35.617 15.804-9.112 10.067-13.56 23.599-12.203 37.123l1.1 10.952c1.481 14.757 8.316 28.027 18.973 37.623l-1.623 13.254-29.001 5.232c-3.765.679-7.416 1.8-10.896 3.328-3.43-1.504-7.075-2.637-10.899-3.327l-28.998-5.229-1.616-13.198c10.674-9.591 17.514-22.873 18.982-37.651l1.088-10.952c1.343-13.518-3.115-27.048-12.232-37.121-9.108-10.064-22.115-15.839-35.677-15.838-13.545 0-26.527 5.76-35.618 15.804-9.112 10.068-13.56 23.599-12.202 37.123l1.1 10.952c1.481 14.757 8.316 28.026 18.972 37.622l-1.624 13.26-28.998 5.229c-3.824.69-7.469 1.823-10.899 3.327-3.479-1.528-7.13-2.648-10.896-3.328l-29-5.231-1.623-13.256c10.656-9.596 17.492-22.866 18.973-37.622l1.1-10.952c1.357-13.524-3.09-27.056-12.203-37.123-9.098-10.053-22.089-15.812-35.643-15.805s-26.549 5.78-35.653 15.84c-9.117 10.072-13.575 23.602-12.231 37.12l1.088 10.952c1.469 14.778 8.308 28.059 18.982 37.65l-1.616 13.194-18.192 3.282c-1.466-10.284-6.187-19.776-13.663-27.242-9.13-9.129-21.262-14.156-34.163-14.156-12.103 0-21.95 9.846-21.95 21.95v63.34c0 4.143 3.358 7.5 7.5 7.5s7.5-3.357 7.5-7.5v-63.34c0-3.832 3.118-6.95 6.95-6.95 8.895 0 17.26 3.468 23.56 9.767 6.293 6.286 9.76 14.65 9.76 23.554v139.861c-.464 9.392 2.712 18.944 9.602 26.442l81.446 88.626c2.803 3.05 7.547 3.249 10.597.447 3.05-2.803 3.25-7.548.448-10.598l-81.446-88.626c-4.02-4.38-5.84-9.86-5.646-15.394.219-5.223 2.342-10.374 6.371-14.351 8.318-8.212 21.838-8.195 30.137.034l115.996 115.018c16.349 16.211 25.726 38.714 25.726 61.737 0 12.937-2.957 25.939-8.552 37.603-5.809 12.11-8.991 25.058-9.459 38.479-.144 4.14 3.095 7.613 7.234 7.757.089.004.177.005.266.005 4.021 0 7.349-3.188 7.491-7.238.395-11.343 3.084-22.282 7.993-32.516.904-1.884 1.743-3.8 2.528-5.739.785 1.939 1.624 3.855 2.528 5.738 4.908 10.234 7.598 21.174 7.993 32.517.142 4.05 3.47 7.238 7.491 7.238.088 0 .177-.001.266-.005 4.14-.144 7.378-3.617 7.234-7.757-.468-13.422-3.65-26.369-9.459-38.48-5.595-11.662-8.552-24.665-8.552-37.602 0-23.023 9.377-45.526 25.726-61.737l115.994-115.02c8.3-8.229 21.82-8.245 30.137-.032 4.028 3.975 6.15 9.124 6.37 14.346.194 5.535-1.625 11.017-5.646 15.398l-81.446 88.626c-2.803 3.05-2.603 7.795.448 10.598 3.049 2.804 7.793 2.602 10.597-.447l81.446-88.626c6.889-7.497 10.065-17.048 9.602-26.44v-139.863c0-8.903 3.466-17.268 9.763-23.557 6.296-6.296 14.662-9.764 23.557-9.764 3.833 0 6.95 3.118 6.95 6.95v192.08c0 6.237-1.815 12.285-5.25 17.488l-9.42 14.27c-2.282 3.457-1.33 8.109 2.127 10.391 1.272.841 2.707 1.242 4.125 1.242 2.435 0 4.824-1.185 6.266-3.369l9.42-14.271c5.057-7.663 7.73-16.567 7.73-25.751v-192.079c.001-12.104-9.845-21.95-21.949-21.95zm-95.387 37.28c4.723 0 9.441-1.024 13.782-3.048l1.128 9.207c-3.268 6.815-9.737 9.295-14.953 9.295-5.215 0-11.685-2.48-14.953-9.295l1.132-9.243c4.365 2.048 9.113 3.085 13.864 3.084zm-31.881-51.539-1.1-10.952c-.935-9.313 2.126-18.629 8.399-25.56 6.346-7.01 15.044-10.869 24.496-10.869 9.47 0 18.194 3.873 24.558 10.905 6.28 6.938 9.352 16.26 8.426 25.572l-1.088 10.95c-1.497 15.062-10.486 28.037-24.047 34.71-4.867 2.394-10.68 2.392-15.549-.01 0 0 0 0-.001 0-13.574-6.688-22.581-19.678-24.094-34.746zm-120.602 48.455c4.365 2.049 9.113 3.084 13.865 3.084 4.723 0 9.441-1.024 13.781-3.048l1.128 9.209c-3.266 6.81-9.736 9.289-14.953 9.289s-11.687-2.479-14.953-9.289zm-18.016-48.455-1.1-10.952c-.935-9.313 2.126-18.629 8.398-25.559 6.345-7.011 15.043-10.87 24.496-10.87 9.47 0 18.194 3.873 24.558 10.904 6.28 6.939 9.352 16.261 8.426 25.572l-1.088 10.952c-1.497 15.062-10.486 28.036-24.046 34.709-4.866 2.394-10.68 2.392-15.55-.01-13.575-6.688-22.582-19.678-24.094-34.746zm-106.826 51.539c4.751 0 9.499-1.035 13.864-3.084l1.132 9.243c-3.268 6.814-9.737 9.295-14.953 9.295-5.215 0-11.685-2.48-14.953-9.295l1.128-9.208c4.341 2.025 9.058 3.049 13.782 3.049zm-31.81-51.491-1.088-10.952c-.926-9.312 2.146-18.633 8.426-25.571 6.36-7.027 15.075-10.9 24.54-10.905 9.458-.005 18.165 3.856 24.514 10.869 6.272 6.931 9.333 16.246 8.399 25.56l-1.1 10.952c-1.513 15.068-10.52 28.059-24.093 34.747 0 0 0 0-.001 0-4.871 2.401-10.684 2.403-15.549.01-13.561-6.674-22.551-19.649-24.048-34.71zm-15.257 174.728v-103.966l20.265-3.656c5.694 9.178 15.671 14.839 26.845 14.839 11.173 0 21.152-5.661 26.846-14.839l26.765 4.829c-8.285 8.749-13.282 20.531-13.282 33.336v113.08l-40.371-40.03c-12.796-12.691-32.891-13.89-47.068-3.593zm324.391 3.592-40.37 40.03-.001-32.929c0-4.143-3.358-7.5-7.5-7.5s-7.5 3.357-7.5 7.5v43.465c-.011 5.76-4.699 10.443-10.461 10.443-5.769 0-10.462-4.693-10.462-10.463l.001-101.522c0-4.142-3.358-7.5-7.5-7.5s-7.5 3.358-7.5 7.5l-.001 101.522c0 10.829 6.798 20.095 16.348 23.77l-41.049 40.703c-5.842 5.793-10.921 12.275-15.165 19.247v-77.328c0-4.143-3.358-7.5-7.5-7.5s-7.5 3.357-7.5 7.5v77.329c-4.244-6.973-9.323-13.455-15.166-19.248l-41.049-40.703c9.551-3.674 16.349-12.941 16.349-23.77l-.001-101.522c0-4.143-3.358-7.5-7.5-7.5s-7.5 3.358-7.5 7.5l.001 101.522c0 5.77-4.693 10.463-10.462 10.463s-10.462-4.693-10.462-10.462c0-28.655 0-95.673 0-123.595 0-16.213 11.583-30.07 27.541-32.949l28.904-5.212c5.694 9.173 15.671 14.831 26.845 14.831s21.151-5.658 26.845-14.831l28.903 5.212c15.958 2.879 27.542 16.736 27.542 32.949v45.149c0 4.143 3.358 7.5 7.5 7.5s7.5-3.357 7.5-7.5v-45.15c0-12.805-4.997-24.587-13.282-33.336l26.765-4.828c5.695 9.178 15.672 14.838 26.846 14.838s21.152-5.661 26.846-14.839l20.264 3.656v103.965c-14.18-10.296-34.274-9.095-47.069 3.593z"/><path d="m473.433 349.511c-3.458-2.282-8.11-1.331-10.391 2.127l-68.63 103.95c-9.491 14.375-15.372 31.043-17.007 48.2-.393 4.124 2.631 7.785 6.755 8.178.242.023.482.035.72.035 3.821 0 7.087-2.908 7.458-6.789 1.403-14.724 6.449-29.025 14.592-41.36l68.63-103.95c2.281-3.457 1.329-8.109-2.127-10.391z"/><path d="m20.25 308.159c-3.434-5.204-5.25-11.252-5.25-17.489v-93.74c0-4.143-3.358-7.5-7.5-7.5s-7.5 3.357-7.5 7.5v93.74c0 9.184 2.673 18.088 7.731 25.753l65.05 98.52c1.442 2.184 3.831 3.368 6.266 3.368 1.419 0 2.854-.402 4.125-1.242 3.457-2.282 4.409-6.935 2.126-10.392z"/><path d="m117.589 455.587-13-19.689c-2.282-3.455-6.935-4.408-10.391-2.126s-4.409 6.935-2.126 10.392l13 19.688c8.144 12.335 13.189 26.637 14.592 41.36.37 3.881 3.636 6.789 7.458 6.789.238 0 .479-.012.72-.035 4.124-.393 7.147-4.054 6.755-8.178-1.636-17.157-7.516-33.825-17.008-48.201z"/></g></svg>