<svg id="Layer_1" enable-background="new 0 0 512 512" viewBox="0 0 512 512" xmlns="http://www.w3.org/2000/svg"><path clip-rule="evenodd" d="m89.96 230.71-1.11-44.5c5.27 1.62 10.09 4.45 14.06 8.19 6.69 6.24 11.06 15.02 11.45 24.8v.48c.03.08.03.17.03.28l.62 25.26-4.11-3.71c-6.03-5.47-13.26-9.09-20.94-10.8zm-3.66 208.69 109.64-.11-1.45-57.71c-.62-24.75-10.29-45.84-28.66-62.45-22.93-20.78-45.86-41.53-68.83-62.28-7.6-6.89-18.28-8.33-27.21-4.62l-.06.03c-3.34 1.42-6.41 3.54-8.99 6.38-9.5 10.49-8.67 26.82 1.81 36.28 22.51 20.38 28.94 26.19 48.73 44.11 3.37 3.06 3.97 8.11 1.36 11.85l-1.47 2.15c-1.53 2.21-3.71 3.51-6.41 3.83-2.69.31-5.1-.45-7.11-2.27l-48.98-44.33c-18.91-17.12-20.38-46.57-3.26-65.48 6.55-7.26 14.94-11.93 23.84-14l-1.67-66.36c-.34-14.12-12.19-25.37-26.31-25-14.12.34-25.37 12.19-25.03 26.31l4.28 170.02c.45 17.94 7.46 33.19 20.78 45.24l25.14 22.76c10.88 9.83 17.54 21.82 19.86 35.65zm130.94 20.55-150.29.14c-3.69.03-6.69 3.03-6.69 6.72l.06 38.49c0 3.69 3 6.69 6.69 6.69l150.29-.17c3.69 0 6.69-3 6.69-6.69l-.03-38.49c-.01-3.68-3.04-6.69-6.72-6.69zm180.39-239.98-.65 25.26 4.11-3.71c6.04-5.47 13.29-9.1 20.95-10.8l1.13-44.5c-5.3 1.62-10.09 4.45-14.09 8.19-6.69 6.24-11.06 15.02-11.45 24.8zm73.08-80.56c-14.12-.37-25.97 10.89-26.31 25l-1.67 66.36c8.9 2.07 17.29 6.75 23.84 14 17.12 18.91 15.65 48.36-3.26 65.48l-48.98 44.33c-1.98 1.81-4.42 2.58-7.11 2.27-2.66-.31-4.85-1.62-6.41-3.83l-1.47-2.15c-2.58-3.74-2.01-8.79 1.39-11.85 19.79-17.92 26.19-23.73 48.73-44.11 10.46-9.47 11.28-25.8 1.81-36.28-2.58-2.83-5.67-4.96-9.01-6.38l-.06-.03c-8.93-3.71-19.62-2.27-27.21 4.62-22.93 20.75-45.86 41.5-68.82 62.28-18.34 16.61-28.03 37.7-28.66 62.45l-1.45 57.71 109.64.11c2.32-13.83 8.99-25.82 19.87-35.66l25.14-22.76c13.29-12.05 20.3-27.3 20.75-45.24l4.28-170.02c.37-14.11-10.91-25.96-25.03-26.3zm-25.65 320.68-150.29-.14c-3.69 0-6.69 3-6.69 6.69l-.06 38.49c0 3.69 3 6.69 6.69 6.69l150.29.18c3.69 0 6.72-3 6.72-6.69l.03-38.49c0-3.69-3.01-6.7-6.69-6.73zm-91.05-396.36c17.55 0 31.86-14.31 31.86-31.86s-14.32-31.87-31.86-31.87c-17.55 0-31.86 14.31-31.86 31.86s14.31 31.87 31.86 31.87zm-196.02 0c17.57 0 31.89-14.31 31.89-31.86s-14.31-31.87-31.89-31.87c-17.55 0-31.86 14.31-31.86 31.86s14.32 31.87 31.86 31.87zm176.06 85.21v20.95c2.24 1.67 4.37 3.51 6.41 5.53.6.62 1.19 1.25 1.76 1.87h54.68c5.39 0 9.75-3.8 9.75-8.45v-45.18c0-19.13-18.06-34.78-40.11-34.78h-25.06c-13.38 0-25.31 5.75-32.6 14.57 14.85 10.02 25.17 25.98 25.17 45.49zm-218.95 28.34h54.68c.6-.62 1.16-1.25 1.79-1.87 2.01-2.01 4.17-3.86 6.41-5.53v-20.95c0-19.5 10.29-35.46 25.14-45.5-7.28-8.82-19.19-14.57-32.6-14.57h-25.06c-22.05 0-40.11 15.65-40.11 34.78v45.18c0 4.66 4.4 8.46 9.75 8.46zm140.91-98.36c20.49 0 37.25-16.72 37.25-37.25 0-20.52-16.75-37.25-37.25-37.25-20.52 0-37.25 16.72-37.25 37.25.01 20.53 16.73 37.25 37.25 37.25zm-61.54 82.35c20.55-6.86 44.16-2.13 60.46 14.15l1.08 1.08 1.08-1.08c16.27-16.27 39.91-21 60.43-14.15v-12.33c0-22.34-21.09-40.65-46.89-40.65h-29.28c-25.8 0-46.89 18.31-46.89 40.65v12.33zm134.31 25.82c-16.53-16.5-43.51-16.5-60.01 0l-12.76 12.76-12.76-12.76c-16.5-16.5-43.51-16.5-60.01 0-16.53 16.53-16.53 43.51 0 60.04l61.51 61.51c6.18 6.18 16.3 6.18 22.51 0l61.51-61.51c16.51-16.53 16.51-43.51.01-60.04z" fill-rule="evenodd"/></svg>