<svg id="Layer_1" enable-background="new 0 0 500 500" viewBox="0 0 500 500" xmlns="http://www.w3.org/2000/svg"><path clip-rule="evenodd" d="m244.483 342.588c-8.751 3.317-14.846 11.247-15.739 20.124-.045.446-.397.788-.844.82-59.732 4.383-74.204 3.665-134.534-1.946-.454-.041-.804-.403-.83-.858l-1.635-28.458c-.027-.466.297-.872.756-.952l154.106-26.704c.475-.082.931.217 1.045.687 2.67 11.101 4.713 22.003 6.182 33.313.055.425-.182.82-.582.972zm-147.982-40.709c.342.26.804.251 1.135-.023.545-.45 1.113-.881 1.703-1.289 20.194-13.948 41.985-21.081 63.792-32.166 7.544-3.835 15.094-7.66 22.562-11.644 4.92-2.623 19.162-7.891 22.659-11.151.008-.007.014-.014.021-.021 6.052-6.025 15.29-14.088 25.466-21.846.241-.184.367-.448.359-.75-.008-.303-.148-.56-.398-.731l-12.825-8.774c-.346-.237-.794-.213-1.112.061-8.629 7.43-18.047 15.263-29.578 23.501-.018.013-.033.023-.051.034-15.119 9.322-75.082 24.057-93.45 51.258-3.992 5.917-3.435 11.142-.283 13.541zm147.545-71.759c-11.4 8.531-21.805 17.606-26.97 22.75-5.205 5.183-19.823 10.306-25.889 13.541-27.61 14.725-54.211 21.718-85.015 42.994-3.955 2.731-5.68 7.6-3.728 11.993l.339.763c.125.281 59.375-11.818 62.204-18.477.099-.234.269-.401.505-.493 2.926-1.149 5.927-2.213 8.982-3.215 28.438-9.326 61.545-13.294 82.067-30.578.034-.028.063-.051.1-.074l22.641-14.301c.268-.17.42-.439.426-.756s-.136-.592-.398-.771l-34.201-23.399c-.329-.225-.745-.216-1.063.023zm4.585-16.465c-.338.112-.569.387-.618.74-.049.352.095.68.389.88l49.936 34.165c.303.207.677.217.991.027 5.632-3.422 11.429-2.924 16.441-6.886.358-.283.86-.261 1.193.052l24.074 22.674c.092.087.185.146.304.19 29.429 11.081 78.961 15.939 110.224 9.196.258-.056.46-.202.594-.43.135-.228.164-.474.088-.728-10.937-36.23-36.228-82.993-63.632-107.275-29.863-26.461-51.998-30.815-90.244-25.368-4.224.602-8.39 1.343-12.494 2.227-.256.055-.456.199-.591.424s-.166.47-.093.722c8.471 29.383-8.048 59.944-36.562 69.39zm209.233 94.031c.294.06.573-.016.796-.217.222-.201.327-.47.297-.769-.598-5.999-1.547-12.01-2.822-18.03-.053-.248-.187-.443-.4-.58s-.446-.178-.694-.122c-33.503 7.508-66.295 3.961-98.53-8.198-.134-.051-.258-.068-.401-.056-33.829 2.885-65.245 10.837-95.32 21.604-.441.158-.69.618-.58 1.074 2.469 10.258 4.43 20.529 5.884 30.813.04.285.192.513.44.659.247.146.521.17.789.068l29.043-11.008c12.048-4.566 24.884-6.575 36.26 1.009l11.409 7.606c.314.209.702.208 1.015-.001 18.069-12.112 64.327-18.585 86.82-23.322 8.618-1.814 17.661-2.233 25.994-.53zm-23.169 13.945c-24.911 5.246-52.676 11.02-78.22 17.823-.267.071-.468.237-.588.486-8.19 16.946-9.951 10.005-4.136 27.671l1.813 5.506c.113.343.395.576.753.621 28.101 3.551 53.989 7.869 83.317 9.164 10.207.451 19.163-3.013 26.41-10.215 20.293-20.169 14.811-60.356-29.349-51.056zm-99.385 35.102c-.281-3.027-.826-5.92 2.901-11.499.14-.209.186-.439.137-.686s-.18-.442-.389-.582l-12.938-8.625c-7.075-4.716-15.846-2.611-23.798.403l-51.881 19.664c-4.959 1.88-8.153 7.094-6.61 12.168l.97 3.19c1.418 4.663 6.498 5.996 11.37 6.1l56.47 1.202c3.79.08 7.044-.319 10.684-1.375l15.598-4.53c.246-.071.432-.222.552-.449.12-.226.142-.465.063-.709-2.335-7.256-2.81-10.835-3.129-14.272zm-258.303-25.698-31.998-57.175c-1.859-3.323-5.201-5.217-9.001-4.969-3.94.257-7-.076-9.565 3.009-1.388 1.67-2.002 3.626-1.708 5.777l10.694 78.083c2.345 17.12 33.892 11.125 42.932 5.103.278-.185.425-.48.406-.813l-1.644-28.621c-.009-.145-.045-.267-.116-.394zm154.929-128.232c23.674-.623 42.359-20.319 41.737-43.992s-20.318-42.359-43.992-41.737c-23.673.623-42.359 20.318-41.736 43.992.622 23.673 20.318 42.359 43.991 41.737z" fill-rule="evenodd"/></svg>