<svg id="Layer_1" enable-background="new 0 0 96 96" viewBox="0 0 96 96" xmlns="http://www.w3.org/2000/svg"><path d="m9.617 35.83 4.752-3.692-1.281 13.177-6.486 20.279c-.374 1.17-.268 2.419.297 3.516.566 1.098 1.522 1.908 2.691 2.282.46.147.932.22 1.402.22.726 0 1.448-.174 2.114-.517 1.098-.566 1.908-1.522 2.282-2.691l5.803-18.145 3.806 1.944-1.794 12.506c-.174 1.216.137 2.429.878 3.418.74.988 1.818 1.629 3.033 1.803 1.216.175 2.43-.137 3.418-.878.988-.74 1.629-1.818 1.803-3.033l2.105-14.672c.347-2.42-.649-4.692-2.663-6.076l-4.895-3.364 2.471-9.241 5.401 5.466c.768.777 1.796 1.208 2.894 1.215h.025c1.089 0 2.112-.419 2.883-1.181.777-.768 1.209-1.796 1.215-2.894s-.413-2.131-1.181-2.908l-8.816-8.921c-1.047-1.059-2.275-1.657-3.754-1.827l-9.129-1.051c-1.736-.2-3.315.242-4.694 1.314l-9.617 7.471c-.863.67-1.413 1.64-1.55 2.729-.137 1.09.157 2.165.827 3.028.025.032.052.063.081.092 1.673 1.67 4.008 1.929 5.679.631zm3.909 31.978c-.215.672-.682 1.222-1.315 1.548-.634.326-1.352.388-2.024.173s-1.222-.682-1.548-1.315-.388-1.352-.173-2.024l6.167-19.281 4.795 2.449zm-8.552-35.486c.072-.571.359-1.079.809-1.428l9.617-7.471c.974-.757 2.044-1.057 3.27-.915l9.129 1.051c1.033.119 1.855.519 2.586 1.259l8.816 8.921c.401.405.619.946.616 1.521-.003.576-.229 1.114-.634 1.514-.402.398-.938.616-1.508.616-.004 0-.009 0-.013 0-.576-.003-1.113-.228-1.514-.634l-6.59-6.668c-.061-.064-.131-.12-.209-.166 0 0-.001 0-.001-.001-.106-.062-.221-.103-.339-.122-.14-.023-.28-.015-.411.021-.129.035-.253.096-.362.184-.092.074-.17.165-.231.269 0 .001 0 .001-.001.001-.047.08-.081.166-.103.254l-3.08 11.519c-.019.064-.031.13-.036.196-.012.143.009.285.056.415.049.134.127.258.233.362.045.045.096.085.15.121l5.446 3.743c1.409.968 2.078 2.494 1.835 4.186l-2.105 14.672c-.1.698-.469 1.318-1.039 1.745s-1.269.607-1.967.507-1.318-.469-1.745-1.039-.607-1.269-.507-1.967l1.893-13.198c.059-.414-.151-.82-.523-1.01l-5.437-2.777c-.011-.006-.022-.012-.034-.017l-5.951-3.04 1.406-14.459 1.865-1.449c.427-.331.504-.946.172-1.373-.331-.427-.946-.504-1.373-.172l-8.744 6.793c-.995.773-2.265.327-3.048-.426-.323-.443-.463-.986-.394-1.538zm19.542-11.78c.303.035.606.052.906.052 1.749 0 3.436-.585 4.827-1.689 1.63-1.293 2.659-3.144 2.897-5.211.491-4.267-2.581-8.138-6.848-8.63-4.267-.49-8.138 2.581-8.629 6.848-.238 2.067.343 4.103 1.636 5.733 1.294 1.631 3.145 2.659 5.211 2.897zm-4.904-8.406c.342-2.97 2.87-5.167 5.791-5.167.222 0 .446.013.671.039 3.195.368 5.496 3.267 5.128 6.462-.178 1.548-.949 2.934-2.169 3.902-1.22.969-2.746 1.404-4.293 1.226-1.548-.178-2.934-.949-3.902-2.169s-1.404-2.745-1.226-4.293zm73.245 27.96c.016-.027.031-.054.044-.082.014-.029.026-.058.037-.088s.02-.06.028-.09.014-.06.019-.09c.006-.035.009-.069.011-.105 0-.016.004-.031.004-.048v-17.14c0-.013-.003-.025-.004-.038-.001-.035-.005-.071-.011-.106-.005-.03-.009-.06-.017-.09-.007-.03-.017-.06-.028-.09-.012-.033-.024-.065-.039-.096-.006-.012-.009-.025-.015-.036-.008-.015-.019-.027-.028-.042-.018-.03-.036-.058-.057-.086-.019-.025-.039-.049-.06-.072s-.043-.045-.066-.066c-.024-.022-.049-.042-.074-.061s-.051-.035-.077-.051c-.027-.016-.054-.031-.082-.045-.029-.014-.058-.026-.088-.037s-.059-.02-.09-.028c-.03-.008-.06-.014-.091-.019-.034-.005-.069-.009-.104-.01-.016-.001-.032-.005-.049-.005-.013 0-.025.003-.038.004-.035.001-.07.005-.105.011-.031.005-.061.01-.091.017s-.059.017-.089.028c-.033.012-.066.024-.097.04-.012.006-.024.008-.036.015-3.25 1.714-6.581.946-10.107.133-3.498-.807-7.116-1.641-10.952-.182-.005.002-.009.005-.014.007-.036.014-.069.033-.103.051-.024.013-.049.024-.071.038-.027.018-.051.039-.076.06-.024.02-.05.038-.072.06-.021.021-.039.045-.059.068-.021.025-.043.048-.062.075-.018.026-.032.056-.048.084-.015.027-.031.052-.043.08s-.02.059-.03.088c-.01.031-.022.061-.029.093-.006.026-.007.053-.011.079-.005.038-.011.076-.012.115 0 .005-.002.01-.002.016v38.223h-6.143c-.54 0-.978.438-.978.978v2.769h-13.261c-.54 0-.978.438-.978.978v2.769h-13.263c-.54 0-.978.438-.978.978v2.769h-13.264c-.54 0-.978.438-.978.978v2.769h-13.264c-.54 0-.978.438-.978.978v13.365c0 .54.438.978.978.978h71.209c.54 0 .978-.438.978-.978v-28.355c0-.54-.438-.978-.978-.978h-6.143v-20.385c3.058-.937 6.041-.25 9.187.476 2.036.469 4.11.948 6.209.948 1.736 0 3.489-.327 5.251-1.257.015-.008.027-.019.041-.027.03-.018.059-.037.087-.058.025-.019.049-.038.071-.059.023-.021.045-.043.067-.067s.042-.048.061-.074c.017-.024.034-.05.051-.077zm-15.86 48.934h-69.253v-11.409h13.263c.54 0 .978-.438.978-.978v-2.769h13.265c.54 0 .978-.438.978-.978v-2.769h13.263c.54 0 .978-.438.978-.978v-2.769h13.263c.54 0 .978-.438.978-.978v-2.769h6.142.001s.001 0 .001 0h6.142v26.397zm4.461-50.169c-3.093-.713-6.279-1.447-9.626-.6v-15.11c3.058-.937 6.041-.249 9.186.476 2.036.47 4.11.948 6.209.948 1.264 0 2.537-.175 3.816-.628v15.033c-3.084 1.378-6.247.65-9.585-.119zm6.015-9.08c-.123-.378-.462-.644-.859-.673l-3.098-.226-1.172-2.876c-.15-.368-.508-.609-.906-.609s-.756.241-.906.609l-1.172 2.876-3.098.226c-.397.029-.736.295-.859.673s-.005.793.299 1.05l2.373 2.004-.742 3.016c-.095.386.053.791.375 1.025s.753.249 1.091.04l2.639-1.638 2.639 1.638c.158.098.337.147.516.147.202 0 .404-.063.575-.187.322-.234.47-.639.375-1.025l-.742-3.016 2.373-2.004c.303-.257.422-.672.299-1.05zm-4.398 1.95c-.284.24-.408.62-.319.981l.314 1.275-1.116-.692c-.158-.098-.337-.147-.516-.147s-.358.049-.516.147l-1.116.692.314-1.275c.089-.361-.035-.741-.319-.981l-1.003-.847 1.31-.096c.371-.027.694-.262.835-.606l.496-1.216.496 1.216c.14.344.464.579.835.606l1.31.096z"/></svg>