<svg id="Capa_1" enable-background="new 0 0 512 512" height="512" viewBox="0 0 512 512" width="512" xmlns="http://www.w3.org/2000/svg"><g><path d="m278.478 372.271 11.897 26.134h18.363l-15.494-31.016c8.985-2.947 15.494-11.409 15.494-21.366 0-12.397-10.086-22.5-22.484-22.5h-22.776v74.881h15zm0-33.733h7.776c4.127 0 7.484 3.357 7.484 7.484s-3.357 7.484-7.484 7.484h-7.776z"/><path d="m210.948 398.404h15v-59.948h22.5v-14.933h-59.999v14.933h22.499z"/><path d="m330.946 323.523h15v74.881h-15z"/><path d="m375.945 383.484h29.999v14.921h15v-44.857c0-16.542-13.458-30.025-30-30.025s-29.999 13.483-29.999 30.025v44.857h15zm14.999-44.936c8.271 0 15 6.728 15 15v14.936h-29.999v-14.936c0-8.271 6.728-15 14.999-15z"/><path d="m480.676 383.405h-29.733v-59.882h-15v74.881h44.733z"/><path d="m512 293.479h-353.525v134.869h233.208v15.233h-45.446v15h60.446v-30.233h105.317zm-15 119.869h-323.525v-104.87h323.525z"/><path d="m15 158.545h31.364v-15h-31.364v-75.126h376.684v75.126h-330.707v15h330.707v119.82h14.999v-224.946h-406.683v405.162h301.238v-15h-286.238z"/><path d="m316.238 443.581h15v15h-15z"/><path d="m248.474 278.626v-89.998h-89.998v89.998zm-74.999-74.999h59.999v59.999h-59.999z"/><path d="m368.737 278.626v-89.998h-89.998v89.998zm-74.999-74.999h59.999v59.999h-59.999z"/><path d="m128.863 188.627h-89.999v89.998h89.998v-89.998zm-15 74.999h-59.999v-59.999h59.999z"/><path d="m38.864 405.981h89.998v-89.998h-89.998zm15-74.998h59.999v59.999h-59.999z"/><path d="m158.475 106.281c0-12.3-10.007-22.306-22.306-22.306s-22.306 10.007-22.306 22.306 10.007 22.306 22.306 22.306 22.306-10.006 22.306-22.306zm-29.612 0c0-4.029 3.278-7.306 7.306-7.306 4.029 0 7.307 3.277 7.307 7.306s-3.278 7.306-7.307 7.306c-4.029.001-7.306-3.276-7.306-7.306z"/><path d="m293.608 106.281c0-12.3-10.007-22.306-22.306-22.306s-22.306 10.007-22.306 22.306 10.007 22.306 22.306 22.306 22.306-10.006 22.306-22.306zm-29.613 0c0-4.029 3.278-7.306 7.306-7.306s7.306 3.277 7.306 7.306-3.278 7.306-7.306 7.306-7.306-3.276-7.306-7.306z"/><path d="m31.307 83.369h15v15h-15z"/><path d="m61.179 83.369h15v15h-15z"/></g></svg>