<svg height="512" viewBox="0 0 60 60" width="512" xmlns="http://www.w3.org/2000/svg"><g id="b" fill="rgb(0,0,0)"><path d="m59.383 30.504c.789-.755.618-2.053-.19-2.731-.336-.382-.696-.737-1.052-1.098.418-.426.836-.853 1.255-1.28.517-.525-.28-1.298-.792-.792-.427.419-.855.838-1.282 1.257-.446-.421-.896-.837-1.36-1.24-.555-.52-1.405-.617-2.052-.247-.469.237-1.102 1.206-1.458 1.541-.176.215-.516.612-.838.987-5.051-3.402-10.898-3.639-15.885-1.686-.319-.623-.689-1.245-1.045-1.812-.368-.584-.166-1.279.122-1.856 1.649-4.294 2.512-8.966 2.047-13.561-.665-4.229-4.575-7.612-8.833-7.677-5.626-.1-12.558-.036-18.124.244-4.466.204-8.334 4.144-8.359 8.613-.036 3.879.574 7.718 1.883 11.359.391 1.057 1.067 2.198.295 3.236-2.911 4.299-3.866 9.845-2.561 14.881 1.377 4.779 4.607 10.536 10.119 10.923l14.999.285c4.845 9.348 17.803 12.965 26.797 5.622 6.761-5.362 8.529-15.589 4.056-22.995.432-.379.979-.863 1.251-1.088.263-.235.758-.645 1.007-.885zm-4.827-4.605c.132-.121.08-.054.111-.07.029.003.064.049.034.065.394.435.802.892 1.218 1.344-1.326 1.3-2.656 2.597-3.986 3.893-.086-.377-.127-.787-.241-1.113l-.148-.737c-.058-.367-.171-.56-.017-.776.852-.79 2.153-1.824 3.029-2.606zm-8.452 16.101c.055 5.994-8.617 6.027-8.625 0 .308-3.886 4.209-4.973 6.665-3.391-.949.897-1.896 1.795-2.852 2.684-.984.954.471 2.391 1.414 1.414.887-.954 1.783-1.898 2.677-2.845.375.587.643 1.289.72 2.138zm-.48-4.784c-3.328-2.329-9.137-.709-9.105 4.784.428 7.194 10.92 7.255 11.375 0 .015-1.511-.408-2.722-1.093-3.644.455-.478.915-.951 1.372-1.428 1.168 1.416 1.894 3.199 1.931 5.072.268 7.391-8.963 11.429-14.187 6.083-5.272-5.265-1.336-14.454 6.082-14.213 1.903.019 3.678.762 5.079 1.95-.485.465-.967.933-1.454 1.396zm2.871-2.757c-1.784-1.525-4.089-2.44-6.495-2.327-8.433.093-12.677 10.671-6.646 16.514 5.888 5.958 16.42 1.819 16.541-6.645.132-2.429-.801-4.729-2.348-6.501.472-.49.941-.983 1.414-1.471 1.862 2.057 3.072 4.781 3.144 7.972.202 10.984-13.203 16.752-21.016 8.911-4.83-4.676-4.743-13.105.191-17.63 5.038-4.819 12.209-4.183 16.686-.236-.489.473-.982.942-1.471 1.414zm-29.587 13.832c-2.519.056-5.102.117-7.569.115-1.176-.048-2.343-.378-3.351-.977-7.138-5.088-8.588-16.12-3.613-23.224.654-.864.623-2.168.158-3.085-.571-1.452-1.01-2.955-1.337-4.482-1.274-6.072-1.673-13.211 5.89-14.737.501-.096 1.311-.087 1.819-.098 3.138.011 6.339-.102 9.469-.001l7.567.245c3.443.126 6.5 2.865 6.978 6.26.315 4.361-.544 8.878-2.114 12.946-.437 1.001-.328 2.237.272 3.154.332.484.679 1.02.985 1.558-1.735.887-3.33 2.046-4.706 3.435-1.255-3.967-5.128-6.969-9.296-7.216-4.727-.399-9.344 2.687-10.813 7-3.415 9.449 6.656 17.537 15.109 13.205.008.157.006.312.018.47.107 1.886.505 3.648 1.128 5.271-1.977.062-4.989.115-6.593.159zm8.312-16.285c-.08-.205-.169-.418-.271-.637-.279-.6-.622-1.217-.931-1.671-.309-.455-.585-.747-.729-.696-.144.029-.238.17-.209.315.186.738.447 1.442.781 2.11.167.334.352.659.555.974.092.143.201.276.3.414-.226.379-.438.767-.635 1.165-.177-.301-.365-.607-.561-.916-.174-.273-.353-.546-.537-.815-.394-.577-.81-1.134-1.211-1.642-.362-.458-.701-.854-1.014-1.088-.051-.038-.117-.042-.172-.015-.077.038-.123.109-.122.176.002.094.021.204.071.313.454.981 1 1.916 1.597 2.818.028.042.056.084.084.126.273.407.558.806.857 1.197.192.251.401.491.603.736-.193.453-.369.915-.523 1.389-.339-.499-.697-1-1.063-1.501-.261-.357-.525-.715-.795-1.066-.576-.748-1.174-1.477-1.77-2.177-.468-.55-.929-1.065-1.392-1.486-.068-.062-.17-.071-.249-.023-.098.059-.137.175-.096.268.056.127.122.262.204.396.741 1.217 1.552 2.389 2.412 3.527.04.053.08.106.121.159.391.512.793 1.017 1.207 1.514.374.448.763.886 1.155 1.322-.148.565-.278 1.139-.368 1.728-.935-1.29-1.917-2.542-2.911-3.784-1.326-1.565-2.64-3.141-4.099-4.596-.086-.086-.223-.102-.327-.032-.119.08-.15.241-.071.359 1.177 1.687 2.418 3.322 3.722 4.906 1.143 1.388 2.344 2.729 3.583 4.037-.018.182-.038.363-.051.547-1.113.989-2.41 1.596-3.767 1.873.079-.515-1.059-1.899-2.211-3.169-.095-.105-.19-.213-.287-.318-.661-.72-1.351-1.434-1.989-2.057-.452-.442-.861-.824-1.177-1.093-.075-.064-.156-.088-.212-.075-.093.021-.152.069-.157.113-.067.547.97 1.795 2.131 3.074.099.109.198.219.298.329.679.741 1.389 1.474 2.049 2.116.366.356.709.676 1.001.943.082.074.208.144.317.194-.787.137-1.59.157-2.387.083-.311-.438-.81-.997-1.379-1.575-.642-.653-1.357-1.321-1.942-1.839s-1.04-.884-1.16-.933c-.937-.156.051 1.087 1.334 2.392.601.612 1.26 1.228 1.823 1.73-3.198-.76-6.051-3.126-6.884-6.534-1.843-6.273 3.695-12.611 10.126-11.691 3.862.447 6.996 3.482 7.982 7.175-.228.297-.446.603-.655.915zm25.295 22.792c-10.352 8.661-26.46 1.526-26.805-12.001-.463-13.036 13.927-21.023 24.867-14.41-.017.075-.03.151-.028.22.006.434.127.614.174.866.18.657.358 1.378.508 2.047-5.144-4.384-13.414-4.891-18.896.816-5.133 5.128-5.045 14.159.191 19.139 8.479 8.452 23.176 2.586 23.369-9.474.072-3.7-1.243-6.836-3.342-9.189l.09.023 1.45.4c.486.134 1.078.381 1.598.256 4.538 6.527 3.088 16.305-3.176 21.306zm4.764-24.504c-.454.519-1.276 1.479-1.729 1.983-.125.188-.293.198-.497.151l-.742-.126c-.261-.066-.896-.162-1.408-.267 1.28-1.314 2.561-2.627 3.845-3.937.448.445.904.868 1.374 1.212-.169.245-.642.732-.843.985z"/><path d="m10.694 18.716c3.146-1.598 6.803-2.188 10.278-1.706 1.979.26 3.886.892 5.652 1.805.361.187.539.309.967.518 1.34.674 3.148-.238 3.398-1.692l.132-.53c1.154-5.515 2.107-12.278-5.762-11.656-2.383.027-6.083-.04-8.436.105l-4.213.126c-2.277-.11-4.696.34-5.705 2.669-.835 2.067-.262 4.333-.076 6.473.347 1.389.176 3.571 1.805 4.167.622.263 1.434.045 1.959-.279zm-.028-12.12c1.373-.067 4.844-.03 6.269-.075 2.353-.04 6 .193 8.377.272 1.841-.018 3.863.162 4.588 2.114.623 2.396-.135 5.331-.677 7.718-.233.855-.234.785-.472.898-.107.03-.223.02-.329-.029-2.214-1.268-4.718-2.031-7.253-2.263-3.653-.326-7.378.394-10.58 2.16l-.874.498c-.902.346-1.233-.383-1.41-1.204-.729-3.26-2.5-9.459 2.361-10.089z"/><path d="m16.223 33.062c-.08-.075-.189-.094-.27-.054-.105.052-.151.156-.114.236.488 1.046 1.57 2.389 2.728 3.746.116.136.231.272.348.408.784.911 1.598 1.807 2.403 2.643.403.419.799.816 1.172 1.184.194.19.459.025.375-.141-.472-.939-1.489-2.354-2.683-3.761-.109-.129-.216-.26-.327-.388-.749-.868-1.522-1.724-2.283-2.523-.472-.495-.928-.956-1.349-1.35z"/></g></svg>