<svg id="uuid-0d4b5468-b570-47fb-9d0f-5ed0b4d252d1" enable-background="new 0 0 512 512" viewBox="0 0 512 512" xmlns="http://www.w3.org/2000/svg"><g><path d="m430.2 255c0-9.2-7.5-16.7-16.7-16.7-22.2.9-22.2 32.6 0 33.5 9.2-.1 16.7-7.6 16.7-16.8zm-16.7 4.7c-6.3-.2-6.3-9.3 0-9.5 6.3.2 6.3 9.3 0 9.5z"/><path d="m498.7 247.1c-.2-9.8-5.7-18.7-14.3-23.4l-22.3-12.1c-7.9-4.3-17.6-4.4-25.6-.3l-10.6-5.8c-8.6-4.7-19.1-4.4-27.4.7l-21.7 13.2c-8.3 5.1-13.4 14.3-13.1 24.1l.6 25.4c.2 9.8 5.7 18.7 14.3 23.4l22.3 12.1c3.9 2.1 8.1 3.2 12.4 3.3-5.3 15-15 31.3-23.7 41.3-3.6 4.1-7.7 8-11.5 12.2-4.7-10.1-9.3-20.3-14-30.4-1.4-3-2.7-5.8-3.5-8.7-1.5-5.3-1.4-11-1.3-17.1 1.1-24.6-6.3-48.9-20.8-62.3-14.1-13.5-35.1-18.7-51.9-22.9-10.5-2.5-22.6-7.5-29.4-13.1-.8-.6-1.2-1.7-1.1-2.8.4-3.5 1.5-14.1 5.9-18.1 5.8-5.2 15.8-3.8 23.1-1.6 4.2 1.5 9.1 0 11.1-4.8 6.5-14 9.2-26.2 8.2-37.8 3.6-2.3 6.8-5.1 9.5-8.4 1.9-2.4 1.6-5.4 0-7.8-2.1-3.8-4.2-7.5-6.3-11.3-1-1.8-2.1-3.7-2.5-5.5-.4-2.1 0-4.6.5-7.5.5-2.6 1-5.5.9-8.6-.1-25.8-9.4-50.4-31.8-63.7-22.4-14-62-11.7-84.3 8.4-1.7-1.1-3.5-1.8-5.4-2.1-17.1-23.1-52-22.1-71.9-1.4-24.4 24.6-20 61.6-9.1 90.4 5.2 15.4 12.4 26.4 15.1 42.8 2.1 12.1 2 29.9-8.8 44.3-1.5 2.4-1.1 5.7 1 7.6 2.3 2.1 6.1 2.1 8.3-.1 21.9-23.5 43-61.9 37.6-90.4-3.9-20.4-4.3-25.3-4-47.8 0-1.9.7-4 1.9-6.2.8-1.5 2-2.6 3.1-2.8 2.6-.3 6.8 1.3 9.7 1.4-6.8 20.4-1.5 43.6 11.4 62.6 9.1 13.8 10.5 19.9 7.1 38-3.3 16.4-13.5 30.8-27.5 38.6-17 9.3-38.2 10.3-55.6 20-18.5 10.2-31.8 29.6-34.6 50.5-1.9 13.3.6 26.8-.9 39.7-1.1 9.5-4.4 18.7-7.9 28.4-13.4 37.3-27.5 84.7-17 131.3.4 2 1.8 3.6 3.7 4.3 7 2.7 15.3 4 24.8 4 32-.1 68.3-.1 101.9-11.6 21 4.5 49.5 12.2 69.9 12.2 23.4-.4 50.1-6.7 68.1-25.2 1.2-1.3 1.8-3.2 1.5-5-1.4-8.7-2.6-17.4-3.8-25.9-1.7-13.1-6.1-27.2-5.7-40.4 9.3 18.7 19.8 36.9 31.2 54.2 9 14.4 22 29.4 39.9 31.7 7.9 1.1 15.9-2.8 20-9.9 26.2-45.1 41.1-79.7 52.5-122.2 3.4-12.4 7-25.2 13.4-36 2.7-.7 23-13.7 25.9-15.3 8.3-5.1 13.4-14.3 13.1-24.1 0-.3-.6-25.7-.6-25.7zm-114.2 34.6c-4.8-2.6-7.9-7.7-8-13.1l-.6-25.4c-.1-5.5 2.7-10.7 7.4-13.5 0 0 21.7-13.2 21.7-13.2 4.7-2.9 10.6-3 15.4-.4 0 0 22.3 12.2 22.3 12.2 4.3 2.3 7.2 6.6 7.9 11.4.1.5.1 1.1.1 1.7 0 0 .6 25.4.6 25.4.1 5.5-2.7 10.7-7.4 13.5 0 0-21.7 13.2-21.7 13.2-4.6 2.8-10.6 3-15.4.4 0 0-22.3-12.2-22.3-12.2zm-93.3 115.5c-7.1 1.8-14.4 2.8-21.7 2.9-16.7-12-41.8-10-59.5 1.9-18.8-.8-37.6-2.7-56.1-6.2-.5-4.2-1.1-8.3-1.9-12.5 47.1 3.1 93.8 9.9 140.1 2.4-.7 3.5-1 7.3-.9 11.5zm-154.6-27.5c4.1 14.8 6.4 30.2 6.8 45.6-9.3-1-18.7-1.4-26.1-.9 1.8-7 6.4-14.4 9.9-21.3 3.8-7.5 6.9-15.3 9.4-23.4zm18.8 46.8c0-2.7-.1-5.5-.3-8.2 13.5 2.4 27.1 4.1 40.8 5-1.4 1.3-2.8 2.7-4.1 4.2-11.3 1-24.2.1-36.4-1zm142.3-44.2s0 .1 0 0c-46.2 9.8-99.1 2.1-148.3-1.2 28.3-14.5 30.8-36.7 21.5-63.6-8.2-26-18.9-51-24.5-77.7 3.2-1 6.4-2.1 9.5-3.4 7.6 21.4 16.6 42.6 26.7 62.9 2 3.9 4 7.7 7.1 11 4.4 4.4 9.1 7 13.8 10.5 3.3 2.3 6.2 4.7 10.7 6.1 3.7 1.1 7.6.8 11.2.4 0 0 26.2-2.6 26.2-2.6 3.6-.4 8.6-.9 12.8-3.8 10.6-8.6 14.5-24.8 12.4-37.6-.8-4.7-2.2-9.1-3.7-13.4-3.2-9.6-6.9-22.6-8.9-35.2 2.5 1.1 5.1 2.2 7.9 3.2 2.7 16.4 9.4 37.2 19.8 52.5 19 27.3 24.8 65 5.8 91.9zm-142-312.8c-8.8 1.5-14.6 12.3-14.6 20.6-.3 23.3.2 29 4.2 50.2 2.3 11.9-2 30.9-13.3 51 .8-15.6-4.7-33.1-10.7-46-2-4.7-4.1-9.7-6-15.2-9.2-24.6-14.4-57.2 6.3-78 14-14.6 37.9-17 51.9-2.2-4.5 5.9-6.8 13.2-7 20.5-3.2-.7-6.5-1.7-10.8-.9zm28.1 59.8c-8.5-17.6-9.2-32.3-2.4-49.2 6.6-17 22.5-32.1 40.1-35.9 29.2-6.6 53 .6 66.1 25.4-19 1.2-34.9 17.6-43.1 35.9-6.9-3.4-15.1-1.3-20 5-5.1 6.3-5.8 17.5-2.8 25.3-.1 6-3.1 12-7.9 15.5-4.1 3.1-9.6 4.6-15.1 5.9-2.9-10.2-10.3-18.8-14.9-27.9zm14.3 56.3c.9-4.6 1.8-10.5 1.8-16.3 12.8-2.8 25.3-7.7 31-21.2 1.6 1 3.4 2.2 5.3 2.2 2.3 0 4.4-1.3 5.5-3.5 1.4-3 .1-6.6-2.9-8-6.9-3.3-9.1-14.8-4.9-21 1.1-1.4 2.7-2.2 3.9-2 .9.1 2.2.8 3.1 1.6 4.2 4 11.5 2 13.1-3.5 4.8-15.1 22.7-35.8 38.3-31.7 1.3 5.4 2.1 14.1 2.3 20.6.1 1.8-.3 3.9-.7 6.1-.6 3.6-1.4 7.7-.4 12.1.7 3.5 2.4 6.5 3.8 8.9 1.6 2.9 3.2 5.7 4.8 8.6-2 1.8-4.2 3.3-6.5 4.5-2.4 1.2-3.7 3.7-3.3 6.3 1.5 9.9-.3 20.3-5.8 32.8-27.6-6.8-40.3 5.9-42.2 30.5-.7 5.8 2.1 11.4 7 14.5 1.4 16.2 6.4 34.1 10.5 46.6 4.6 12.1 5.5 23.5-1.8 34.6-2.2 3.9-5.2 4-9.5 4.5 0 0-26.2 2.6-26.2 2.6-7 1-8.3-.5-13.8-4.4-3.9-2.9-8.7-5.7-12.1-9-2-2.1-3.4-4.9-5-8-10.2-20.3-19.1-41.5-26.6-62.9 15.9-9.8 27.5-26.6 31.3-45.5zm-126.8 302.4c-6.7 0-12.5-.7-17.5-2.2-4.9-21.3-5.3-60.5 17.3-121.3 3.6-9.9 7.2-20.1 8.5-31.1.8-6.8.6-13.5.4-20-.2-6.8-.4-13.2.5-19.5 2.3-17.3 13.3-33.2 28.5-41.6 7.8-4.3 16.6-6.7 25.8-9.3 5.8 27.1 16.4 51.9 24.6 78 6.8 20.9 7.5 36.6-13.5 48.2-1.4-4.3-2.9-8.6-4.5-12.7 1.4-11.4 1.5-23 .1-34.3-.4-3.3-3.4-5.6-6.7-5.2s-5.6 3.4-5.2 6.7c1.4 11.1 1.3 22.4-.3 33.6-2 14.2-6.3 27.8-12.7 40.4-4.7 9.1-10.3 17.9-11.8 28.4-6.2 1.3-12 3.3-17.1 6-6.9 3.9-1.6 14.1 5.6 10.6 5.3-2.8 11.2-4.7 18.2-5.7 25.1-3.5 57.9 5.8 84 2.1 1.4-.2 2.8-.9 3.7-1.9 4.5-5 9.2-9.3 13.9-12.7 15.5-11.9 38.8-15.1 52.8-1.8-2.4 15.5-9.4 36.3-19.8 48.2-.5.5-1.6 1.8-2.2 2.1-.6.2-2.1.1-2.9 0-6.8-.5-13.7-1.4-20.5-2.5-5.4-.9-10.7-1.9-16.5-1.9-10.6 0-20.3 3.5-29.7 6.9-33.1 12.3-68.7 12.4-103 12.5zm211.8-7.7c-29.8 12.9-54.3 8.3-87 .9 7.5-1.6 14.7-.3 22.3 1 7.2 1.2 14.4 2.1 21.5 2.6 2 .2 5 .4 8.1-.7 16.7-8.1 29-47.5 29.9-62.5 4.8-.5 9.6-1.3 14.4-2.4 1.3 8.8 3.6 18.3 4.8 26.8 1 7.6 2.1 15.4 3.3 23.2-4.4 4.2-10.6 8.2-17.3 11.1zm152.2-125.6c-11.2 41.4-25.7 75.2-51.3 119.3-1.7 2.9-4.8 4.4-8 4-14.2-1.9-24.2-14.8-31.5-26.4-13.4-20.3-25.4-41.9-35.8-64 20.6-30.9 14.8-72.9-6.5-103.7-8.6-12.5-14-28.7-17-42.2 16 4 33.8 8.6 45.3 19.6 16.5 16.6 17.3 38.1 17.1 53.4-.1 6.7-.2 13.6 1.7 20.6 1.1 3.8 2.6 7.2 4.1 10.5 5.5 12 11 23.9 16.5 35.9-5.4 7.6-9.8 15.9-13.1 24.7-1.2 3.1.4 6.6 3.5 7.7 3 1.2 6.6-.4 7.7-3.5 3.4-9 8.1-17.5 14-25.2 5-6.7 11.2-12.2 16.7-18.5 10.7-11.9 24.1-35.8 28.2-52.3.5-.3 1-.5 1.5-.8l21.7-13.2c8.3-5.1 13.4-14.3 13.1-24.1l-.5-18.5c2.9 1.7 7.2 4.7 8.6 7.5-.3 15.4-6.3 29.8-15.2 41.3-11 13.8-16.4 31.4-20.8 47.9zm44.7-58.4-5 3.1c4.5-9.1 7.4-19.4 8.4-30.2.2-2 .3-4.4-.4-7-2.6-8.4-13.8-15.2-21.5-18.1-1.5-5.2-4.6-9.9-8.7-13.4 1.9 0 23.7 12.5 25.9 13.5 4.8 2.6 7.9 7.7 8 13.1l.6 25.4c.2 5.6-2.6 10.8-7.3 13.6z"/></g></svg>