<svg id="Capa_1" enable-background="new 0 0 512.007 512.007" height="512" viewBox="0 0 512.007 512.007" width="512" xmlns="http://www.w3.org/2000/svg"><g><path d="m494.287 484.213c-111.281 0-263.051-6.57-354.121-37.872-3.918-1.347-6.002-5.613-4.655-9.53 1.347-3.919 5.617-5.999 9.53-4.655 40.709 13.992 98.16 24.178 169.824 30.289l10.143-40.276-13.202-5.007c-3.873-1.469-5.822-5.8-4.354-9.672 1.47-3.875 5.804-5.821 9.672-4.354l67.342 25.54 4.752-8.17c3.586-6.494 9.479-11.215 16.604-13.298 7.156-2.093 14.701-1.274 21.242 2.309l75.716 41.454c7.214 3.949 10.689 11.958 8.65 19.929-2.038 7.962-8.927 13.313-17.143 13.313zm-164.261-20.552c48.823 3.676 103.817 5.552 164.261 5.552 1.728 0 2.373-1.104 2.61-2.032.238-.932.203-2.219-1.321-3.054l-75.716-41.454c-3.026-1.656-6.516-2.035-9.83-1.067-3.312.968-6.048 3.168-7.705 6.194-.03.057-.062.113-.095.17l-7.995 13.744c-1.847 3.172-5.715 4.54-9.143 3.242l-45.966-17.433zm-236.694 18.432h-66.058c-7.877 0-14.316-5.421-15.661-13.182-1.344-7.761 2.897-15.031 10.315-17.681l43.397-15.498v-32.164c-41.55-36.28-65.325-84.805-65.325-133.509 0-4.143 3.357-7.5 7.5-7.5s7.5 3.357 7.5 7.5c0 40.398 18.169 80.845 50.326 112.994v-98.194c-2.527-5.314-9.622-21.854-9.622-40.083 0-3.499.442-6.913 1.271-10.188h-26.369c-2.554 3.278-4.955 6.629-7.06 10.02-2.185 3.521-6.811 4.601-10.327 2.417-3.52-2.184-4.602-6.808-2.417-10.327 6.828-11.003 15.926-21.047 23.952-29.908 8.42-9.296 17.963-19.832 17.963-25.056v-6.749l-22.177-12.155c-9.256-5.072-13.944-15.767-11.401-26.008 3.964-15.962 6.446-23.714 7.951-27.647-3.551-7.04-7.315-16.194-3.667-23.516 2.536-5.085 11.656-10.479 27.109-16.032 3.897-1.401 8.19.624 9.593 4.521 1.401 3.897-.622 8.193-4.519 9.596-7.925 2.852-16.243 6.8-18.72 8.835-.013 1.462.979 4.896 5.156 12.854 1.168 2.225 1.145 4.887-.063 7.091-.58 1.058-2.891 6.198-8.282 27.915-.903 3.637.763 7.436 4.052 9.238l26.073 14.29c2.402 1.316 3.896 3.838 3.896 6.577v11.191c0 11.007-9.641 21.65-21.846 35.125-.812.897-1.637 1.808-2.468 2.729h20.732c7.537-10.117 19.38-16.776 32.412-16.776 5.608 0 10.957 1.137 15.827 3.19-3.282-8.876-5.081-18.498.841-30.88 4.01-8.384 12.615-11.825 21.726-15.467 11.984-4.791 25.567-10.222 35.143-27.693 8.144-14.858 10.32-29.671 6.297-42.838-4.225-13.821-15.384-26.019-32.27-35.273-29.564-16.203-50.897-14.772-69.17 4.636-2.841 3.017-7.587 3.156-10.603.319-3.016-2.84-3.158-7.586-.319-10.603 11.541-12.257 24.82-19.062 39.47-20.224 14.47-1.148 30.122 3.011 47.831 12.717 20.388 11.174 34.014 26.403 39.405 44.044 5.233 17.122 2.645 35.944-7.487 54.431-12.163 22.192-29.829 29.255-42.729 34.412-6.589 2.634-12.279 4.909-13.763 8.011-4.515 9.44-2.153 15.049 2.133 25.229 3.793 9.01 8.514 20.223 8.514 36.834 0 19.56-.86 43.544-2.401 68.793 17.345 1.215 33.009 6.434 46.655 15.562 13.128 8.781 23.952 21.071 31.449 35.67l76.919 29.173c3.873 1.469 5.822 5.8 4.354 9.672-1.469 3.875-5.805 5.82-9.672 4.354l-79.675-30.218c-1.809-.686-3.282-2.044-4.113-3.791-5.998-12.607-14.471-22.882-24.85-30.472l-48.255 52.635c-3.096 26.782-6.783 50.958-10.824 68.312-2.57 11.036-12.294 18.745-23.649 18.745zm3.217-264.281c-14.009 0-25.845 12.348-25.845 26.964 0 17.904 8.673 34.675 8.761 34.842.562 1.074.861 2.278.861 3.49v157.909c0 3.17-1.992 5.997-4.978 7.063l-48.375 17.276c-.38.136-.708.253-.58.994.129.741.478.741.881.741h66.058c4.343 0 8.061-2.939 9.04-7.148 13.466-57.827 20.022-152.691 20.022-216.287.001-14.25-11.594-25.844-25.845-25.844zm37.46 109.616c-.994 14.148-2.186 28.494-3.545 42.51l32.355-35.292c-8.754-4.006-18.436-6.46-28.81-7.218z"/></g></svg>