<svg id="outline" height="512" viewBox="0 0 512 512" width="512" xmlns="http://www.w3.org/2000/svg"><path d="m484.5107 497.2109h.0332c4.3159 0 8.248-2.5381 10.0239-6.4736 1.7803-3.9463 1.0737-8.5879-1.8003-11.8252l-29.5049-33.2295c-7.7681-9.1289-20.7461-11.9463-31.6035-6.8496-3.834 1.7998-7.2246 4.5264-9.8042 7.8848l-2.3457 3.0537-14.7212 2.6299-49.1929-13.8623c-17.5259-4.9385-36.104-5.1201-53.728-.5205l-4.0205 1.0488-45.5098-47.8555c-1.6982-15.1719-8.5601-29.2852-19.5137-40.0127l-7.071-6.9258c-4.8096-24.9243 2.0024-51.1382 18.4446-70.5566l4.5377-5.3586c7.1298-7.7986 11.6405-17.7944 12.7074-28.3818l7.5901 1.1418-.6541 2.5146c-2.0615 7.9248-2.3223 16.3613-.7529 24.3994 3.71 19.0049 17.3496 34.8379 35.5972 41.3203l4.0869 1.4512c.8735.3096 1.7778.4609 2.6758.4609 1.9951 0 3.9556-.7471 5.4619-2.1533 2.1836-2.04 3.0483-5.126 2.2427-8.0039l-4.6719-16.6846c-2.6138-9.335-.9771-19.2793 4.4897-27.2842 7.1982-10.541 7.7969-24.0078 1.5625-35.1465l-1.7632-3.1494c1.4863-3.9067 2.2798-8.0896 2.2798-12.3672 0-13.1719-7.6416-25.4307-19.4673-31.2305l-5.0906-2.4968-8.7664-5.1799-10.4346-10.9097 8.2441-10.3794c4.4502-5.6035 7.7021-12.2285 9.4155-19.1777l16.3569-50.8975 15.9424-11.5439c1.5093-1.0928 2.5894-2.6777 3.0547-4.4824l7.627-29.5811c.5464-2.1182.2012-4.3672-.9546-6.2236-1.1558-1.8574-3.0215-3.1602-5.1626-3.6055l-33.8062-7.0322c-3.6182-.7607-7.2812 1.0693-8.8613 4.4111l-16.4067 34.6895-43.1665 76.5693c-3.3203 5.8887-5.6304 12.2461-6.8662 18.8936l-9.8008 52.729-35.4858 10.481c-16.3384 4.8252-27.126 20.6465-25.6499 37.6191l1.1309 13.0117-1.0264 5.0117c-4.8171 23.519-4.8878 48.1497-.2826 71.7429l-57.7223-19.0056c-8.1572-2.6846-17.0581-2.4473-25.0522.6641l-.4355.1689c-17.7266 6.9014-27.686 25.3828-23.6807 43.9434 6.0127 27.8604 15.21 70.7236 18.5278 86.1953l-18.6089 10.2246c-7.7124 4.2373-11.1899 13.3369-8.2715 21.6309l.0679.1934c2.5605 7.2764 9.4302 12.1523 17.1089 12.1523h.0693c7.8149-.0283 20.4922-.0361 30.1909-.0381 11.1875-.0029 21.5376-5.585 27.6924-14.9395l.1489-.2275c4.3237-6.5723 6.2383-14.4775 5.3911-22.2578-1.5132-13.8916-4.3979-40.4346-6.2837-57.7881 13.9023 8.6045 28.3359 16.4736 43.0591 23.4707l7.8286 3.7197 99.918 59.8281c9.749 5.8379 20.9082 8.9805 32.27 9.0889l192.1631 1.293zm-59.1382-32.2334c1.9624-.3506 3.7231-1.4209 4.9375-3.001l4.2334-5.5117c1.0303-1.3408 2.3838-2.4297 3.915-3.1484 4.3472-2.04 9.5493-.9023 12.6479 2.7695.0435.0508.0869.1016.1313.1514l22.1445 24.9404-61.9917-.1851.6722-13.6379 13.3097-2.3772zm-260.2443-189.4768 46.1079 28.5793c-2.9532 11.9001-3.7588 24.3325-2.2385 36.627l-41.7031 1.9199c-5.2437-21.864-5.9731-44.9478-2.1663-67.1262zm139.1663-27.3855c-8.0132 11.7334-10.4985 26.2656-6.8604 39.9756-7.1968-5.7139-12.3032-13.8916-14.106-23.125-1.1128-5.7002-.9277-11.6836.5342-17.3047l1.2756-4.905c7.561-.4631 14.8265-3.3821 20.6575-8.4426l.8687-.7539c1.4045 4.9019.6006 10.2065-2.3696 14.5557zm-16.4536-40.9883 7.2589-16.3484c5.2164 3.439 8.4867 9.3694 8.4867 15.697 0 5.4463-2.3589 10.6182-6.4722 14.1875l-1.8057 1.5664c-4.1572 3.6084-9.6616 5.207-15.1069 4.3887l-17.4448-2.6243.688-8.5247 18.6587-3.7446c2.5449-.5107 4.6841-2.2246 5.7373-4.5977zm-6.8184-24.0703-6.125 13.7949-10.1138 2.0298 2.2789-28.2375 8.3993 8.781c.5059.5283 1.0815.9854 1.7114 1.3574l3.8491 2.2744zm-44.0479-31.833c.9131-4.9121 2.6201-9.6094 5.0732-13.9609l43.3071-76.8184c.0938-.166.1816-.3359.2632-.5078l13.8359-29.2539 19.4268 4.041-4.813 18.668-15.73 11.3906c-1.3789.998-2.4033 2.4111-2.9243 4.0322 0 0-17.3638 54.0537-17.4111 54.25-1.1519 4.8066-3.3857 9.3936-6.46 13.2637l-18.2578 22.9873c-.9868 1.2422-1.582 2.75-1.7095 4.332l-5.979 74.082c-.5759 7.1404-3.4886 13.9126-8.1588 19.2578-.1401.1423-2.8595 2.9551-4.0658 3.9326-5.562 4.5088-13.4658 5.1328-19.6665 1.5557-5.3818-3.1055-8.7222-8.8945-8.7173-15.1094l.0029-3.8184c.002-3.8525 1.3071-7.6494 3.6748-10.6914 0 0 16.1262-20.7322 16.1621-20.7805.1219-.1643 12.147-60.8523 12.147-60.8523zm-56.4849 75.6289 17.2099-6.7851c-4.5415 5.835-8.705 16.08-8.7089 23.4697l-.0029 3.8164c-.0098 11.9199 6.3975 23.0244 16.7217 28.9814 4.51 2.6013 9.4875 4.0447 14.5127 4.3628-1.3643 2.5488-2.6102 5.155-3.7476 7.8047l-49.3428-30.5845-.8848-10.1768c-.8193-9.4238 5.1709-18.209 14.2427-20.8887zm-83.8462 244.4453c-3.1816 4.8359-8.5366 7.7246-14.3237 7.7256-9.7158.002-22.4165.0098-30.2471.0381h-.0083c-.9131 0-1.7046-.5732-2.0151-1.4561l-.0679-.1934c-.311-.8838.0596-1.8525.8809-2.3037l22.1792-12.186 26.6843-1.073c-.1147 3.2522-1.1128 6.4539-2.9333 9.2209l-.1489.2275zm171.6533 1.8047s-100.6919-60.2783-100.9229-60.3877l-8.1753-3.8848c-18.0854-8.5957-35.7207-18.5566-52.4165-29.6094l-2.8599-1.8926c-1.3364-.8838-2.875-1.3281-4.4155-1.3281-1.4399 0-2.8818.3887-4.1621 1.168-2.6484 1.6133-4.1255 4.6123-3.7905 7.6963 0 0 3.9384 36.2559 6.6335 61.0347l-20.9407.8423c-3.4485-16.0786-12.4503-58.0298-18.3687-85.4512-2.3374-10.834 3.4854-21.625 13.8379-25.6553l.436-.1689c4.5503-1.7725 9.6123-1.9072 14.2515-.3799 0 0 72.3292 23.719 72.4709 23.7405.0977.0149 55.4275-2.3928 55.4275-2.3928l6.3257 6.1963c8.8506 8.668 14.1812 20.249 15.0098 32.6104.1245 1.8633.8979 3.624 2.1846 4.9775l50.6816 53.2949c2.0059 2.1094 5.001 2.9639 7.8179 2.2275l8.5854-2.2402c14.875-3.8799 30.5562-3.7295 45.3481.4395l44.8269 12.6318-.7062 14.3235-102.8761-.9768c-8.5215-.0811-16.8911-2.4375-24.2031-6.8154z"/></svg>